<svg width="25" height="24" viewBox="0 0 25 24" fill="none" xmlns="http://www.w3.org/2000/svg">
<path d="M16.3002 2.21048C15.8902 1.80048 15.1802 2.08048 15.1802 2.65048V6.14048C15.1802 7.60048 16.4202 8.81048 17.9302 8.81048C18.8802 8.82048 20.2002 8.82048 21.3302 8.82048C21.9002 8.82048 22.2002 8.15048 21.8002 7.75048C20.3602 6.30048 17.7802 3.69048 16.3002 2.21048Z" fill="#101010"/>
<path d="M21 10.19H18.11C15.74 10.19 13.81 8.26 13.81 5.89V3C13.81 2.45 13.36 2 12.81 2H8.57C5.49 2 3 4 3 7.57V16.43C3 20 5.49 22 8.57 22H16.43C19.51 22 22 20 22 16.43V11.19C22 10.64 21.55 10.19 21 10.19ZM12 17.75H8C7.59 17.75 7.25 17.41 7.25 17C7.25 16.59 7.59 16.25 8 16.25H12C12.41 16.25 12.75 16.59 12.75 17C12.75 17.41 12.41 17.75 12 17.75ZM14 13.75H8C7.59 13.75 7.25 13.41 7.25 13C7.25 12.59 7.59 12.25 8 12.25H14C14.41 12.25 14.75 12.59 14.75 13C14.75 13.41 14.41 13.75 14 13.75Z" fill="#101010"/>
</svg>
