<svg width="14" height="14" viewBox="0 0 14 14" fill="none" xmlns="http://www.w3.org/2000/svg">
<path d="M3.6033 6.10172C3.81125 5.47258 4.21257 4.92519 4.75002 4.53763C5.28746 4.15007 5.93358 3.94213 6.59619 3.9435C7.3473 3.9435 8.02641 4.21016 8.55974 4.64661L10.1117 3.09505C9.16596 2.27061 7.95396 1.76172 6.59619 1.76172C4.49396 1.76172 2.68419 2.96083 1.81396 4.71727L3.6033 6.10172Z" fill="#04060F"/>
<path d="M8.39161 9.76796C7.90717 10.0804 7.29206 10.2471 6.59606 10.2471C5.93609 10.2484 5.29241 10.0422 4.75616 9.65745C4.21991 9.27275 3.81825 8.72912 3.60806 8.10352L1.8125 9.46663C2.25305 10.3583 2.93484 11.1086 3.78042 11.6322C4.626 12.1558 5.60148 12.4318 6.59606 12.4288C7.89961 12.4288 9.14494 11.9653 10.0778 11.0955L8.39206 9.76796H8.39161Z" fill="#101010"/>
<path d="M10.078 11.0948C11.0535 10.1846 11.6869 8.82989 11.6869 7.09478C11.6869 6.77922 11.6384 6.44011 11.566 6.125H6.59619V8.18589H9.45664C9.31575 8.87878 8.93664 9.41522 8.39219 9.76722L10.078 11.0948Z" fill="#101010"/>
<path d="M3.60808 8.10257C3.49935 7.77764 3.44411 7.43721 3.44452 7.09457C3.44452 6.74702 3.50008 6.41324 3.60319 6.10124L1.81386 4.7168C1.4478 5.45577 1.2591 6.26992 1.26275 7.09457C1.26275 7.94791 1.46052 8.75235 1.81252 9.46569L3.60808 8.10257Z" fill="#101010"/>
</svg>
