<svg width="269" height="225" viewBox="0 0 269 225" fill="none" xmlns="http://www.w3.org/2000/svg">
<path fill-rule="evenodd" clip-rule="evenodd" d="M123.688 193.292L126.216 202.556H115.201C115.295 201.344 115.451 199.851 115.638 198.608C115.794 197.458 115.669 197.52 117.853 196.432L123.688 193.292ZM106.589 113.868C106.09 114.054 106.339 113.495 106.246 114.365H106.589V113.868C107.837 114.148 108.43 115.142 109.366 115.826C110.302 116.51 111.737 116.759 112.518 117.567C114.047 119.183 117.853 119.588 119.975 119.774C119.569 121.546 119.008 123.1 121.317 123.66C121.192 124.157 121.098 124.25 120.88 124.748L119.445 128.229C117.416 132.861 115.326 142.094 115.388 146.788C115.388 148.093 115.201 148.622 115.201 149.834C115.201 152.01 115.139 154.373 115.357 156.269C115.482 157.357 115.451 158.196 115.575 159.253L117.073 167.553C115.451 168.641 112.954 171.532 112.486 173.46C111.956 173.086 111.8 172.558 111.332 172.061C110.926 171.594 110.489 171.252 110.053 170.786C107.556 168.237 109.959 166.776 111.425 164.289C113.641 160.559 109.366 156.58 106.745 154.528C103.5 151.948 103.032 152.01 104.686 148.311C105.996 145.42 106.246 143.275 104.311 140.415C101.565 136.374 95.5432 134.353 90.8316 133.265L83.1245 131.991C82.6876 131.835 82.7188 131.742 82.1572 131.587C81.8139 132.115 81.7203 132.24 81.4707 132.923L80.6594 135.037C80.285 136.405 79.5049 137.244 78.8497 140.602C78.4128 142.84 78.4128 141.503 78.444 144.239C78.4752 149.834 82.1884 150.767 85.9639 151.762C86.6504 151.948 87.0248 152.197 87.5865 152.321C87.5865 155.368 83.2805 161.367 87.7737 162.766C90.0827 163.481 92.6725 162.02 91.4868 165.688C90.9564 167.398 89.9579 169.854 90.8004 171.563C89.7395 171.563 86.8376 171.159 86.1199 170.817C84.3414 169.947 85.1214 165.533 83.4677 162.517C81.2835 158.569 76.5719 157.792 71.985 157.419C68.8335 157.171 65.6197 157.699 62.7802 158.538L62.3121 158.569L59.9719 147.254C59.7223 146.415 59.5663 145.42 59.3479 144.519L58.0686 139.389C57.8501 138.612 57.4133 137.524 57.4133 136.498C61.4385 133.825 59.1919 130.53 58.287 126.178C58.131 125.463 58.0374 124.81 57.9125 124.188C57.7253 123.162 58.0061 122.603 57.0389 122.51C57.0389 126.613 58.3182 130.592 58.2246 132.644C58.1622 134.074 57.4133 134.322 56.8516 135.162C56.5396 135.006 56.3524 134.789 55.9468 134.944C55.2915 135.193 55.7283 135.255 55.2603 135.597C54.5114 136.187 53.7626 135.597 53.0137 135.721C51.5784 135.97 50.4863 136.84 48.7077 136.84C49.0509 136.125 49.5814 134.54 49.2069 133.794C48.2084 134.043 48.1148 135.504 47.7716 136.405C47.3972 137.4 46.4923 137.151 44.2769 137.338L39.066 137.711C36.445 137.99 33.2935 137.866 30.5788 137.866C30.0172 136.809 29.2371 135.379 29.2371 133.825C28.1138 133.856 28.2386 134.322 28.5194 135.721C28.7378 136.809 29.0499 137.058 29.2371 137.866L11.7947 137.182C11.233 137.275 11.1706 137.275 11.1082 137.866C10.0473 137.835 9.7665 137.089 9.36086 136.25C8.54959 134.633 9.86011 132.582 10.2033 130.872C10.7962 127.825 11.1082 124.655 11.2954 121.484C11.3578 120.551 11.5763 120.769 11.6075 120.116C11.6699 119.401 11.4203 118.779 11.6075 117.07C11.6699 116.51 11.6387 115.795 11.6387 115.236C11.6387 113.899 11.8259 113.246 11.8259 112.034L11.9819 101.744C11.9819 99.4439 11.9819 97.1435 11.9819 94.8121L11.6699 90.056C11.5451 89.1234 11.6387 89.2477 10.9834 88.9058C10.7026 89.5275 10.765 89.7762 10.4218 90.3668L8.76801 95.3095C8.45598 96.3664 8.11275 97.3922 7.73831 98.5113C7.39508 99.5993 6.92704 100.625 6.92704 102.086C5.74133 102.397 6.11576 102.646 4.14998 102.304L1.49774 101.589C1.49774 100.967 6.5214 82.8751 7.42629 81.1654L9.7353 77.9014C10.1097 77.4972 9.51688 78.119 9.89131 77.7148L11.5139 76.2849C11.3578 76.9377 9.29846 81.5695 11.6699 82.1912C11.6699 80.2328 11.8883 78.9894 12.9804 77.2796C14.7278 74.5441 17.4736 72.6789 20.9683 72.5857L23.9326 72.337C24.9935 72.1815 25.9608 72.3059 27.0529 72.2437C32.139 71.8085 42.2175 72.5857 47.678 73.6426C48.5829 73.8291 49.4566 73.8913 50.2678 74.2643C49.7686 74.9482 48.3645 75.1658 47.1475 76.9066C46.6795 77.5905 46.4299 77.9635 46.2115 78.8339C46.0242 79.5489 45.681 80.4504 46.0554 81.1965C47.4284 80.2017 46.3051 79.5178 48.7701 77.6527C49.5814 77.0309 51.6408 75.6321 52.7953 75.4145C53.7938 75.1969 55.4475 76.7201 56.7268 77.4972C58.0686 78.2744 58.5366 80.1395 59.067 81.5695C59.6287 83.0927 60.0967 84.6159 60.7208 86.1702C61.8129 88.999 62.7802 92.3563 64.0907 95.4649L65.5884 98.6978C65.7757 99.0709 65.9317 99.4128 66.0565 99.9102L58.131 101.962C56.8828 102.335 55.4163 102.677 54.1994 103.112L50.3302 104.324L46.8043 90.9264C46.6483 90.3979 46.5235 89.3099 46.3051 88.8747C45.8994 88.7814 45.8058 88.7193 45.2754 88.7193C45.2754 91.144 48.0524 102.086 48.8013 104.418C49.3629 106.096 49.6438 107.744 50.1118 109.516L51.4535 114.583C52.2336 117.194 53.0137 119.246 55.1355 120.52C56.9765 121.639 57.9749 121.018 58.6614 121.049L61.6569 121.08C62.2185 121.049 62.8114 121.08 63.373 121.08C66.4309 121.08 82.7188 118.904 86.4944 118.313C90.1451 117.722 91.5804 117.039 94.9503 117.629C96.1361 117.847 96.5105 117.878 97.9146 117.878C100.036 117.878 101.129 117.318 102.72 116.261C103.999 115.422 104.53 115.453 105.559 114.179C105.903 113.743 105.497 113.93 105.965 113.743C106.714 113.495 106.589 113.837 106.589 113.868ZM13.1364 134.26C12.7932 133.763 12.918 133.763 12.1067 133.763C12.4187 134.167 12.4499 134.198 13.1364 134.26ZM58.3494 123.629C58.8174 123.66 58.8174 123.722 59.1919 123.784C59.1919 122.758 59.4103 122.634 58.3494 122.603V123.629ZM133.018 51.9446C133.018 52.3798 133.299 52.3798 133.361 53.1259H133.704C133.704 51.8203 133.548 51.6027 135.733 51.6027C136.575 51.6027 137.636 52.3798 137.293 51.4472C136.731 50.1416 133.018 50.3281 133.018 51.9446ZM149.275 53.6232C149.992 53.0948 150.117 51.4161 151.303 51.4161C152.27 51.4161 152.301 52.0379 152.832 52.442C153.175 51.6648 152.613 51.1053 151.802 50.9188C152.956 49.3645 154.829 51.012 154.205 49.8929C153.549 48.6806 151.147 50.0484 150.491 50.8255C149.649 51.8824 149.275 52.4109 149.275 53.6232ZM137.417 49.4266C137.854 49.0847 137.792 48.7428 139.134 48.2454C140.007 47.9345 142.285 47.6547 143.346 48.2454C143.72 48.463 144.188 49.1779 144.157 48.2765C144.157 47.7791 143.752 47.4682 143.315 47.2506C140.912 46.1626 136.731 47.9656 137.417 49.4266ZM36.5074 48.8982C37.5059 48.8049 37.0066 48.3697 37.9427 48.463C38.6916 48.5562 38.9412 48.9293 39.378 49.209C38.8164 50.0173 38.2235 50.1416 38.5356 51.4161C39.534 51.3229 39.1284 50.7944 39.8773 50.2349C40.0645 50.9809 40.4389 52.0068 41.063 52.442C41.9055 51.1985 41.0942 49.4888 40.5013 48.7738C38.5668 46.4113 36.6322 47.4682 36.5074 48.8982ZM142.847 103.578C144.657 103.578 150.273 103.703 150.46 101.371C149.836 101.527 149.711 101.713 149.15 101.931C146.841 102.832 141.755 102.677 139.414 101.9C136.918 101.06 137.168 100.035 135.889 100.035C136.575 101.309 137.324 101.806 138.666 102.521C139.539 102.988 141.536 103.578 142.847 103.578ZM253.555 122.976C253.555 123.722 254.272 124.53 254.584 124.997C253.991 126.24 253.586 127.701 255.614 127.701C256.644 127.701 256.987 126.862 256.831 126.147C256.456 124.624 257.143 125.712 257.143 123.131C257.112 120.613 253.555 120.8 253.555 122.976ZM132.675 54.4936C133.517 54.5558 134.079 55.1154 135.327 54.9289C140.007 54.276 140.351 51.9135 141.848 51.7892C141.942 53.0326 142.067 53.2813 141.474 54.4626C141.224 54.991 140.694 55.9858 140.257 56.4521C138.166 58.9078 136.544 58.7213 134.204 58.1929V57.8509C135.951 57.8509 138.447 57.6333 139.446 56.1723C137.667 56.2034 136.232 57.3846 135.764 57.509L135.545 55.6438C134.609 55.6438 132.955 55.4884 132.675 54.4936ZM244.755 117.412C244.755 116.23 244.631 115.173 245.255 114.179C245.598 113.65 245.598 113.806 246.097 113.743C250.06 113.401 250.309 119.743 247.127 119.743C246.565 119.774 244.755 118.779 244.755 117.412ZM250.341 113.526C251.308 113.433 250.746 113.028 252.15 113.215C253.118 113.37 253.024 113.401 254.054 113.184C254.584 113.961 255.208 114.614 255.24 115.888C254.116 115.888 253.43 116.168 252.525 116.386C252.4 118.064 252.899 119.432 250.996 119.432C251.246 118.375 252.057 116.945 251.058 114.987C250.715 114.241 250.434 114.272 250.341 113.526ZM250.871 108.956V105.07L257.642 104.915C258.672 104.915 258.89 105.07 259.858 105.07C259.858 106.096 259.858 107.091 259.858 108.117C259.858 109.205 260.045 109.733 260.045 110.977C260.045 112.904 259.951 115.173 260.045 117.039C260.107 117.971 260.232 118.717 260.201 119.898L260.357 129.007L251.37 129.162C251.37 128.323 251.214 128.229 251.183 127.328C251.183 126.613 251.214 125.867 251.183 125.121C251.183 124.188 251.027 124.033 250.996 123.1C250.996 122.385 250.996 121.639 250.996 120.893C251.87 120.893 252.306 120.738 253.118 120.645C254.085 120.52 254.303 120.924 255.084 120.427C258.36 118.437 257.299 112.5 254.147 111.972L250.965 111.754C251.027 110.666 250.871 110.2 250.871 108.956ZM249.685 103.578C250.715 103.578 250.372 103.765 252.306 103.485L260.419 103.174C261.074 103.361 261.012 103.361 261.199 103.92C261.543 104.946 261.73 112.469 261.73 113.526C261.73 115.422 261.543 117.536 261.823 119.339L262.073 124.841C262.073 125.774 262.011 126.768 262.135 127.639C262.198 128.167 262.011 129.566 261.792 129.97C261.23 130.996 255.302 130.747 253.929 130.747C251.838 130.747 250.528 130.25 249.685 130.25C249.311 128.634 249.28 126.427 249.373 124.561L249.498 121.142C247.876 121.142 245.941 121.919 244.1 120.085C242.665 118.655 242.696 117.567 242.696 115.733C242.696 114.676 243.882 112.935 245.411 112.531C245.66 112.469 245.972 112.407 246.222 112.313C246.565 112.189 246.596 112.003 246.784 112.003C247.501 112.003 247.532 112.127 247.969 112.127C248.593 112.158 248.375 112.003 249.124 112.003V104.915C249.124 104.107 249.28 105.039 249.311 104.355L249.249 104.076C249.28 104.076 248.905 103.578 249.685 103.578ZM30.4228 160.745C30.4228 167.149 30.4852 172.496 31.6709 178.713L32.451 182.847C32.451 184.215 32.0766 183.811 32.5758 185.241L33.4183 188.629C33.4807 188.878 33.4807 188.94 33.5431 189.158C33.9175 190.401 33.7927 190.432 33.5119 192.36C33.1375 195.126 32.9814 199.758 32.5134 203.022C32.1078 205.851 31.9517 210.172 31.5461 213.529C31.4525 214.275 30.6724 221.27 30.8284 221.86C30.8284 221.923 30.8909 222.047 30.9221 222.109C31.2029 223.073 31.0469 223.321 31.9205 223.321C32.5134 223.321 32.3886 223.042 32.451 222.513L33.7927 208.338C33.9487 206.753 34.1983 204.794 34.292 203.084L35.9769 182.008C36.4138 182.537 37.9739 188.505 38.2235 189.407C38.4419 190.246 38.7852 191.147 39.0036 191.987L45.1506 212.193C45.4938 214.493 44.6201 223.042 45.4626 223.85C46.2427 224.596 46.4923 223.85 47.1475 223.912C47.99 223.974 46.8979 224.192 48.3645 224.067L54.9483 223.85C56.758 223.85 57.5069 223.85 57.5069 222.669C57.5069 221.985 56.5708 222.047 55.8531 221.954C53.981 221.705 50.7359 219.933 49.363 218.627C48.8949 218.192 48.6453 217.788 48.2709 217.197C47.7404 216.327 47.0851 214.773 46.9915 213.591C48.2709 213.685 49.831 213.964 51.1415 213.685C51.9528 213.498 51.5471 213.747 51.8904 213.25C51.2975 212.472 47.99 212.068 46.9915 212.068L45.8994 208.929C45.525 207.778 45.2754 206.846 44.9009 205.727L43.2784 200.939C43.0912 200.318 42.904 199.976 42.7167 199.323C42.0615 197.085 41.2814 195.189 40.6573 192.95C39.9397 190.432 38.2859 185.49 37.6931 183.065C36.3513 177.594 34.5728 172.216 33.2311 166.248L31.9829 161.087C31.8269 160.528 31.5461 159.937 31.4213 159.44C31.1405 159.409 30.4228 159.036 30.4228 160.745ZM180.072 221.643C180.072 221.176 180.665 221.643 180.228 221.643C180.072 221.643 180.072 222.016 180.072 221.643ZM180.758 220.803C180.789 220.772 180.821 220.834 180.821 220.866C180.821 220.834 180.758 220.803 180.758 220.803ZM178.73 3.04642C179.604 3.04642 178.917 3.26402 179.916 3.04642C180.477 2.92208 180.353 2.89099 181.102 2.85991C182.225 2.82882 182.849 2.70448 183.816 2.70448L194.644 2.2071C195.611 2.2071 196.578 2.2071 197.545 2.2071C198.7 2.2071 199.074 2.05167 200.073 2.02059C202.132 1.9895 203.692 1.86516 205.658 1.86516C212.648 1.86516 220.573 1.18127 227.656 1.18127C234.864 1.18127 242.415 0.497377 249.654 0.497377C255.021 0.497377 260.606 0 265.911 0C265.942 0.497375 266.098 0.963664 266.161 1.5543L266.597 12.9628C266.597 15.4808 266.753 17.4081 266.753 19.8639C266.753 22.1643 266.753 24.4646 266.753 26.7961C266.753 28.1639 266.941 28.8167 266.909 30.1534V37.2409C266.909 38.4533 267.097 39.1061 267.097 40.4428C267.097 42.7432 267.097 45.0435 267.097 47.3439C267.097 49.7997 267.253 51.6337 267.253 54.0895C267.253 56.4521 267.253 58.8146 267.253 61.1771C267.253 63.6329 267.409 65.467 267.409 67.9228C267.409 70.2853 267.409 72.6478 267.409 75.0104C267.409 77.3729 267.565 79.3002 267.565 81.756L267.721 102.49C267.721 104.915 267.877 106.78 267.877 109.236C267.877 111.692 267.721 113.619 267.721 116.137C267.721 118.437 267.877 120.427 267.877 122.883C267.877 136.747 268.376 150.301 268.376 164.196C268.376 168.89 268.563 173.211 268.532 178.029C268.532 179.397 268.719 180.05 268.688 181.386V191.862C268.688 193.23 268.875 193.883 268.844 195.22L269 219.342C269 219.809 268.688 220.368 268.158 220.368C267.752 220.368 267.658 220.088 267.315 219.871C267.315 210.794 266.941 202.214 266.972 193.044C266.972 191.738 266.785 191.054 266.785 189.686C266.785 186.795 267.097 182.164 266.753 179.615C266.504 177.749 266.629 175.138 266.629 172.993L266.441 166.434C266.379 164.165 266.441 161.771 266.441 159.502C266.441 157.077 266.285 155.243 266.285 152.912V142.778C266.285 141.441 266.098 140.726 266.098 139.576C266.098 137.275 266.098 134.975 266.098 132.644C266.098 130.343 265.942 128.478 265.942 126.053C265.942 123.504 266.036 115.204 265.755 112.749C265.661 111.816 265.443 110.573 265.443 109.516C265.443 108.397 265.443 107.278 265.443 106.127L265.287 86.0459C265.287 76.8755 265.131 68.2336 265.131 59.0633C265.131 57.9131 264.944 57.0738 264.944 55.706C264.944 51.5405 265.131 34.5054 264.944 32.1118C264.507 26.8582 264.788 9.63664 264.788 2.92208C261.73 2.92208 258.017 3.26402 254.959 3.26402L245.317 3.60597C243.726 3.69923 241.854 3.60597 240.231 3.60597C239.139 3.60597 238.858 3.7614 237.86 3.79248L225.659 4.13443C224.068 4.22769 222.196 4.13443 220.573 4.13443C218.701 4.13443 217.422 4.32095 215.674 4.28986C212.304 4.28986 209.34 4.47638 205.845 4.44529C204.067 4.44529 202.819 4.60072 200.947 4.60072C199.293 4.60072 197.514 4.53855 195.86 4.60072C194.956 4.63181 194.581 4.78723 193.489 4.78723H182.818L182.974 14.9212C182.974 16.0714 183.161 16.7864 183.161 18.1231C183.161 19.3044 183.161 20.4856 183.161 21.6669C183.161 22.9414 183.348 23.5321 183.348 24.8687C183.348 27.0758 183.286 29.4384 183.348 31.6144C183.379 32.4537 183.504 32.4537 183.535 33.293C183.567 33.8526 183.535 34.4432 183.535 34.9717L183.691 44.9192C183.66 58.4416 184.191 71.8396 184.191 85.3931C184.191 87.8489 184.347 89.8073 184.347 92.1387L184.503 112.376C184.503 114.863 184.659 116.728 184.659 119.121L184.815 139.358C184.815 157.419 185.501 175.263 185.501 193.323C185.501 195.686 185.657 197.613 185.657 200.069V217.104C185.657 218.254 185.844 218.969 185.844 220.306C190.868 220.306 196.297 220.43 201.259 220.151C204.597 219.933 203.724 222.016 202.944 222.016C195.954 222.016 188.528 222.264 181.601 221.674V222.171C180.415 222.171 180.665 222.109 179.916 222.669C179.791 222.544 179.853 222.544 179.541 222.389C179.105 222.14 178.73 222.171 178.231 222.171L164.158 222.358C164.19 221.891 164.158 221.674 164.658 221.674H179.417C179.417 220.306 179.76 220.088 179.76 218.814V209.706C179.76 208.524 179.573 208.058 179.573 206.846V197.738C179.573 195.531 179.417 193.945 179.417 191.831L179.261 173.77C179.261 165.502 179.105 157.761 179.105 149.492C179.105 141.628 178.761 133.421 178.761 125.525C178.761 109.236 178.418 93.4132 178.418 77.1242C178.418 72.9276 178.262 69.3216 178.262 65.1561C178.262 61.115 178.262 57.0738 178.262 53.0015C178.262 50.8255 178.106 49.2712 178.106 47.0952V3.57488C178.044 3.3262 178.324 3.04642 178.73 3.04642ZM101.191 201.561C101.191 201.188 101.565 200.1 101.69 199.851C101.971 199.199 102.283 199.105 102.533 198.328C102.876 197.427 103.219 195.499 103.219 194.287C103.968 194.691 105.965 196.805 106.215 197.209C106.62 197.831 106.776 201.996 106.776 202.742C105.903 202.742 105.84 202.898 104.904 202.898H101.503C101.503 201.996 101.191 202.059 101.191 201.561ZM113.36 202.742H108.274C108.274 201.313 107.993 197.116 108.243 196.65L109.428 195.126C109.834 194.598 110.084 194.007 110.801 193.79C110.989 194.536 111.581 195.437 111.987 195.997C112.424 196.619 113.048 197.427 114.015 197.52C114.015 198.67 113.36 200.38 113.36 202.742ZM115.919 196.183L123.189 191.8C123.189 190.961 123.127 190.65 122.846 190.122C121.223 190.122 119.07 190.09 117.76 189.78C117.448 190.432 115.919 195.344 115.919 196.183ZM100.161 198.701C100.192 197.738 100.785 196.774 101.004 195.002L101.222 192.422C101.285 191.334 101.534 190.743 101.066 188.847C100.692 187.324 100.723 187.386 100.161 187.231C100.099 188.132 98.5075 192.453 98.133 193.323C97.7274 194.287 97.6962 193.945 98.1018 194.66C98.5075 195.375 99.818 198.453 100.161 198.701ZM87.1184 190.277C88.2105 190.184 91.4868 189.002 92.3605 188.598L96.3233 194.784C96.5729 195.251 96.7289 195.406 96.9785 195.81C97.3842 196.494 97.4154 196.463 97.4466 197.023L93.9519 196.277C91.1124 195.562 90.3947 195.033 89.0218 192.733C87.8985 190.805 87.6801 191.054 87.1184 190.277ZM103.219 188.909C103.469 189.438 103.375 190.339 103.375 191.116C103.375 192.173 103.313 192.266 103.937 192.764C104.498 193.23 104.592 193.23 105.122 193.79C105.154 193.821 105.247 193.945 105.279 193.976L106.277 194.847L105.591 189.438C104.717 189.344 104.062 189.002 103.219 188.909ZM120.818 182.008C120.911 183.189 122.502 187.914 122.502 188.909L118.103 188.754L120.349 182.723C120.662 182.008 120.256 182.412 120.818 182.008ZM107.775 195.002C108.212 194.691 109.21 193.168 109.647 192.64C111.02 190.899 109.803 192.018 110.77 189.717C111.207 188.692 111.738 187.914 112.393 187.106C114.983 183.998 114.171 184.837 112.362 181.169C111.644 179.677 111.519 178.962 111.519 176.786C111.051 177.128 107.837 183.096 107.057 184.34C106.558 185.117 106.87 185.863 106.932 186.92C107.088 189.158 107.775 192.577 107.775 195.002ZM72.2347 179.304C72.8899 180.267 73.4516 180.329 74.0444 181.728C75.1365 184.34 74.7309 187.013 75.7606 188.132C77.0399 189.562 81.0651 188.971 83.5925 189.096C84.4974 189.127 84.7782 189.438 85.6207 189.438C86.1511 189.438 90.2387 187.852 91.5492 187.759C91.4244 187.262 90.8004 186.609 90.4571 186.143L85.5895 180.205C84.903 179.521 81.6579 176.63 81.2211 176.63L74.4189 178.62C73.67 178.806 72.8275 179.024 72.2347 179.304ZM113.204 177.439C113.204 181.511 118.04 183.003 114.951 187.106C113.984 188.381 112.923 189.407 112.736 190.837C112.705 191.179 112.767 190.868 112.674 191.147C112.486 191.614 112.174 191.21 112.58 192.546C112.861 193.51 113.797 195.158 114.546 195.655C114.671 194.163 116.886 187.386 117.448 185.707C118.009 184.06 118.321 184.371 117.728 183.221L116.137 179.397C115.763 178.527 115.451 177.749 115.076 176.91C114.827 176.351 114.109 174.952 114.078 174.361H113.734C113.61 175.48 113.204 176.133 113.204 177.439ZM95.4184 174.579L103.219 175.604C104.062 175.853 103.625 175.822 103.999 177.874C104.311 179.615 104.498 181.231 104.81 182.941C104.966 183.811 105.029 184.588 105.154 185.459C105.279 186.36 105.403 187.355 105.403 188.225C105.279 188.225 103.188 187.666 103.126 187.635C102.72 187.417 102.751 187.106 102.564 186.671C101.909 185.055 100.192 183.904 98.6323 183.158C94.4823 181.107 97.8834 179.21 95.4184 174.579ZM88.8346 173.242C88.9906 174.361 88.9282 175.231 88.8346 176.599C88.4914 181.138 87.5241 179.615 89.6459 182.226L97.2906 192.981C97.3218 191.8 99.1627 187.168 99.662 186.236L95.8864 183.904C92.2981 180.734 97.509 173.957 88.8346 173.242ZM114.546 172.9C114.546 173.335 118.384 180.516 118.446 182.692C118.914 182.35 119.039 181.573 119.289 181.013C120.225 178.931 120.131 179.552 119.289 176.786L117.073 169.045C116.948 169.605 114.546 171.998 114.546 172.9ZM75.1053 159.067C75.1053 161.554 74.0756 167.273 74.0756 169.698C74.8245 169.885 76.9463 171.439 77.7576 171.936L82.7812 175.511C83.3741 175.977 83.8109 176.319 84.3726 176.817C85.2775 177.594 86.9 179.335 87.4617 179.49C87.4617 177.159 87.8049 175.387 87.8049 173.086C80.0354 172.434 86.0263 165.035 79.9106 160.87C78.9121 160.155 76.3222 159.16 75.1053 159.067ZM63.5915 166.496C63.7163 166.745 65.2764 177.563 65.2764 178.309H68.6775C70.7993 178.309 70.0193 179.179 71.673 178.433C73.4828 177.625 78.4752 175.946 80.3474 175.946C79.9418 175.356 77.4455 173.739 76.6031 173.118L72.6403 170.475C71.205 169.481 65.5884 166.527 63.5915 166.496ZM106.932 168.33C106.932 167.398 107.837 165.968 108.368 165.191C110.708 161.678 110.021 162.517 109.491 160.217L106.683 164.818C106.339 165.47 104.249 169.014 104.249 169.325C104.249 169.978 106.464 181.511 106.464 183.314C106.651 183.096 106.651 183.096 106.807 182.816C106.932 182.537 106.87 182.63 106.995 182.35C107.119 182.008 107.213 181.791 107.432 181.418C107.775 180.734 108.024 180.174 108.399 179.521L110.489 176.009C110.989 175.138 110.926 174.796 110.365 174.019C108.492 171.501 106.932 171.439 106.932 168.33ZM87.8049 159.751C87.8049 160.217 87.8985 160.217 87.9609 160.59C89.1154 161.149 90.8628 160.87 92.0485 161.243C97.197 162.797 89.9891 169.791 93.9519 172.993C94.9816 173.833 94.4199 173.491 96.7601 173.739C98.0082 173.864 98.9755 173.833 100.224 173.988C101.191 174.112 102.47 174.392 103.344 174.423C103.282 172.061 100.504 160.745 99.4436 158.569C97.2906 158.569 95.4808 158.756 93.1718 158.725C91.9861 158.725 91.3308 158.911 90.1139 158.88C88.9282 158.88 87.8049 158.787 87.8049 159.751ZM62.593 159.564L63.373 164.693C63.5915 165.502 63.6539 165.253 64.4651 165.439C72.2659 167.242 73.1395 170.631 73.0771 167.491L73.5764 162.238C74.3252 157.948 74.5125 158.88 72.4531 158.632C71.7978 158.538 71.3922 158.538 70.6745 158.538C64.9332 158.569 66.9614 158.538 62.593 159.564ZM137.761 150.953H138.104C138.104 153.938 138.603 156.145 138.603 158.88C138.603 159.813 138.728 159.968 138.79 160.745C138.822 161.46 138.759 162.238 138.79 162.952C138.822 164.103 139.102 165.657 139.134 166.807C139.196 169.481 139.383 172.123 139.664 174.703L142.223 197.613C142.784 201.965 143.876 208.742 143.876 213.001C142.16 211.851 141.786 201.344 141.38 198.453L140.507 190.712C140.195 188.194 139.602 185.707 139.446 183.158C139.414 182.412 139.352 182.101 139.258 181.324C139.196 180.796 139.134 180.019 139.04 179.335C138.478 175.263 137.979 165.564 137.948 161.212C137.948 160.279 137.792 160.124 137.761 159.191C137.729 157.823 137.854 156.3 137.761 154.963C137.605 152.29 137.48 154.124 137.761 150.953ZM101.846 150.642C101.846 149.679 102.439 148.591 102.813 147.876C104.03 145.482 103.874 145.855 103.874 143.555C103.874 142.778 102.813 141.037 102.345 140.695C101.441 142.591 99.9428 146.85 99.0691 149.057C97.8834 151.979 97.9458 150.829 99.3188 153.844C99.7868 154.839 100.317 156.207 100.66 157.233C101.035 158.383 101.534 159.533 101.846 160.621C102.189 161.864 102.595 162.921 102.876 164.134C103.126 165.16 103.718 166.776 103.75 167.833C104.124 167.553 105.903 163.854 106.183 163.326L108.68 159.067C108.024 158.103 105.934 156.331 104.935 155.554C102.72 153.813 101.846 153.191 101.846 150.642ZM80.6906 142.871C79.8794 142.871 80.7842 146.384 81.0027 146.788C81.5955 147.876 82.3132 148.529 83.5613 148.964C85.3711 149.617 89.6771 150.083 89.6771 152.321C89.6771 154.435 89.365 154.715 88.5538 156.922C88.3977 157.326 88.3353 157.73 88.1793 158.041C89.4274 158.01 92.5165 157.357 95.2936 157.357L99.1939 157.512L97.7274 153.751C97.4154 153.005 97.2282 152.601 96.9161 151.886C96.6353 151.233 96.4169 150.798 96.1049 150.145C95.1064 148.124 93.7022 145.233 92.4229 143.337C90.6132 143.337 88.4602 142.995 86.6816 142.995C84.591 143.057 82.8748 142.871 80.6906 142.871ZM80.5346 141.845C82.8436 141.845 89.6459 141.348 91.7053 142.343C91.5804 141.845 91.206 141.348 90.894 140.975C88.9594 138.55 88.429 137.68 85.6831 135.535C84.4662 134.571 84.3102 134.074 82.906 134.074C82.75 134.726 81.3459 137.431 80.9091 139.669C80.753 140.508 80.6906 141.13 80.5346 141.845ZM133.174 138.985H133.517C133.704 141.286 138.073 149.492 138.104 150.798C136.793 150.487 135.296 146.757 134.952 145.669C134.328 143.835 133.236 140.913 133.174 138.985ZM84.591 133.576C85.3399 134.229 86.3696 134.758 87.7737 135.97C91.7989 139.452 91.9237 140.477 94.3575 144.083L97.5714 149.834C97.5714 149.803 97.6338 149.896 97.665 149.927C97.8834 148.995 98.1954 148.156 98.5387 147.254L100.629 142.249C100.973 141.534 101.565 140.508 101.721 139.793C100.068 138.705 100.879 138.985 98.1643 137.431C94.9192 135.597 88.4602 133.576 84.591 133.576ZM154.86 121.453C155.671 121.453 157.044 121.577 157.699 121.235C158.136 121.018 158.355 120.769 158.791 120.458C160.102 119.588 159.665 119.152 158.698 117.443C158.011 116.261 158.167 116.106 157.918 115.546C154.673 115.546 146.185 116.541 142.847 116.572C140.444 116.572 141.817 116.634 140.413 116.852C138.572 117.163 135.545 117.132 133.08 117.474C129.898 117.94 131.957 117.505 128.587 118.22L121.847 119.588C121.286 119.743 121.379 119.65 121.161 120.24C120.474 122.137 121.878 121.919 123.938 122.541C125.904 123.131 132.519 121.981 135.046 121.919C138.104 121.857 144.001 121.391 146.903 121.422L154.86 121.453ZM113.891 116.386C113.641 116.23 114.265 116.23 113.391 116.23C113.61 116.386 113.017 116.386 113.891 116.386ZM89.1778 111.319C89.6771 115.111 89.4586 112.282 89.1778 115.546C90.2387 115.546 90.2075 115.298 91.4556 115.484L95.7928 115.888C99.35 116.292 99.3812 115.951 102.564 114.21L102.969 113.93C102.969 113.868 103.032 113.868 103.063 113.868H101.534C101.253 113.184 101.909 113.557 101.222 112.997C100.754 112.624 100.816 113.028 100.348 112.345C101.129 111.972 100.629 112.282 101.222 112.251C101.784 112.22 101.347 111.847 102.033 111.847C103.531 111.847 103.063 112.469 104.904 112.003L104.686 111.909C102.782 111.163 100.442 109.889 99.818 109.671C99.3812 109.516 98.4139 109.143 97.977 109.143C96.8225 109.143 92.5165 110.355 91.2372 110.697C90.1451 110.946 90.4883 110.635 89.1778 111.319ZM63.2482 109.485C63.7163 109.36 63.4978 109.516 63.7475 109.143C63.2794 109.236 63.4979 109.112 63.2482 109.485ZM10.2657 118.593C10.7338 116.572 10.3594 113.526 10.7026 111.257L10.9522 103.92C9.20485 104.076 7.5511 104.697 5.71013 104.262C5.71013 106.376 5.36689 108.397 5.36689 111.163C5.36689 113.619 7.70711 117.971 10.2657 118.593ZM63.2482 109.485H62.905C62.905 106.158 62.2185 105.319 62.2185 102.739C61.4697 102.739 57.4445 103.827 56.4772 104.076C54.9171 104.48 52.3896 105.133 50.7359 105.257L52.452 111.972C53.6377 116.23 54.1994 118.966 58.599 119.681C62.1249 120.24 75.8854 118.127 78.7249 117.66L83.5925 116.945C84.6534 116.821 85.2463 116.666 86.1199 116.603C87.3369 116.51 87.3993 116.541 87.5553 115.36C87.6489 114.614 87.8049 113.433 87.7425 112.78C87.5553 111.381 87.7113 111.661 86.3384 111.443C85.4335 111.319 84.8094 111.132 83.9669 110.946C80.6594 110.262 74.7933 109.671 71.361 109.671C60.6896 109.671 64.7772 110.511 61.8753 111.194C61.6257 109.92 61.9689 110.604 63.2482 109.485ZM113.891 116.386C113.922 116.417 113.984 116.417 114.015 116.448L119.476 116.914C119.445 118.127 119.351 117.474 118.446 118.095C120.006 118.095 121.192 118.002 122.502 117.754L131.676 116.261C132.331 116.199 133.018 116.292 133.673 116.23C134.796 116.106 136.388 115.951 137.48 115.795C138.884 115.609 140.039 115.702 141.162 115.609C142.566 115.484 143.627 115.329 145.031 115.236C146.154 115.173 147.621 115.018 148.869 114.863C152.8 114.365 160.851 114.458 162.817 111.723C165.188 108.397 164.876 105.35 165.656 102.894L166.28 100.314C166.561 99.0709 166.873 98.8533 166.28 98.8533C164.72 98.8222 159.54 100.252 155.39 100.252C155.328 100.874 155.109 101.62 154.953 102.335C154.797 103.112 154.548 103.734 154.548 104.449C155.765 104.418 155.702 104.2 157.106 104.449C158.698 104.729 158.604 104.884 158.635 105.63C157.419 105.35 156.888 105.475 155.734 105.599L147.839 107.34C146.248 107.806 144.376 108.241 142.753 108.676C137.886 109.951 131.395 112.22 126.434 110.417C124.219 109.609 125.841 110.884 124.187 109.796C122.69 108.77 122.846 108.739 122.066 109.018C121.691 109.143 121.286 109.36 120.818 109.485C118.789 109.889 118.009 109.547 116.668 109.547C117.916 111.909 120.568 109.827 121.785 111.381C122.346 112.127 122.44 112.438 122.44 113.091C121.348 112.842 121.847 113.028 120.88 113.215L115.326 113.433C114.671 113.433 113.922 113.401 113.298 113.433C112.549 113.464 112.486 113.588 111.613 113.619C110.271 113.65 109.179 113.526 108.056 113.775C108.836 114.458 111.238 114.987 112.268 115.142C112.892 115.236 114.14 115.422 114.827 115.453C115.919 115.515 116.543 115.36 117.354 115.298C117.167 116.448 114.92 116.386 113.891 116.386ZM80.1914 93.5997C80.1914 89.1545 80.5346 84.4916 80.5346 79.6111L73.0771 79.7665C73.0771 82.1912 72.9835 86.3878 73.2332 88.4084L73.4204 94.2836L80.1914 93.5997ZM72.0474 89.4031C72.0474 88.6571 71.9226 88.9058 71.9538 88.2841L72.0474 84.6781C72.0474 83.0927 71.9226 81.1032 72.2035 79.7976C70.7057 79.7976 69.8632 79.953 68.3031 79.953H62.3745C62.3745 82.4399 62.8738 84.6159 62.8738 87.0406C62.1561 86.5122 62.2185 85.5485 61.5321 85.02C61.6257 85.4552 61.7193 85.5796 61.8753 86.0459C62.0313 86.4811 62.0625 86.6054 62.2497 87.0406L64.5275 92.8848C65.214 94.5634 67.8038 99.475 67.8038 100.408C67.8038 100.874 64.9644 103.734 64.59 104.293C64.8084 105.195 64.9644 105.941 65.1204 106.998C65.214 107.775 65.3388 108.583 65.6196 109.205L75.4486 108.708C79.7233 108.708 86.2448 109.92 87.3993 109.858C89.4899 109.733 89.0218 110.355 90.8628 109.578C91.8301 109.174 94.2639 108.21 95.2312 108.21C95.2312 103.858 95.0752 100.066 95.0752 95.7136C95.0752 92.2009 95.1688 89.9316 94.8879 86.45C94.2951 78.5852 96.1985 79.1137 93.3902 79.1759L84.0605 79.5178C82.6252 79.5178 81.4083 79.2381 81.2211 79.8598C81.2211 79.8598 82.0012 92.232 81.2523 93.9106C80.8466 94.8121 79.4737 94.8432 77.8512 95.0919L72.3595 95.6825C72.2035 94.9675 72.0474 95.2162 72.0162 94.3458C71.985 93.8174 72.0474 93.4132 71.985 92.8537C71.8914 91.9211 72.0474 90.6777 72.0474 89.4031ZM124.562 108.459C124.562 107.526 124.624 107.091 124.718 106.407L125.092 98.6978C125.155 98.0761 125.248 97.7031 125.248 96.8327L126.434 77.5905L122.534 77.7459C121.598 77.7459 121.442 77.8703 120.693 77.9324L111.457 78.3366C109.304 78.6474 106.059 78.492 103.781 78.6163L96.3233 78.9583C96.3233 80.8234 96.1673 82.3466 96.1361 84.3672C96.1361 85.4863 96.3233 85.8283 96.3233 86.8852C96.3233 87.7867 96.3233 88.6882 96.3233 89.5897C96.3233 90.7088 96.5105 91.0507 96.5105 92.1076V100.221C97.0409 110.044 95.6992 107.464 99.2564 108.272C100.785 108.614 101.94 109.236 103.126 109.796C103.874 110.169 104.218 110.324 105.122 110.51C106.215 110.697 106.62 110.821 106.995 111.35L105.965 112.873C109.959 112.873 116.356 112.034 120.537 112.034V111.878C118.977 111.878 118.321 111.972 117.323 111.381C116.668 110.977 115.794 110.231 115.794 109.205C115.794 107.993 117.635 108.179 119.195 108.21C122.596 108.148 121.254 106.252 124.562 108.459ZM125.061 76.2538L134.048 72.3681C134.048 75.1347 134.609 77.6527 137.417 78.8028C140.039 79.8909 142.784 78.3676 144.532 77.062L147.371 74.9793C150.523 72.8033 149.462 73.1452 153.456 71.249C154.049 70.9692 153.393 70.9692 154.173 71.1557L157.013 72.0572C158.292 72.3991 157.793 72.0572 159.852 72.7722C160.258 72.8965 160.508 72.9276 160.913 73.0519L164.689 74.2021C165.906 74.6062 167.154 74.9793 167.965 75.8497C170.461 78.5542 169.837 84.5537 170.118 88.3773C170.243 89.8073 170.461 91.4548 170.617 92.7915L171.304 96.9881C167.091 96.9881 166.592 97.2679 162.38 98.045C161.381 98.2316 160.196 98.5113 159.041 98.7911C157.98 99.0398 156.763 99.3506 155.546 99.3506L157.044 92.0765C157.106 91.6413 157.2 90.9575 157.2 90.7399C157.2 90.1803 157.075 90.1803 157.075 89.4031C156.389 89.5897 156.576 89.4342 156.576 90.2425C155.952 90.3046 156.108 90.1181 155.89 90.8953C155.796 91.2372 155.765 91.5792 155.671 92.0144C155.484 92.8537 155.359 93.5376 155.172 94.3769C154.829 95.9934 154.548 97.5787 154.267 99.0398C152.863 106.096 154.236 104.324 149.306 105.381C147.246 105.817 142.004 107.682 141.817 107.713C140.538 107.961 141.068 107.557 138.229 108.366C135.358 109.174 129.835 110.106 126.965 109.454C126.965 106.749 127.682 105.039 128.93 102.988C129.367 102.273 129.804 101.962 129.835 101.029C128.462 101.029 127.464 101.962 126.621 102.553L127.807 79.7665C127.807 78.3987 127.963 77.7459 127.963 76.4092C127.121 76.0362 126.496 76.2538 125.061 76.2538ZM38.8788 67.9849L41.4062 68.6688C42.1239 68.9175 41.8119 68.6377 41.9991 69.6014C42.0927 70.1299 42.2175 70.5962 42.2487 71.0314C40.1893 70.8759 37.9427 70.5029 35.6337 70.534C34.8848 70.534 34.5416 70.4718 34.0735 70.4096L22.7781 70.192C22.7781 66.5861 25.68 67.7673 25.992 67.7673C26.9593 67.7363 25.6176 67.6119 27.0217 67.4876C28.8315 67.3011 34.7288 67.6741 36.7258 67.9539C38.9412 68.2336 38.2859 67.9849 38.8788 67.9849ZM30.2356 47.4061C28.8939 46.5046 28.0202 42.9297 28.5506 40.6604H29.0499C29.0499 46.2559 29.7363 45.2611 30.2356 47.4061ZM49.0197 50.7633C49.0197 53.8719 48.302 59.2187 47.0539 61.7988C46.5859 62.7314 45.681 63.7573 44.6201 63.7573C44.4641 63.7573 41.7495 62.9179 40.9382 62.3895C38.9412 61.0528 39.0348 61.861 39.0348 64.0992C39.0348 65.4981 38.754 65.7778 39.0348 66.9591C35.5089 66.9591 38.1611 65.9333 30.9221 65.9333H27.0217C27.0217 65.0629 27.2089 64.5033 27.1777 63.4153C27.1777 62.4516 27.1777 61.488 27.1777 60.5554C28.3634 59.9959 32.451 60.2135 34.1047 60.2135C36.5698 60.2135 36.2265 61.0217 37.0378 58.597C37.4747 57.2603 37.7867 55.9547 38.3171 54.8356C39.534 54.8356 40.4389 54.9599 40.6885 53.9963L39.222 53.4367C38.6604 53.1569 38.4107 53.0637 37.9427 52.6907C37.1314 52.1 36.3201 51.3851 35.9769 50.4214C34.2608 45.7896 40.2517 43.3649 41.1878 47.9034C41.8743 51.1364 43.5904 51.5405 44.0897 50.1105C44.2457 49.6132 44.2145 48.9293 44.4641 48.463C44.8697 47.6547 45.9618 47.4682 46.6795 46.8154C48.3645 45.3233 48.0836 43.8623 48.146 42.7121C48.1772 41.9971 48.4581 41.7484 48.8325 41.3443C49.1133 42.5256 48.7701 44.2664 48.8325 45.9139L49.0197 50.7633ZM23.9638 40.6604C23.9638 39.9454 24.0574 39.3548 24.2446 38.7331C24.5255 37.7694 24.8063 37.987 24.9935 37.272L24.3382 37.4586C24.307 37.4896 23.995 37.8316 23.9638 37.9248C22.5909 40.0387 23.2461 45.4787 24.0262 47.5615C24.4943 48.836 25.6488 50.4836 27.2089 50.6079C26.304 49.3955 23.9638 49.4888 23.9638 40.6604ZM143.845 34.2256L144.157 34.9406C144.781 36.8368 146.934 37.1166 148.494 37.7072L148.931 37.9248C147.028 37.9248 145.312 37.3342 144.22 36.0286C143.72 35.4691 143.845 35.2204 143.845 34.2256ZM30.4228 35.7488C32.1078 33.2309 43.84 33.9769 45.4938 36.4327C43.4656 35.9664 44.7137 35.9664 41.531 35.5001C33.6991 34.3811 32.3262 35.7488 30.4228 35.7488ZM149.275 41.9971C147.122 41.9971 146.373 41.8106 144.875 41.1578C143.72 40.6293 141.255 39.075 140.382 38.0492C139.321 36.8057 139.477 36.7436 139.009 35.5312C138.322 33.8215 138.51 33.9769 138.634 32.547H138.291C138.01 33.6972 138.135 33.5417 138.135 34.9095C138.135 38.1424 141.443 40.6915 144.126 41.7484C145.686 42.3701 147.122 42.8986 148.588 42.4634C149.15 42.308 148.963 42.4012 149.275 41.9971ZM125.904 42.681C125.779 42.4945 125.904 42.8053 125.748 42.339C125.716 42.2769 125.623 41.966 125.623 41.9349C125.342 40.5361 126.652 37.3653 127.245 36.2462C127.745 35.2515 128.337 34.5676 128.961 33.7593C129.274 33.3552 129.586 33.1065 129.991 32.7646C130.522 32.3605 130.834 31.9253 131.333 32.5781C128.805 32.6091 125.904 39.9454 125.904 42.681ZM36.8506 30.5264C37.0378 29.9668 37.2874 29.9358 38.4419 29.7492C40.8758 29.3762 42.3423 29.4695 44.6825 30.1534C45.3378 30.3399 45.7122 30.4642 46.2427 30.8062C46.8667 31.1792 47.1788 31.3035 47.1788 32.2361C46.7419 31.9563 46.7419 31.832 46.3051 31.5833C45.9306 31.3968 45.6186 31.3035 45.1818 31.1792C44.5889 31.0238 43.3408 30.6818 42.7167 30.5886C40.4389 30.2466 39.1596 30.5264 36.8506 30.5264ZM26.8657 33.3863C26.8657 32.3294 27.0841 31.9874 27.5209 31.3346C29.4555 28.3193 30.922 28.4125 31.7957 27.6665C28.7691 27.7287 25.1807 32.1739 26.8657 33.3863ZM156.202 30.371C156.233 28.5058 157.699 27.5421 159.072 26.8272C158.916 27.2934 158.698 27.2624 158.292 27.5732C156.888 28.5991 157.138 30.1223 156.202 30.371ZM154.017 29.1897C154.017 26.9515 153.955 25.4283 155.671 23.5631C156.482 22.6927 159.01 21.2317 160.632 21.2317C160.445 20.9519 160.601 20.8898 160.133 20.8898C158.23 20.8898 156.701 21.5115 155.422 22.786C153.019 25.1796 153.487 26.8893 153.674 29.1586H154.017V29.1897ZM150.46 28.8477C149.212 28.7545 143.627 25.7702 137.823 28.0706C136.575 28.568 135.545 29.3451 134.547 30.029C132.175 26.5163 125.779 29.9047 123.907 31.5833C121.816 33.4796 120.474 36.3705 120.474 39.2926C120.474 42.8986 123.189 46.1315 123.345 47.9034C122.471 48.121 121.629 48.6495 120.474 48.9293V49.2712C122.284 49.7064 124.281 48.6806 125.56 47.9034L129.211 44.9503C130.022 43.9866 130.834 43.0851 131.458 41.9349L133.548 37.9559C133.86 39.2615 134.952 40.505 135.857 41.4065L136.107 41.6552C139.134 44.4218 143.284 45.572 147.777 45.572C147.839 48.0278 148.494 48.4008 146.81 51.6959C146.373 52.5663 145.468 54.0895 144.563 54.3382V54.8356C145.842 54.8356 146.341 54.3071 147.09 53.8098C149.992 51.9135 149.493 49.6131 151.147 48.5873C152.613 47.6858 155.047 47.9345 155.047 49.4266C155.047 51.8203 154.548 52.815 152.52 54.1517C151.646 54.7113 150.523 55.3019 149.493 55.5195C148.245 55.7993 149.711 55.4573 148.463 55.3019C146.373 59.2498 146.622 66.5239 149.774 69.6947C150.179 70.0988 150.335 70.0988 150.491 70.6583C149.462 71.2179 148.651 71.7153 147.714 72.4302C146.778 73.1452 145.967 73.798 145.062 74.513C142.66 76.4403 138.728 79.6111 136.045 76.1295C135.389 75.259 134.921 73.9534 134.921 72.5235C136.388 72.6478 138.042 72.9587 139.227 70.5651C140.943 67.0524 138.26 68.4201 142.348 63.0423C142.847 62.3895 144.095 60.3378 144.095 59.3741C144.095 59.0633 144.095 59.343 143.939 59.0322C143.252 59.2187 142.94 59.8093 142.441 60.2445C142.285 60.4 142.223 60.4311 142.067 60.5554C137.324 64.5655 133.892 63.5707 130.178 58.5348C128.462 56.2034 128.181 53.0637 128.181 49.0536L128.337 48.9914C129.866 48.121 130.022 47.8102 132.019 48.5873L133.236 49.2401C133.299 49.2712 133.299 49.6442 133.486 49.1469C133.673 48.6495 132.831 48.0589 132.425 47.8413C131.021 47.0641 129.461 47.3439 128.181 48.1832C128.181 47.2506 128.337 47.0641 127.682 46.8465C127.339 47.5615 127.339 51.6959 127.339 52.9083C127.339 57.2603 129.742 61.3947 133.049 63.4153C138.01 66.4306 139.227 62.2962 138.51 67.0524C138.447 67.4565 138.385 67.5497 138.291 68.016C137.979 69.4771 137.698 71.622 135.483 71.622C134.952 71.622 135.202 71.5598 134.859 71.2179C134.765 71.1246 134.672 70.9692 134.609 70.9381L132.706 71.5909C130.958 72.3059 129.274 73.2696 127.557 74.0467C123.813 75.7253 124.031 76.3471 119.538 76.3471C115.575 76.3471 111.113 76.8755 107.182 76.8444L102.283 76.9999C101.129 76.9999 100.754 77.1553 99.7556 77.1864C96.4793 77.2175 93.047 77.3418 89.7707 77.5283C88.9282 77.5594 88.4914 77.7148 87.3993 77.6838L72.6715 78.3676C71.6418 78.3676 61.8129 78.9894 61.22 79.2691L61.0016 79.3935C61.1264 80.9478 61.3449 82.0669 61.3449 83.9631L59.0358 78.8339C58.5678 77.9014 58.131 77.4661 57.7253 76.4403C57.0389 74.7306 55.0731 73.798 53.4505 73.1141C52.9513 72.8965 52.5456 72.8033 52.0464 72.6478C48.302 71.622 47.1475 71.6842 44.0897 70.9692L43.5592 67.8917C43.1536 66.6172 41.4686 67.0835 40.3765 67.0835C40.1893 66.3063 40.2205 66.0265 40.2205 65.0629C41.0942 65.5292 41.9679 65.7468 43.2784 65.7468C46.6483 65.7468 48.1772 64.1614 49.0197 61.6745C50.2054 58.1618 50.3614 53.9963 50.3926 50.0484C50.3926 48.7738 50.2054 48.2143 50.2054 47.0019C50.2054 45.9761 50.2054 44.9813 50.2054 43.9555C50.2054 42.7742 50.0182 42.2147 50.0182 40.9091C52.3272 40.9091 54.761 39.5102 54.761 37.0234C54.761 35.5312 54.0434 34.7541 53.7314 33.4796C55.0419 32.0807 56.1028 31.5211 56.1028 29.0964C56.1028 27.5111 55.0731 26.3298 53.8874 25.5526C49.1133 28.0706 46.0554 25.9568 41.1566 24.5579C34.5416 22.6616 27.3649 24.4025 22.3725 28.941L21.7796 29.5316C21.7484 29.5627 21.7172 29.5938 21.686 29.6249C20.9059 30.4953 19.9698 31.8009 19.9698 33.3241C19.9698 34.1945 20.5939 34.4121 20.1571 35.1893C19.7826 35.811 19.5018 36.4638 19.2834 37.2099C17.8168 42.2458 18.4721 47.4682 20.7499 51.9446C21.842 54.1206 23.3085 56.1723 24.7127 58.1307L26.3352 60.5554C26.8657 62.0164 25.9296 65.5913 25.8984 66.0576C22.4349 66.1198 22.1852 67.3943 22.1852 70.2853C18.1289 70.2853 14.8838 71.4355 11.8883 73.6737C7.11426 77.2175 7.17666 79.3313 5.3981 83.7455L1.40413 96.2731C0.936086 98.014 0 100.376 0 102.148C0 103.05 3.12029 103.485 4.24359 104.014L3.99397 107.309C3.61953 109.889 3.52592 112.624 4.3372 115.204C5.02366 117.412 6.80223 118.997 8.6744 120.147C9.17365 120.458 9.45447 120.645 10.1409 120.707C10.1409 124.437 9.70409 127.981 8.7056 131.431C7.89433 134.322 6.73982 136.187 9.42327 138.643C10.4218 139.545 9.89131 138.768 10.2969 140.166C10.7962 141.876 9.64169 148.995 9.45447 150.891C8.58079 160.217 7.42628 170.32 8.6432 179.894C9.61049 187.448 9.48568 194.971 9.45447 202.711C9.45447 204.048 9.64169 204.639 9.64169 205.913C9.61048 209.022 9.48567 216.389 9.89131 219.156C10.3282 221.954 9.08004 225 10.7962 225C12.0131 225 12.0443 223.819 12.2003 222.7C12.7932 218.69 12.6372 213.156 12.6684 208.991C12.6684 207.747 12.4812 207.219 12.4812 206.131C12.4812 204.172 12.6684 201.996 12.3875 200.162C12.1691 198.732 12.2939 194.411 11.8883 191.552C11.6075 189.655 11.5451 187.666 11.4827 185.894C11.3266 182.288 10.453 178.527 10.453 174.765L10.2969 168.859C10.2969 161.864 10.7962 155.243 11.5139 148.311C11.7011 146.539 11.9819 144.394 11.9819 142.374L15.1958 142.529C15.1958 140.664 15.1334 140.229 15.539 138.488H16.2255C17.1616 142.529 15.1958 142.498 17.7544 143.057C19.533 143.431 21.686 143.897 23.527 143.897V141.037C23.527 140.198 23.683 140.291 23.683 139.514H24.3694C24.4007 140.85 24.7127 142.529 24.7127 144.083L30.9845 144.425C31.7645 144.456 32.5758 144.425 33.3559 144.425C33.3559 143.586 33.3871 140.633 34.1984 140.042C35.3217 140.353 35.228 142.249 35.1968 143.244C35.1968 144.27 35.072 144.487 36.1017 144.332C38.0987 144.052 40.2829 144.27 42.2487 143.99C44.9321 143.648 43.84 144.083 43.84 141.534C43.84 141.161 43.9024 140.54 43.9961 140.322C44.2457 139.669 44.0897 139.856 44.8697 139.856C45.1194 140.975 45.0257 142.374 45.0257 143.741C46.6795 143.368 48.6765 143.337 50.299 143.089C54.0434 142.529 52.6393 143.866 52.6393 138.332C53.4505 138.364 53.2321 138.177 53.5129 138.799C53.6065 138.985 53.7626 139.638 53.8562 139.98C54.0122 140.602 54.3242 141.783 54.3242 142.56C55.3539 142.56 55.8532 142.218 56.8516 142.218C56.8828 143.617 58.0061 148.653 58.3182 150.207L59.8159 158.321C60.0967 159.688 60.3464 160.932 60.596 162.269C60.8456 163.512 61.4073 164.88 61.5633 166.03C62.0001 168.734 63.1546 175.977 63.2794 178.651C63.373 180.982 63.7787 182.879 63.9347 185.086C64.1531 188.101 64.2779 190.899 64.6524 193.976C64.7148 194.598 64.902 195.251 64.9332 196.059C65.214 200.535 66.1189 204.856 66.1189 209.395L66.4621 221.052C66.5869 222.7 66.2125 223.912 67.9911 223.912C69.1144 223.912 68.6775 221.114 68.6775 220.368L67.055 197.365C66.9302 196.556 66.9614 195.531 66.8678 194.847L65.4636 179.552C67.3982 179.086 70.1441 179.708 71.4234 180.703C73.358 182.226 73.0771 185.334 73.7012 187.728C73.9508 188.629 74.2316 189.158 74.8869 189.749C78.0072 192.484 83.6549 188.847 86.9 193.137C87.3681 193.79 87.6489 194.443 88.1169 195.126C89.8955 197.769 95.2 199.572 98.4763 198.795C98.6323 199.51 99.0691 200.225 99.2876 200.846C99.5684 201.623 99.7868 202.338 100.161 203.022L96.6041 203.209C95.2312 203.24 94.1703 203.209 93.0158 203.333C91.4244 203.52 89.1778 203.395 87.6177 203.209C86.3072 203.053 87.5553 202.836 86.432 202.525C86.2448 202.929 86.432 212.876 86.432 213.996C86.432 215.674 85.8703 223.601 87.2745 223.601C88.7098 223.601 87.3681 222.917 89.3026 222.917C90.2075 222.917 91.1124 222.917 92.0173 222.917V223.073C90.7068 223.073 89.9579 223.228 88.8034 223.228L106.932 223.384C107.775 223.415 107.775 223.539 108.617 223.57C109.709 223.601 110.895 223.57 112.018 223.57C113.204 223.57 114.889 223.943 114.889 222.731C114.889 221.425 111.644 221.891 110.302 221.891C108.087 221.891 104.28 222.078 102.189 221.891C101.597 221.829 100.879 221.487 100.099 221.301C97.9458 220.772 96.2609 219.964 94.7007 218.565C92.0173 216.203 90.7692 213.654 89.4586 210.296C89.1778 209.612 88.3353 206.753 88.3353 206.038C88.3353 205.26 88.3978 206.162 88.5226 205.447C88.6162 205.012 88.5538 205.354 88.4914 204.701C90.2387 204.701 91.4868 204.887 93.047 204.856H117.26C119.788 204.856 124.905 204.577 126.902 205.012C126.902 206.317 128.618 212.659 128.993 215.084C129.086 215.705 129.242 216.42 129.367 217.26C129.554 218.565 130.116 220.337 130.147 221.549L128.275 221.891C129.211 221.891 129.742 221.86 130.147 222.389C129.586 222.513 129.149 222.7 128.462 222.731C128.805 223.197 128.587 223.073 129.461 223.073C131.021 223.104 132.175 222.886 133.892 222.886H141.349C142.004 222.886 141.879 223.01 142.348 222.979C142.535 222.979 142.972 222.917 143.377 222.886C147.34 222.606 151.552 222.7 155.578 222.731C157.387 222.731 158.542 222.575 160.32 222.575C160.227 221.425 160.196 221.052 159.135 221.052V219.529C159.915 219.311 159.478 219.063 159.478 217.85C159.447 215.394 159.072 207.685 159.259 206.317L159.478 196.929C159.478 195.468 159.696 193.728 159.821 192.36L160.008 187.821C160.008 186.889 160.164 186.64 160.196 185.645C160.227 182.723 161.069 177.749 161.537 174.858C162.161 171.128 163.191 166.403 163.69 162.673C165.063 152.321 165.438 141.286 162.349 131.369L159.322 122.914C161.319 121.577 161.787 119.059 160.383 117.132C159.884 116.448 159.852 116.044 159.478 115.329C163.035 114.521 164.377 113.153 165.562 110.075C165.968 108.987 166.062 108.21 166.343 106.967C166.561 105.972 166.779 104.138 167.622 103.672L169.588 102.615C175.142 98.5735 173.55 99.4128 172.365 93.7241C171.709 90.4601 171.678 88.0354 171.241 85.0511L171.085 81.383C171.117 80.668 171.397 80.5747 171.148 79.4246C170.929 78.3987 170.805 77.7148 170.337 76.8444C167.809 71.9639 162.255 73.2695 155.515 70.5029L154.205 69.7879C153.269 69.2284 153.175 69.6636 152.052 69.9123C150.928 69.1662 149.992 67.8917 149.399 66.4617C148.65 64.6277 148.307 61.861 148.307 59.7783C148.307 58.4416 148.619 57.6644 148.651 56.5764C150.616 56.5764 152.332 55.9236 153.83 54.8356C154.985 53.9652 155.921 52.8772 156.202 51.3229C156.389 50.3281 156.701 50.2038 157.075 49.3334C157.419 48.5873 157.668 48.0278 157.98 47.2195C159.041 44.484 159.54 40.9091 158.698 37.9559C158.448 37.0544 158.105 36.526 157.918 35.6866C164.533 36.2462 168.527 30.4642 165.718 24.3714C165.406 23.6875 164.377 22.3819 163.815 21.8845C160.289 18.6826 154.797 18.2474 151.552 22.071C150.273 23.4077 149.431 26.7028 150.46 28.8477Z" fill="#101010"/>
</svg>
