<svg width="238" height="197" viewBox="0 0 238 197" fill="none" xmlns="http://www.w3.org/2000/svg">
<path fill-rule="evenodd" clip-rule="evenodd" d="M171.05 44.055C171.05 44.405 171.275 44.08 171.15 44.055C171.15 44.055 171.05 43.655 171.05 44.055ZM25.7248 38.455C25.7248 38.58 26.1748 39.03 26.2998 39.03C26.6998 39.03 26.6998 38.955 27.0248 38.88C27.2248 38.105 27.4248 38.105 26.4498 37.58C26.1248 37.805 25.7248 37.93 25.7248 38.455ZM25.5748 40.905C25.5748 41.305 25.6498 41.305 25.7248 41.63C26.0998 41.73 26.8748 42.155 27.1748 40.905L27.0498 40.755C26.2498 39.955 25.5748 40.73 25.5748 40.905ZM155.8 45.505C155.8 49.755 158.8 49.155 158.275 46.205C158.175 45.63 158.125 45.18 157.875 44.73C157.25 43.605 155.8 43.48 155.8 45.505ZM159.675 51.405C159.675 51.78 159.925 52.43 160.325 52.53C161.4 52.78 160.075 51.48 161.8 50.655C163.85 49.655 166.175 51.055 166.5 51.03C166.625 51.005 166.75 51.33 166.75 50.705C166.75 49.655 162.675 48.23 160.675 49.805C160.275 50.105 159.675 50.755 159.675 51.405ZM168.025 46.08C168.025 48.78 170.75 48.73 170.75 46.38C170.775 42.005 168.025 43.43 168.025 46.08ZM165.575 58.73C165.575 56.205 161.975 55.83 161.875 58.455C161.8 61.205 165.575 60.73 165.575 58.73ZM185.725 53.555C186.75 52.805 186.4 50.48 189.45 51.13C190.225 51.28 190.45 51.68 191.05 51.83C191.05 51.08 191.025 50.78 190.575 50.43C190.075 50.005 189.625 50.105 189.3 49.68C190.8 48.955 190.825 49.505 192.325 49.53C192.3 48.055 189.35 46.83 186.375 49.93C185.475 50.905 184.225 53.155 185.725 53.555ZM167.6 134.705C167.6 135.38 167.5 135.505 167.775 135.98C168.925 138.18 172.675 139.155 175.25 139.155C176.85 139.155 178.675 138.755 180 138.43C183.025 137.68 183.675 137.48 186.425 136.505C187.75 136.03 191.075 134.43 191.075 132.805C191.075 132.23 190.85 131.63 190.5 131.355C189.9 132.605 191.575 133.03 186.2 134.68C184.2 135.28 182.175 135.805 179.975 136.23C176.975 136.83 173.025 137.13 170.1 135.755C167.775 134.73 168.9 134.405 167.6 134.705ZM215.65 51.105C215.525 50.53 214.625 49.155 214.275 48.605C211.975 45.08 211.7 47.155 209.6 47.93C209.25 48.055 207.35 47.655 208.775 49.655C209.1 50.105 209.475 50.905 209.75 51.405C210.6 52.905 212.875 57.43 214.5 57.43C215.7 57.43 216.5 56.805 217.3 56.205L220.575 53.73C222.675 52.005 225.1 50.38 226.975 48.48C227.725 47.705 227.8 47.98 228.1 47.605C228.2 47.48 228.275 47.155 228.275 47.105C228.35 46.18 228.35 46.855 227.875 46.23C227.775 46.08 227.775 46.08 227.675 45.855C227.55 45.58 227.475 45.455 227.35 45.18C225.775 42.055 224.45 43.23 222.25 44.805L216.775 50.105C216.75 50.13 216.725 50.155 216.7 50.18L216.3 50.655C216.05 50.98 216.1 51.005 215.65 51.105ZM33.0748 27.955C33.7248 27.955 34.0498 28.13 34.4748 28.055C35.1748 27.955 34.7498 27.655 35.4748 27.98L38.9498 30.43C39.9498 31.38 40.2748 31.155 40.2748 31.98C40.2748 32.405 38.5498 35.305 38.1498 35.88C37.3498 37.03 36.5748 38.33 35.6498 39.28C35.0498 39.88 35.1498 40.93 34.3248 42.705C34.0498 43.28 33.8748 43.73 33.5748 44.255C33.1748 44.955 32.8248 44.98 33.1498 45.88C33.9498 48.18 35.2998 52.83 35.7248 55.105L36.5498 58.88C36.5498 60.73 33.8248 61.98 33.8248 60.605C33.8248 59.605 34.3998 61.23 34.3998 57.88L32.8248 52.255C32.1498 49.83 32.0248 48.73 31.4998 46.505C30.3748 46.505 28.3248 46.68 28.3248 45.63C28.3248 45.305 28.3748 44.755 28.7498 44.755C29.1498 44.755 29.3998 45.055 31.7748 45.055C31.9498 44.305 32.2748 43.68 32.5748 42.98C33.8748 39.88 33.6998 40.105 33.7748 37.13C33.7998 36.43 33.7998 36.555 34.0748 36.13C34.8998 36.205 35.1498 36.905 35.2248 37.705L36.6998 35.455C36.8748 35.13 36.9248 35.005 37.1248 34.705C37.4748 34.18 37.7248 33.755 38.0748 33.205C38.3748 32.73 38.6748 32.255 38.9748 31.805C38.5748 31.53 38.3248 31.43 37.8748 31.18L34.9498 29.23C34.6748 29.73 34.4498 30.405 34.2248 30.955C33.9748 31.58 33.8748 32.205 33.3498 32.53C33.3498 31.305 33.8498 30.38 33.9248 29.355C31.1248 29.355 31.6498 29.78 31.5748 30.18C31.0748 33.355 28.7748 36.68 24.9998 36.68C25.2248 37.68 25.2998 41.905 24.9748 42.855C24.7998 43.355 24.9248 43.305 24.4248 43.455C24.6748 42.355 24.5748 41.58 24.5748 40.28C24.5748 38.88 24.2748 37.905 24.2748 36.68C20.6498 35.83 19.3748 33.28 19.3748 29.63C18.9248 29.855 17.5748 30.38 17.0748 30.505C17.0998 31.155 17.2998 32.03 17.3498 32.68C17.4248 33.53 17.4998 34.18 17.4998 34.98H17.1998C17.0998 34.505 16.8498 33.955 16.6748 33.355C16.4998 32.78 16.3498 32.23 16.3498 31.53C15.6748 31.705 15.2748 32.405 14.7998 32.855C14.4998 33.155 13.4748 33.955 13.4748 34.405C13.4748 35.28 15.8248 39.155 16.1998 39.43C16.1998 38.155 16.1748 36.805 17.3498 36.705C17.6248 37.28 17.2248 38.53 17.2748 39.255C17.4248 41.855 19.7248 45.355 20.2248 45.355L23.2498 45.205C22.9998 46.33 21.2998 46.905 20.2248 46.93C20.2248 49.955 18.7248 53.255 17.8998 56.105C17.2748 58.205 16.8748 58.58 17.5748 59.655C18.6498 61.305 26.4998 62.18 28.5748 62.18C29.7248 62.18 30.7498 61.905 31.7498 61.88C31.2498 63.23 26.7498 63.105 25.7498 63.23C24.4748 63.405 20.5998 62.78 19.5248 62.43C13.9248 60.63 15.6998 58.505 16.3748 56.58L18.8998 48.305C19.1748 47.155 19.4498 46.43 18.6748 45.555C17.7498 44.505 16.9998 43.58 16.5498 42.205C16.1248 40.855 15.8998 41.305 14.4498 39.005C11.0248 33.555 11.2748 34.255 13.8498 32.18L15.3248 30.93C16.5748 30.005 15.7248 29.88 16.5748 29.43C16.7998 29.305 17.2748 29.205 17.5748 29.13C22.7498 27.955 18.3748 29.53 22.6498 31.23C25.0248 32.18 26.3748 31.88 28.4998 30.405C28.9498 30.105 29.5248 29.58 29.8248 29.155C30.8998 27.78 30.0498 27.955 33.0748 27.955ZM199.825 48.23C199.825 46.03 200.95 40.88 202.375 39.405C204.4 37.33 206.8 37.455 209.5 37.155C212.2 36.855 215.725 36.705 218.4 36.705C221.6 36.705 223.8 36.93 226.6 36.98C227.475 37.005 228.475 37.18 229.45 37.305C233.075 37.68 235.675 39.08 236.75 42.655C238 46.805 234.9 60.48 232.425 62.955C231.175 64.205 229.125 64.605 226.75 64.605C222.075 64.605 212.65 64.655 208.775 63.73C208.15 64.68 205.2 67.455 204.45 67.905C203.35 68.58 202.325 68.33 202.15 66.88L202.425 63.005C201.25 62.73 199.925 62.305 199.2 61.48C199.125 61.38 199 61.255 198.95 61.155C197.9 59.655 198.275 57.48 198.725 55.83C199.15 54.305 199.15 54.08 200 53.655C200.3 53.83 200.725 53.905 200.725 54.38C200.725 56.455 199.625 58.63 200.9 60.255C201.7 61.28 202.75 61.73 204.05 61.73L203.75 65.755C204.3 65.38 204.975 64.455 205.7 63.83L208.425 61.505C209.575 60.905 217.525 61.73 219.6 61.73C222.175 61.73 228.8 62.455 230.825 61.605C232.95 60.68 234.225 53.505 234.45 51.98C234.85 49.005 236.1 42.83 232.8 40.78C229.5 38.73 213.875 39.18 209.4 39.555C207.25 39.73 205.575 39.73 204.2 41.105C202.55 42.78 201.6 47.18 200.725 49.58C200.7 49.655 200.5 50.18 200.475 50.205C200.275 50.505 200.475 50.405 200.05 50.505L199.825 48.23ZM112.35 46.355C112.35 47.005 113.525 47.755 114.2 47.955C115.575 48.38 115.775 48.03 117.1 47.93C114.975 49.78 109.575 46.955 112.65 45.33C112.525 45.855 112.35 45.83 112.35 46.355ZM119.675 46.205L123.2 45.83C125.075 45.455 127.2 44.655 128.7 43.555C129.8 42.755 129.625 42.33 129.625 40.58C129.25 40.855 129.2 41.13 128.7 41.53C128.275 41.855 128.075 42.055 127.65 42.33C125.275 43.805 122.075 44.88 118.975 44.88C117.875 44.88 117.3 44.68 116.375 44.58C116.45 45.53 116.775 45.655 117.55 45.855C118.175 46.055 118.95 46.205 119.675 46.205ZM131.35 43.905C131.675 43.68 132.525 43.455 133.175 42.705C133.4 42.43 133.675 42.08 133.85 41.805C134.175 41.28 134.1 41.255 134.1 40.48C135.725 40.905 133.675 43.905 131.35 43.905ZM117.95 39.305C118.425 37.255 121.775 35.705 122.4 36.005C122.35 36.53 122.575 36.28 121.4 36.88C120.95 37.105 120.525 37.305 120.075 37.58C118.475 38.555 118.4 39.005 117.95 39.305ZM114.65 42.055C114.2 42.255 113.95 42.205 113.5 42.48C111.675 43.63 107.025 45.505 107.025 47.805V48.38C107.025 50.53 111.825 50.83 113.925 50.83C117.625 50.83 125.425 49.48 128.8 48.13C131.35 47.13 139.4 44.48 139.4 41.18C139.4 38.255 133.675 38.405 131.65 38.605C131.425 38.63 131.075 38.68 130.775 38.73C130.3 38.83 130.35 38.905 129.9 39.005C129.275 36.355 126.025 34.105 123.275 34.105C120.675 34.105 118.725 34.53 116.75 36.505C115.225 38.08 114.65 39.755 114.65 42.055ZM86.7248 49.805C86.7248 52.955 87.3248 52.83 85.8498 52.83C84.0748 52.83 85.2498 47.73 85.2748 47.08C84.6498 47.03 84.3748 46.53 82.9998 47.83C82.5248 48.28 82.0748 48.58 81.5748 48.98C80.2498 50.105 80.4998 50.03 78.7498 51.355C74.3248 54.68 68.7498 56.505 63.0998 55.73C61.4998 55.505 58.5248 54.255 57.6748 53.38C57.3248 53.03 56.8998 52.205 56.7748 51.68C58.0248 50.83 56.6498 52.005 58.9248 51.08C59.6998 50.755 60.4748 50.33 61.2498 49.955L65.7498 47.53C69.0998 45.43 68.5248 45.18 69.7998 46.455C71.6748 48.33 70.7248 49.655 74.3748 49.655C76.0748 49.655 79.1748 47.98 80.2998 47.23L83.4998 44.68C83.5248 44.655 83.5498 44.63 83.5748 44.605C83.5998 44.58 83.6998 44.505 83.7248 44.455C85.1248 43.155 85.3998 43.005 86.6248 41.03L89.2998 35.355C89.6498 34.28 89.8998 33.155 89.8998 31.78C91.2498 32.68 91.0748 34.58 91.1498 34.83C91.7998 37.08 91.6248 38.93 90.6748 41.155C90.3498 41.88 90.0748 42.505 89.6748 43.18C88.5498 45.28 86.7248 47.73 86.7248 49.805ZM54.7998 51.53C54.7998 52.63 54.8748 52.43 55.3748 53.255C56.4748 55.155 57.4248 55.355 59.2998 56.23C63.2998 58.155 67.9248 58.18 72.0498 56.655C74.8498 55.605 75.9998 54.955 78.2998 53.405C78.9498 52.98 79.4998 52.53 80.1248 52.055L82.6998 49.88C82.9998 49.58 83.1998 49.33 83.4498 49.055C83.2248 51.63 82.9998 52.205 84.7248 54.405C85.0998 54.88 84.7498 54.655 85.2248 54.93C86.3748 55.555 87.6498 54.43 88.4998 54.255L89.1248 49.405C89.2248 48.805 89.5498 47.905 89.7998 47.355C90.0248 46.88 90.3998 45.88 90.6998 45.53C91.7748 44.23 91.8498 43.63 92.5498 41.905C93.8248 38.705 94.1998 36.455 92.8498 33.08C92.1248 31.255 90.5998 29.08 88.9248 28.08C85.7748 26.155 85.8498 26.505 84.8498 27.305C84.3748 27.705 84.3498 27.655 83.9998 28.18C82.3998 30.63 82.5998 30.205 81.0748 32.155C80.4748 32.93 79.9248 33.305 79.3248 34.005C77.7498 35.88 77.3748 35.93 75.8748 37.455C74.3748 38.955 73.5498 39.505 72.0748 40.705L68.1748 43.705C66.8248 44.705 65.3998 45.68 63.8998 46.48C63.1748 46.88 62.4498 47.28 61.6498 47.68C60.7998 48.08 58.6998 49.055 57.8748 49.23C56.6498 49.48 54.7998 49.98 54.7998 51.53ZM121.55 127.805C123.9 128.005 121.3 130.38 124.475 131.78C127.2 132.98 129.5 131.755 131.05 131.38C131.375 132.63 134.4 131.455 135.2 131.98C135.4 132.105 136.15 133.155 136.375 133.405C138.9 136.555 141 139.38 141 144.455C141 145.18 140.85 145.33 140.85 146.18C136.725 146.18 134.4 146.905 130.35 146.905C125.6 146.905 122.8 141.63 122.15 137.705C122.075 137.255 121.95 136.605 121.9 136.23C121.825 135.655 121.875 135.18 121.775 134.63L121.55 127.805ZM124.725 115.13C124.85 113.505 129.725 114.105 130.775 112.53C129.9 111.955 129.375 111.83 128.075 111.63C126.1 111.305 123.1 111.205 121.225 111.93C120.75 112.105 120.325 112.355 119.9 112.63C117.725 114.03 119.825 114.455 120.45 116.805C121.05 119.08 119.825 119.08 119.825 120.305C119.825 122.08 121.975 121.605 121.975 123.48C121.975 124.355 120.95 125.605 121.675 126.355C121.925 126.605 123.35 126.905 123.775 127.855C124.05 128.455 123.975 129.155 123.975 129.955C124.9 130.555 125.475 130.78 126.575 130.405L134.175 127.655C134 125.555 126.725 126.93 125.825 126.93C125.25 126.93 125.05 126.205 125.3 125.83C126.025 124.705 131.2 123.455 132.425 123.155C133.625 122.88 134.4 122.83 135.05 121.88C133.5 120.855 132.075 120.955 130.3 121.03C129.25 121.055 128.55 121.055 127.6 121.205C127.475 121.23 124.175 122.78 124.475 120.955C124.675 119.73 127.525 119.505 128.8 119.255C129.925 119.055 130.875 118.63 131.875 118.305C133.4 117.83 133.925 117.855 134.45 116.855C133.825 116.455 133.8 116.23 132.8 116.055C130.65 115.68 128.15 115.905 126.075 116.13C124.45 116.305 122.925 117.005 122.925 116.155C123 115.555 124.125 115.18 124.725 115.13ZM189.9 89.105L189.25 87.88C188.95 87.405 188.9 87.155 188.55 86.705C187.6 85.43 188 85.48 187.2 84.305C186.675 83.53 185.8 82.63 185.725 82.03C185.575 80.705 185.975 79.705 186.45 79.005C188.175 79.055 187.85 81.105 188.1 82.405C188.35 83.73 188.65 85.18 189.125 86.405C189.425 87.18 189.875 88.155 189.9 89.105ZM188.9 81.605C190.525 81.18 189.35 80.28 192.25 81.13L199.8 82.93C200.525 83.105 202.125 83.48 203 83.48C202.95 84.13 202.725 84.055 202.35 84.555L200.925 86.605C200.075 87.905 196.75 94.355 199.4 94.58C199.325 93.58 198.875 93.98 200.475 91.33C201.325 89.93 203.3 86.98 204.4 85.63C204.675 85.28 205.075 84.83 205.3 84.505C205.975 84.655 207 85.33 207.6 85.655C208.6 86.23 210.875 87.83 211.75 88.705C213.55 90.48 213.575 90.53 214.9 92.755C216.85 96.03 218.75 102.13 219.45 106.03L220.075 109.005C221.425 115.28 221.225 116.73 224.675 121.83C224.825 122.055 224.775 121.905 224.9 122.205L217.45 123.08L210.525 124.505L208.55 123.755L204.725 119.23C204.3 118.755 203.925 118.23 203.5 117.705C203.025 117.13 202.675 116.705 202.225 116.105C201.175 114.705 202.1 113.33 201.6 111.13C200.8 110.93 200.15 110.705 200.15 113.155C198.675 112.08 196.15 106.805 195.25 104.805C194.7 103.555 193.7 99.955 193.375 98.63C193 97.155 192.45 96.055 192.15 94.53C191.85 92.98 191.3 91.305 191.225 90.13C191.1 88.48 190.6 87.18 190.1 85.93C189.75 85.105 188.9 82.555 188.9 81.605ZM101.275 76.28C102.55 76.28 102.625 75.33 102.7 74.13C102.75 73.23 102.85 73.655 103.225 72.93C103.5 72.43 103.5 71.98 103.7 71.53C105.55 71.53 109.1 71.155 111.325 71.105L121.525 70.38C123.3 70.48 124.425 70.93 127.175 70.555L131.9 70.355C132.75 70.355 132.75 70.355 132.75 71.23L132.875 76.28C132.875 76.955 132.675 77.03 132.6 77.58C132.525 78.105 132.625 78.755 132.575 79.28L132.3 87.205C132.275 87.93 132.15 88.005 132.15 88.78C130.8 87.88 129 86.88 127.35 86.255C126.8 86.055 126.4 86.08 125.95 85.93C124.125 85.28 123.475 84.03 122.225 84.03C121.425 84.03 120.475 84.355 119.725 84.555C118.875 84.78 118.025 84.805 117.075 84.93C114 85.33 108.575 85.505 105.925 85.88C104.95 86.005 103.95 85.83 102.975 85.93L100.225 86.205C100.55 85.73 101.225 85.58 101.3 84.855C101.375 84.33 98.6748 78.93 98.0998 77.955C97.0498 76.23 96.6998 75.93 99.3748 75.855C99.5498 75.855 100.175 75.905 100.375 75.93C100.925 76.005 101.125 76.28 101.275 76.28ZM177.375 75.58C177.375 74.68 177.9 73.555 178.95 73.555C179.575 73.555 179.75 75.08 179.975 75.705C180.5 77.08 183.7 82.83 184.55 84.08C185.05 84.805 185.55 85.205 186.05 85.88C188.5 89.155 188 88.33 189.325 92.255C190.3 95.155 193.05 104.03 193.775 105.655C194.925 108.255 196.25 110.755 197.825 113.105C198.7 114.405 199.675 115.605 200.4 117.005C200.85 117.855 201.1 118.13 201.825 118.755C202.375 119.23 202.8 119.98 203.3 120.58L209.25 127.73C209.925 128.655 210.65 129.555 211.15 130.58C211.525 131.355 211.35 131.255 211.425 131.83C211.525 132.73 214.375 137.955 215.25 139.28C215.525 139.705 215.675 139.905 216.225 140.03C216.7 137.83 214.375 133.38 213.45 131.28C213.175 130.655 212.925 130.23 212.6 129.68L210.75 126.78C211.925 126.755 213.15 126.255 214.3 126.005C215.575 125.705 216.725 125.48 217.95 125.205L217.8 130.105C217.8 131.455 218 131.93 217.825 133.155C217.175 137.455 216.75 143.43 214.25 146.855C213.5 147.88 211.725 149.83 210.325 149.83C209.3 149.83 208.3 149.73 207.35 149.355C205.925 148.83 203.25 146.155 202.325 145.03C202.125 144.78 202.025 144.58 201.85 144.355C201.65 144.08 201.525 144.005 201.325 143.73L200.375 142.38C198.9 140.63 197.325 136.73 196.325 134.63L193.5 127.93C192.55 125.755 191.675 123.58 190.725 121.355L189.325 118.005C188.725 116.505 188.1 114.405 187.175 113.105C186.8 112.555 185.975 112.255 184.875 110.805C183.55 109.055 180.55 105.48 180.55 103.18C180.55 100.705 181.35 99.43 178.9 98.78C178.15 98.58 176.95 98.48 176.875 99.48C176.85 100.055 177.175 99.98 177.75 100.08C178.325 100.18 178.6 100.355 179.1 100.455C179.1 101.555 178.825 101.755 178.8 102.605C178.325 102.48 174.775 99.055 174.775 98.28C174.775 96.88 175.85 96.205 177.275 95.73C178.25 95.405 180.525 95.155 180.525 94.53C180.525 92.88 176 94.08 174.975 94.605C174.7 94.73 174.5 94.855 174.225 95.005C173.775 95.255 173.8 95.305 173.45 95.53C173.45 94.28 173.775 93.43 174.4 92.73L175.475 91.93C178.8 90.405 183.525 91.855 183.525 90.355C183.525 89.08 180.025 89.48 179.075 89.505C177.975 89.53 177.6 89.655 176.575 89.555C175.45 89.455 173.625 91.305 174.3 89.18C174.475 88.63 174.525 88.405 174.875 88.005C175.9 86.88 177.8 87.305 179.1 87.33C179.875 87.355 180.075 87.38 180.7 87.455C181.75 87.605 182.625 87.905 183.725 87.905C183.7 87.03 182.9 86.63 182.425 85.755L181.525 84.355C179.875 82.08 177.375 78.58 177.375 75.58ZM94.9248 75.43C94.9248 74.78 100.575 72.155 101.4 71.98C100.525 70.655 101.525 71.955 99.8498 70.78L87.5748 63.905C87.5748 65.13 87.5498 65.205 87.3248 66.105L84.7498 76.73C84.6748 77.23 84.6998 77.38 84.6248 77.755C84.4748 78.355 84.2998 79.055 84.2998 79.73C85.7248 78.98 89.0748 77.58 90.4748 77.58C90.7248 78.68 92.4748 83.255 92.9998 85.13C93.2498 85.98 93.4498 86.98 93.7748 87.655C94.7498 87.13 95.5748 86.68 96.6498 86.205C97.6998 85.73 97.9248 85.405 98.6998 84.955C98.9998 84.78 99.0998 84.78 99.3998 84.63C99.2748 84.18 99.0248 83.93 98.7748 83.53L96.6998 79.555C96.6498 79.43 96.4748 79.13 96.3998 78.98C96.1748 78.555 96.0498 78.255 95.9248 77.73C95.3998 75.205 94.9248 76.805 94.9248 75.43ZM2.4248 25.63V25.055C6.1248 25.055 10.8498 24.755 14.3998 24.355L43.8748 21.755C44.9998 21.655 45.7248 21.83 46.7498 21.605C46.7498 25.63 47.0248 29.255 47.0248 33.255L47.4498 41.88C47.4998 42.855 47.3998 43.93 47.4498 44.905L48.3248 65.18C48.3248 66.155 48.2248 67.205 48.3748 68.155C48.8248 71.08 48.4748 70.38 44.7248 70.38L38.9498 70.655C36.9748 70.88 34.5248 70.58 31.6248 70.805C30.3748 70.905 28.4498 70.68 27.0998 70.88C26.1748 71.03 25.1498 70.955 24.1498 70.955L15.5248 71.38C14.8248 71.38 14.7748 71.48 14.2248 71.53L4.14981 72.105C4.12481 71.18 3.8498 70.755 3.8498 69.505C3.8498 68.33 3.69981 67.63 3.69981 66.63L3.27481 51.955C3.27481 50.78 3.12481 50.205 3.12481 49.08C3.12481 47.905 2.9748 47.205 2.9748 46.205C2.9748 45.205 3.0248 44.155 2.9748 43.18C2.9498 42.13 2.82481 42.18 2.82481 40.305C2.82481 39.13 2.6748 38.48 2.6748 37.43C2.7248 33.38 2.4248 29.755 2.4248 25.63ZM175.65 24.355C175.65 23.755 175.675 23.98 175.95 23.78C175.975 24.605 176.675 25.605 177.075 26.105C177.5 26.655 178.4 27.33 179.025 27.755C180.125 28.48 181.4 29.08 182.7 29.405C184.225 29.78 183.7 29.23 184.15 29.83C181.925 29.83 180.6 29.655 178.625 28.455C177.175 27.58 175.65 25.83 175.65 24.355ZM166.6 24.055C166.6 26.03 167.525 28.33 168.325 29.53C168.775 30.205 169.3 30.955 169.85 31.605C170.025 31.805 170.075 31.855 170.275 32.055C171.7 33.355 171.275 33.005 172.925 33.855C173.3 34.055 173.6 34.255 174 34.505C176.025 35.73 179.55 37.03 181.975 37.03C183.675 37.03 183.375 36.83 184.275 36.73V36.43C182.5 36.38 177.975 35.105 176.4 34.23C175.95 33.98 175.5 33.78 175.075 33.53C174.65 33.28 174.3 33.03 173.875 32.705C173.475 32.405 173.175 32.205 172.775 31.93C169.3 29.33 167.575 25.53 167.575 21.155C166.75 21.755 166.6 22.955 166.6 24.055ZM148.175 37.43C147.775 37.205 147.775 37.23 147.5 36.805C146.9 35.83 147.15 34.38 147.375 33.33C148.05 30.405 148.65 28.705 150.025 26.055C150.2 25.705 150.3 25.605 150.5 25.23C150.7 24.855 150.775 24.63 151 24.305L153.75 21.455C154.375 21.03 154.825 20.73 155.9 20.73C155.625 20.955 155.425 21.155 155.125 21.38C153.325 22.755 152.4 24.88 151.3 26.78C151.1 27.13 150.975 27.43 150.775 27.83C149.3 30.83 148.175 33.88 148.175 37.43ZM48.4498 19.03C48.6748 19.505 48.8998 25.48 48.8748 26.23L49.0248 29.83C49.0498 31.005 48.9248 32.43 49.0248 33.58L49.2998 40.78C49.2998 43.405 49.4498 45.58 49.4498 48.13L49.7248 55.355C49.8748 56.68 49.7498 65.08 49.9498 66.355L50.4748 75.18C50.5248 75.755 50.6998 76.205 50.7498 76.78C51.1498 76.605 61.4248 75.93 62.6998 75.93L74.5748 75.155C75.5498 75.005 76.5998 75.13 77.5748 74.98C78.4748 74.855 83.0498 74.78 83.4748 74.555C83.9498 74.305 84.6498 70.03 84.7498 69.48L85.5998 65.58C86.4248 61.18 86.4498 61.605 88.6998 62.58C91.3498 63.73 94.6498 65.63 97.1248 67.105C98.1998 67.755 99.2748 68.33 100.275 69.005C100.575 67.705 100.425 66.055 100.425 64.68L100.125 58.205C100.075 57.13 100.225 56.005 100.075 54.955C99.9248 53.93 99.9998 52.705 99.9998 51.58L99.2748 28.855C99.2748 24.48 98.8498 20.255 98.8498 15.905C98.5498 15.705 98.4748 15.48 98.1248 15.48C95.7998 15.48 93.8498 15.78 91.6498 15.78C88.8748 15.78 86.3998 15.98 83.5748 16.055C82.8748 16.08 82.8498 16.18 82.1498 16.205L72.7998 16.78C71.8748 16.78 70.5248 16.98 69.6248 17.055L60.4748 17.83C58.6248 18.055 56.3498 18.205 54.4998 18.455L48.4498 19.03ZM140.25 32.555C140.25 29.555 141.1 27.03 141.95 24.905C142.35 23.88 143.575 22.03 143.65 21.855C143.725 21.63 143.85 17.88 143.85 17.455L130.85 17.98C130.025 18.08 129.225 17.98 128.375 18.105L113.75 19.03C109.425 19.255 105.075 19.455 100.65 19.455L100.8 23.78C100.825 24.48 100.925 24.43 100.95 25.08C101.05 26.98 101.025 28.955 101.225 30.705C101.325 31.58 101.4 32.705 101.4 33.555C101.4 34.68 101.55 35.18 101.55 36.28L101.7 40.455C101.725 41.08 101.825 41.055 101.85 41.755C102.125 51.305 102.425 59.955 102.425 69.68C103.225 69.68 104.15 69.605 105 69.505C107.675 69.23 107.825 69.305 110.2 69.255L115.375 68.955C116.4 68.955 117.15 68.93 117.975 68.83C118.85 68.73 119.775 68.88 120.65 68.78L124.45 68.53C124.875 68.505 125.325 68.555 125.725 68.505L138.25 67.78C139 67.73 139.9 67.58 140.7 67.48C141.925 67.355 141.875 67.205 143.45 67.205L143.6 46.905C142.35 46.93 140.7 47.655 139.85 47.205C139.925 46.38 140 46.805 141.775 45.955C142.2 45.755 142.4 45.63 142.825 45.43C143.2 45.255 143.6 45.18 143.6 44.755C143.6 43.38 143.725 43.38 143.075 42.555C141.125 40.18 140.25 35.83 140.25 32.555ZM195.65 17.73C195.65 14.405 198.1 12.13 200.25 12.13C199.425 13.355 198.125 13.73 195.95 17.33L195.825 17.505C195.675 17.73 195.75 17.605 195.65 17.73ZM192.05 15.13C192.05 14.28 192.2 13.105 192.3 12.38C192.775 8.98 194.9 6.43 197.725 4.73C198.125 4.48 198.25 4.405 198.675 4.23C200.1 3.655 201.85 3.205 203.4 3.205C203.225 3.055 203.475 3.23 203.15 3.03C203.125 3.005 203.075 2.98 203.05 2.98C201.75 2.255 200.55 2.405 199.225 2.78C197.75 3.205 198.35 2.85501 196.775 3.80501C196.25 4.10501 195.8 4.405 195.375 4.83C194.075 6.105 193.275 6.755 192.275 8.78C191.35 10.63 190.55 14.58 192.175 16.455C192.2 15.705 192.05 15.78 192.05 15.13ZM201.55 146.93C202.575 147.68 202.875 148.98 203.975 149.68C205.275 150.505 205.8 151.08 207.425 151.53C210.8 152.48 212.675 151.83 215.3 149.605C217.925 147.405 218.675 143.655 219.175 140.38C219.225 140.005 219.3 139.455 219.325 139.255C219.35 139.055 219.35 138.805 219.4 138.605C219.525 137.955 219.425 138.605 219.575 138.055C219.875 137.005 219.95 134.33 219.95 133.105C221.075 133.105 221.35 132.505 221.875 131.855C222.4 131.205 222.725 130.73 223.2 130.005L224.4 128.03C224.825 127.33 225.15 126.755 225.525 126.005C225.75 125.555 225.875 125.43 226.1 125.005C227.325 122.755 227.25 121.63 225.875 119.13C223.375 114.58 223.175 112.43 221.75 107.43L219.8 99.88C218.525 95.405 216.7 90.355 213.525 87.155C211.175 84.78 208.1 83.63 206.85 82.755C206.125 82.23 204.35 81.73 203.4 81.455C202.85 81.305 202.625 81.355 202.025 81.23C200.75 80.98 199.6 80.48 198.425 80.08C195.975 79.255 193.275 78.88 190.725 78.28C188.8 77.83 189.55 78.03 188.175 78.405C187.875 77.955 187.3 77.655 186.975 77.305C185.775 76.055 184.975 74.38 184.325 72.78C182.85 69.18 182.325 62.08 183.875 58.83C188.9 58.83 192.8 55.405 194.6 50.98C194.95 50.13 195.475 50.105 196.1 49.305C198.975 45.455 200.05 35.68 199.725 31.48C199.625 30.355 199.7 29.605 199.5 28.555C199.325 27.705 198.925 26.88 198.875 26.03C201.975 26.03 204.1 25.43 206.475 23.855L207.825 22.755C209.125 21.555 210.025 19.755 210.625 18.08C212.525 12.93 210.525 7.08 206.9 3.48C202.75 -0.644996 194.975 -1.32 190.85 2.63C190 3.455 189.175 4.18001 188.525 5.18001C187 7.60501 186.375 9.93001 186.35 12.955C186.35 14.08 186.575 14.405 186.65 15.255C186.225 15.055 185.8 14.905 185.35 14.68C182.975 13.48 179.95 13.105 177.275 12.83C174.05 12.48 169.275 12.93 166.525 13.98C165.2 14.48 163.625 15.03 162.35 15.705C160.35 16.78 161.25 16.33 159.2 15.655C155.725 14.505 151.625 15.13 148.65 17.13C148.075 17.505 147.725 17.78 147.15 18.23C146.6 18.68 146.175 19.08 145.625 19.455C145.625 18.405 145.7 17.53 145.475 16.455C145.35 15.88 145.375 16.18 145.05 15.73C140.975 15.73 137.5 16.305 133.4 16.305C133.95 13.955 133.25 8.505 132.025 6.30501L130.525 4.355C130.35 4.205 130.4 4.255 130.225 4.08C129.425 3.38 128.95 3.005 127.85 2.58C124.6 1.28 120.85 1.48 117.3 1.755C114.8 1.955 112.55 2.055 110.175 2.405C105.9 3.03 99.7748 3.255 95.7748 3.83L92.1248 4.05501C91.4748 4.05501 90.7748 4.105 90.1498 4.005C88.9248 3.83 89.4998 3.95501 88.5248 4.18001C88.5248 5.33001 88.9748 5.255 89.9498 5.48C90.9748 5.73 92.7748 5.855 93.8498 5.905C94.4998 5.93 94.4748 5.805 95.1248 5.755C95.5998 5.73 96.0998 5.78 96.5748 5.755L105.775 5.03C107.2 5.03 109.5 4.655 110.85 4.48C111.8 4.355 112.55 4.38 113.5 4.255C114.1 4.18 115.475 4.03 116.125 4.005C119.55 3.83 123.5 3.33 126.625 4.58C127.4 4.88 127.85 5.08 128.45 5.63C128.575 5.755 128.625 5.805 128.75 5.905L128.975 6.105C130.425 7.555 130.95 9.555 130.925 11.63L131.1 15.655C131.225 16.755 130.7 16.405 127.75 16.38C126.65 16.38 126.15 16.53 125.025 16.53C124.075 16.53 123.1 16.505 122.15 16.53L116.825 16.83C113.1 16.83 109.675 17.155 105.875 17.255L103.175 17.43C102.375 17.53 101.5 17.705 100.575 17.705V16.28C101.35 15.905 101.85 16.055 101.875 14.83C101.65 14.055 100.075 13.68 99.2998 13.68C97.4248 13.68 95.7748 13.98 93.9748 13.98C93.1498 13.98 92.9248 14.08 92.2498 14.13C91.0748 14.205 89.6998 14.13 88.4998 14.13C87.0998 14.13 86.2748 14.28 84.8998 14.28L77.5498 14.43C72.6748 14.68 65.0498 15.38 60.3748 15.98C56.4248 16.48 52.6998 16.755 48.9248 17.63C48.4248 17.755 47.8748 17.605 47.4998 17.68L46.8998 18.08C46.5248 18.655 46.7248 19.68 46.7248 20.355L43.5248 20.755C41.3498 20.98 38.6498 20.98 36.6998 21.28L29.8748 21.805C26.6748 21.88 22.7248 22.405 19.4998 22.655C19.2248 21.48 19.0748 19.78 19.0748 18.33C19.0748 13.93 20.6248 11.38 24.7748 9.63C28.3748 8.13 32.7748 7.73 36.7498 7.23C38.5998 7.005 41.3998 6.655 43.3998 6.68001L59.5248 5.955C61.5248 5.955 64.0498 5.655 66.4248 5.68001L73.2748 5.33C74.0248 5.23 74.7498 5.13 75.4998 5.105C75.9748 5.08 76.1498 5.08 76.4998 4.955C76.4998 4.955 76.8748 4.78 76.8998 4.78C77.1748 4.58 77.0998 4.73 77.2248 4.38C76.7998 4.205 69.0748 4.08 67.8748 4.105C66.8748 4.105 66.4498 3.955 65.5748 3.955C63.0748 3.93 57.7248 3.78 55.5998 4.05501C54.7748 4.18001 53.8998 4.03 53.0498 4.105C49.0998 4.43 45.0248 4.48001 41.0998 4.68001C37.9998 4.83001 32.3998 5.505 29.6998 5.955C27.2748 6.355 23.8748 7.38 22.1748 8.505C21.6498 8.855 21.1998 9.13 20.6998 9.48C19.1748 10.63 18.2248 12.18 17.5248 13.93C16.5498 16.355 16.8998 20.305 17.4748 22.805C14.9248 22.805 12.2498 23.33 9.69981 23.505C7.04981 23.705 4.3748 23.93 1.9748 24.405C1.1498 24.555 0.949805 24.48 0.924805 25.505C0.924805 26.23 0.949805 26.955 0.924805 27.68C0.924805 28.605 1.07481 28.855 1.07481 29.68L1.19981 36.03C1.19981 36.955 1.3498 37.205 1.3498 38.03C1.3498 38.755 1.3248 39.48 1.3498 40.205C1.3498 41.03 1.49981 41.205 1.49981 42.055L1.77481 54.73C1.77481 55.555 1.9248 55.805 1.9248 56.73L2.0498 63.08C2.0498 63.905 2.19981 64.155 2.19981 65.08C2.19981 67.255 2.5498 69.255 2.2998 71.38L2.19981 73.13C3.74981 73.48 8.9748 73.655 10.9248 73.355L19.8998 73.13C19.8998 73.88 20.0998 74.705 20.2248 75.555C20.3248 76.33 20.3998 77.23 20.5498 78.105C20.7998 79.705 21.1498 81.355 21.6248 82.655C22.1248 84.03 22.8498 85.155 23.6748 86.205C26.8248 90.155 32.3998 91.58 37.2248 92.23L44.8498 93.105C46.6498 93.33 48.3748 93.105 50.1998 93.38C51.9248 93.63 53.8498 93.28 55.5998 93.305C59.1998 93.305 62.4248 92.73 65.9498 92.43L81.3498 90.98C82.4748 90.78 82.6248 90.805 83.5748 90.33C84.2748 89.98 85.0248 89.905 85.0998 88.98C83.8748 88.405 81.8998 88.855 80.3498 88.83C78.9248 88.83 76.9998 89.03 75.5748 89.23C74.0998 89.43 72.0998 89.33 70.5748 89.405C69.8748 89.43 68.9498 89.63 68.2498 89.68L56.1748 90.83C51.3248 91.23 41.7498 90.48 36.5248 89.63C33.5748 89.155 30.6998 88.38 28.4998 87.155C23.8748 84.58 22.6248 80.555 21.9248 75.455C21.8498 74.955 21.6498 73.48 21.4998 73.155L26.5248 73.005C27.1998 72.98 27.3998 72.855 28.2498 72.855L34.9998 72.555C35.8998 72.455 37.3498 72.455 38.2248 72.33L48.3998 71.855C48.3998 73.605 47.9498 76.88 48.2498 78.18C50.0248 78.58 50.6498 78.33 52.2748 78.33C53.9498 78.305 55.0998 78.23 56.7498 78.205L61.0748 77.93C61.7998 77.88 62.6498 77.955 63.3748 77.93C64.1748 77.905 64.5498 77.78 65.5248 77.78C66.4498 77.78 66.6998 77.63 67.5248 77.63L71.9998 77.505C75.6998 77.405 79.2748 76.93 82.9248 76.93C82.7248 77.78 82.4998 78.455 82.2748 79.28C82.0248 80.105 82.0248 81.255 82.3498 81.955C83.1998 82.805 86.7748 81.355 87.7748 80.905C88.3498 80.63 88.7748 80.28 89.3998 80.23C89.9498 81.38 90.2748 83.03 90.7248 84.205C91.3498 85.78 92.1248 87.505 92.5498 89.13C92.7498 89.855 92.2998 89.58 92.3498 90.03C92.3748 90.255 92.1498 90.13 92.5748 90.255C93.1498 90.43 93.6998 90.005 94.2248 89.78C94.9248 89.48 95.4248 89.205 95.9998 88.83C96.8248 88.28 102.45 88.405 103.775 88.405C104.675 88.405 105.6 88.405 106.5 88.405C107.6 88.405 108.125 88.255 109.075 88.255L112.825 87.98C113.35 87.93 113.775 88.08 114.1 88.055C116.625 88.005 118.975 87.68 121.375 87.305C122.575 87.13 122.85 87.205 123.675 87.63C124.025 87.805 124.2 87.905 124.525 88.08L127.275 89.505C128.575 90.155 129.6 90.73 130.8 91.455C131.375 91.805 131.9 92.23 132.7 92.305C133.325 92.355 133.375 92.33 133.775 92.08C135.1 91.28 134.575 87.605 134.575 85.955L134.725 77.88C134.725 75.43 135.1 72.83 134.875 70.105C137.525 70.105 140.1 69.405 142.8 69.38C143.875 69.38 145.3 68.83 145.375 67.655C145.525 65.68 145.375 57.105 145.375 54.705C145.375 51.655 145.525 49.08 145.525 46.08L147.85 44.68C148.225 44.43 148.575 44.18 148.925 43.88C151.4 41.78 153.5 39.505 155.375 36.805C156.85 34.68 159.05 31.805 159.6 29.38L159.7 29.555C160.225 30.555 160.525 31.505 161.15 32.43C162.05 33.78 163.325 34.93 164.525 35.955C165 36.38 165.25 36.58 165.825 36.955C166.175 37.18 166.225 37.23 166.5 37.43C166.75 37.605 166.95 37.705 167.2 37.88C168.6 38.805 170.35 39.63 171.975 40.155C173.225 40.555 174.25 40.88 175.525 41.205C176.55 41.455 178.35 41.755 179.55 41.78C179.925 41.78 181.65 41.73 181.825 41.805C182.15 41.93 182.25 42.005 182.1 42.58C181.95 43.18 181.85 42.63 181.85 43.655C182.55 43.48 182.075 43.555 182.275 43.655C182.275 46.78 181.425 48.78 180.275 50.705C179.65 51.73 176.75 55.18 176.675 56.155C177.4 56.53 177.625 56.455 178.4 56.155C181.45 54.98 184.5 51.68 185.475 48.68C185.9 47.38 186.3 46.705 187.625 46.08C188.2 45.805 188.75 45.555 189.375 45.38C190.15 45.155 190.65 45.205 191.425 45.43C194.25 46.305 193.6 50.13 192.1 51.98C191.9 52.23 191.75 52.33 191.55 52.58C191.275 52.905 191.275 52.98 190.975 53.305L189.7 54.33C185.475 57.28 183.125 55.53 181.85 58.705C181.5 59.555 181.05 61.555 181 62.755C180.875 67.53 181.5 72.53 184.25 76.505L185.325 77.88C185.15 78.505 184.6 78.93 184.325 80.18C183.75 79.805 181.625 76.08 181.3 75.43C180.9 74.63 180.6 73.405 180.025 72.83C179.25 72.03 177.85 72.48 177.175 73.03C173.675 75.88 179.075 82.58 179.45 83.93L179.025 84.355C176.275 86.78 176.8 85.305 174.725 86.255C172.275 87.38 174.25 88.48 170.65 89.38C168.65 89.88 166.75 90.055 165.05 88.83C163.8 87.93 162.8 86.03 162.75 83.93C165 83.93 166.8 82.23 167.875 80.405L169.225 77.43C170.125 74.705 169.6 75.08 171.425 73.03C173.175 71.08 176.9 65.455 175.75 63.005C175.6 62.705 175.75 63.205 175.55 62.63C174.875 62.805 170.3 66.505 169.6 67.055C168.925 67.58 167.95 67.88 167.05 68.105C162.75 69.055 160.025 67.28 157.075 64.73C155.325 63.205 153.6 60.855 152.675 58.78C152.275 57.855 152.1 57.055 151.825 56.03C151.1 53.38 151.325 49.33 151.65 46.38C151.7 45.805 151.625 45.28 151.725 44.705C151.85 43.83 151.95 44.005 151.55 43.23C151.1 43.23 151.025 43.305 150.675 43.38C150 44.78 150.55 48.43 150.375 50.43C150.225 52.23 150.225 55.505 150.775 57.255C151.35 59.155 151.85 60.93 152.75 62.63C153.6 64.23 154.975 65.38 156 66.855L157.275 68.155C157.3 68.18 158.725 69.555 159.925 70.255C162.225 71.63 164.325 72.405 167.325 72.08C168.25 71.98 167.925 72.355 167.825 73.03C167.525 75.18 166.775 80.505 164.625 81.08C164.375 78.23 158.7 80.78 157.375 81.305C153.825 82.73 150.25 84.28 147.05 86.38C146.85 86.53 146.7 86.58 146.525 86.73C146.05 87.18 146.45 87.43 147.2 87.43C149.6 87.38 156.15 84.605 159 83.68C159.6 83.48 160.225 83.255 160.875 83.105C160.875 85.305 160.75 86.28 161.45 87.855C162.6 90.43 164.8 92.33 167.925 92.33C171.15 92.305 171.25 91.73 172.675 91.605C172.275 92.205 172 92.405 171.8 93.305C171.575 94.33 171.675 95.63 172.175 96.58C172.475 97.155 172.425 96.78 172.325 97.555C172.175 98.555 172.225 99.205 172.575 99.905C173.35 101.405 175.975 103.305 177.525 104.03C177.975 104.23 178.225 104.23 178.575 104.405C179.35 107.78 180.2 108.205 182.025 110.58C182.75 111.555 183.975 112.83 185.1 113.405C186.15 113.955 186.075 114.63 186.425 115.83C187.125 118.255 188.075 120.555 189.025 122.855C190 125.155 190.825 127.405 191.875 129.655C193.85 133.905 195.775 138.53 198.4 142.405C199.575 144.155 199.025 144.33 199.3 146.255C199.65 148.655 200.925 152.255 199.825 154.43C199.65 154.805 199.6 154.805 199.4 155.155C199.2 155.505 199.125 155.655 198.925 155.98C198.575 156.58 198.35 156.955 198 157.505C194.375 156.655 189.7 156.655 185.775 156.78C185.05 156.805 184.9 156.93 184.05 156.93C181.8 156.93 179.075 156.855 176.875 157.08L169.95 157.63C167.65 157.705 165.55 158.03 163.2 158.205L152.95 159.18C151.625 159.33 147.1 159.605 145.85 159.405C144.9 159.255 143.025 159.13 142.325 159.48C141.925 158.705 141.625 158.28 141.425 157.23C141.1 155.555 141.725 153.055 141.95 151.33C142.55 146.805 143.275 141.105 141.05 136.905C144.6 137.73 147.225 138.33 150.825 137.48V137.055L143.3 135.505C142.075 135.18 141.025 134.855 140.05 134.28C138.875 133.58 138.475 133.055 137.85 131.88C141.15 131.88 145.925 131.205 149 131.68C150.375 131.88 151.55 131.63 152.675 131.605C153.225 131.58 154.175 131.505 154.45 131.505C155.325 131.505 154.775 132.13 155.8 131.73C156.225 131.58 156.55 131.255 156.9 130.93C157.525 130.33 157.6 129.805 157.425 128.88C157.275 128.03 156.75 127.705 156.375 126.905L153.275 120.53C153.15 120.255 153.1 120.13 152.95 119.855C152.8 119.58 152.75 119.505 152.6 119.18C152.175 118.23 151.75 117.505 151.325 116.555L150.05 113.955C149.825 113.505 149.6 113.205 149.375 112.755C149.15 112.305 148.95 111.905 148.7 111.405L147.3 108.93C146 106.755 142.6 99.855 141.575 97.38C141.15 96.355 140.625 94.705 139.175 94.93C138.6 95.005 139.05 95.03 138.4 95.18C136.375 95.63 133.45 95.555 131.075 95.63C130.35 95.655 130.2 95.78 129.35 95.78L121.85 96.055C121.175 96.105 120.6 96.03 119.9 96.13C118.775 96.305 115.5 96.155 114.625 96.63C114.35 96.78 113.9 97.43 113.725 97.755C113.025 99.205 114.8 101.88 115.475 103.28L119.375 111.03C116.2 113.155 117.35 114.305 118.675 117.055C119.5 118.73 118.2 119.355 118.2 120.83C118.2 122.155 119.55 122.88 120.375 123.405C120.375 124.53 119.95 124.605 119.95 126.005C119.95 126.955 119.7 127.855 119.65 128.73C119.55 130.655 119.6 132.98 119.775 134.655C119.875 135.68 119.85 136.455 119.975 137.48C120.075 138.255 120.3 139.28 120.475 140.005C120.85 141.455 121.7 143.105 122.45 144.205C127.15 150.98 133.825 149.155 140.5 147.605C140.5 150.18 139.475 152.655 139.125 155.155C138.825 157.305 139.05 158.78 140.225 160.43C140.625 160.98 141.1 161.18 141.375 161.58C141.25 162.13 140.875 162.68 140.675 163.18C140.425 163.78 140.2 164.28 139.925 164.88L137.9 170.18C136.425 174.63 135.1 179.13 134.575 183.855L133.875 190.505C133.825 191.48 133.95 192.08 134.025 192.805L114.875 193.38C114.125 193.38 114.075 193.505 113.45 193.53C110.2 193.705 105.275 193.58 102.225 193.83L97.4748 193.955C96.8248 193.98 96.6998 194.105 95.8998 194.105L91.1498 194.23C90.4248 194.255 90.3498 194.38 89.5748 194.38C88.4248 194.38 87.5498 194.43 86.3998 194.53C85.8498 194.58 83.9498 194.655 83.9498 195.38C83.9498 196.105 85.3248 196.055 85.8248 196.08C86.5998 196.13 87.5998 196.08 88.3998 196.08C90.1248 196.08 91.8498 196.08 93.5748 196.08C94.6248 196.08 95.1498 195.93 96.0248 195.93L106.4 195.805C107.275 195.805 107.8 195.655 108.85 195.655C109.725 195.655 110.575 195.655 111.45 195.655C112.5 195.655 112.95 195.505 113.9 195.505L121.525 195.38C122.475 195.38 123.025 195.23 124.1 195.23C124.975 195.23 125.825 195.23 126.7 195.23C127.65 195.23 128.075 195.08 129.15 195.08C130 195.08 130.9 195.105 131.75 195.08C133.8 195.055 136.825 194.78 139.225 194.78C141.15 194.78 142.525 194.63 144.4 194.63L151.875 194.33C152.75 194.28 153.725 194.355 154.625 194.33L159.65 194.18C161.475 194.18 162.9 194.03 164.825 194.03C165.875 194.03 166.4 193.88 167.275 193.88L174.9 193.73C179.175 193.73 183.5 193.455 187.7 193.455C188.65 193.455 189.075 193.305 190.15 193.305L200.25 193.055C201.825 192.83 203.9 193.155 205.525 193.005L210.425 192.73C212 192.655 214.075 192.905 215.575 192.68C216.875 192.505 219.1 192.555 220.525 192.43C222.125 192.305 224.425 192.755 225.325 191.905C225.875 191.38 225.825 190.605 225.225 190.18C224.65 189.755 223.9 189.83 222.975 189.855C219.5 189.855 216.3 190.155 212.75 190.13C211.75 190.13 211.35 190.28 210.3 190.28C209.4 190.28 208.475 190.28 207.575 190.28C207.575 186.43 205.625 178.055 204.325 174.105C203.9 172.855 203.55 171.78 203.1 170.58L201.75 167.055C201.25 165.805 200.85 164.78 200.375 163.53C199.975 162.48 199.225 161.205 198.95 160.055L200.825 157.455C201.425 156.555 201.925 155.705 202.325 154.48C202.775 153.08 202.575 151.88 202.2 150.605C202.025 149.38 201.55 148.23 201.55 146.93Z" fill="#101010"/>
</svg>
