<svg width="208" height="220" viewBox="0 0 208 220" fill="none" xmlns="http://www.w3.org/2000/svg">
<path fill-rule="evenodd" clip-rule="evenodd" d="M49.6749 204.525L51.6499 216.475H45.5999C46.0249 215.65 46.3999 214.575 46.7749 213.7C48.1249 210.325 48.2249 208.5 49.0749 206.025C49.2749 205.4 49.5499 205.05 49.6749 204.525ZM100.9 207.55C100.9 206.175 101.1 204.4 101.275 203.2L102.825 191.625C102.9 191.075 102.825 190.95 103.125 190.625C103.125 194.9 104.1 202.925 104.55 207.2L104.825 210.6C104.95 213.3 105.35 214.475 105.875 216.775C103.9 216.775 102.675 216.8 100.75 216.65C101.875 214.325 100.9 209.675 100.9 207.55ZM190.475 199L190.4 199.275L190.475 199ZM194.025 196.65L193.95 196.925L194.025 196.65ZM78.5749 200.975C78.5749 200.2 78.5999 199.675 78.6749 199.1C78.7499 198.475 78.6499 197.8 78.7249 197.175C78.8499 195.975 78.8249 194.6 78.8249 193.225C79.1999 193.5 79.0499 193.575 79.2999 194.05C79.7999 195.05 80.7249 195.85 81.9749 195.85C81.9749 196.575 81.3249 198.65 81.0499 199.15C80.6499 199.95 79.5249 200.75 78.5749 200.975ZM82.2499 185.225C82.2499 184.575 82.2749 183.525 82.8999 183.525C83.6999 183.525 83.5749 184.025 83.5499 184.975C83.5249 187.475 83.7999 188.8 83.7999 190.35C84.4749 189.85 84.8499 187.65 84.8499 186.4C84.8499 184.675 84.3249 182.225 84.1999 180.75C82.8249 181.075 81.5999 181.925 79.0749 181.925C79.0749 184.2 78.9499 186.325 78.9499 188.75C79.2249 188.55 79.3249 188.45 79.7499 188.35C80.1499 189.175 80.4499 193.6 82.1249 193.725C82.2999 192.975 82.6499 192.825 82.6499 191.75C82.6499 189.7 82.2499 188.025 82.2499 185.225ZM50.0749 179.3H47.9749C48.0249 177.45 48.4999 174.85 48.4999 172.6C51.0499 172.6 52.1749 172.6 54.7249 172.25L58.7499 171.425C58.7499 172.9 59.6499 176.575 59.6749 177.325C59.0999 177.6 58.1749 177.8 57.4749 178C55.4249 178.6 52.2499 179.3 50.0749 179.3ZM37.3249 171.7L44.7999 172.5C45.4499 172.5 47.1749 172.35 47.1749 173.025V179.325C43.3749 179.325 37.5999 177.25 36.2749 177.225L36.7499 174.4C36.9249 173.45 37.1249 172.575 37.3249 171.7ZM82.4999 171.425L85.1249 170.5C85.1249 171.25 85.3499 172.25 85.3999 173L85.5499 175.75C85.5499 177.475 84.4999 178.225 82.7749 178.625C82.7749 177.5 82.8499 176.025 82.7749 174.95C82.6749 173.8 82.4999 172.75 82.4999 171.425ZM79.0999 172.225C79.5999 172.1 79.6999 171.975 80.2749 171.95L80.6749 177.6C80.7249 178.2 80.9249 178.75 81.0499 179.325C80.6499 179.525 79.6249 179.925 79.0749 179.975C79.0749 178.725 78.9499 177.3 79.1249 176.1C79.3249 174.875 79.2249 173.275 79.0999 172.225ZM35.2249 176.8C34.0749 176.525 29.3499 174.925 27.8999 174.275C27.5749 174.125 27.7499 174.15 27.3499 174.05C27.6999 172.575 27.7999 170.8 28.1499 169.325L33.8749 171.075C34.3999 171.2 35.5499 171.375 35.8999 171.55L35.2249 176.8ZM77.7749 172.225V168.15C77.5249 168.35 76.5499 169.875 75.0749 171.1L73.1999 172.65C72.9249 172.825 72.7499 172.95 72.4999 173.125C69.4249 175.4 62.4749 178.55 58.7249 179.575C53.4749 181.025 52.4749 181.15 47.1749 181.15C42.9499 181.15 38.0249 179.225 35.9499 179.025C35.1499 178.95 34.8499 178.725 33.7999 178.375C31.7499 177.75 29.7499 177.025 27.7749 176.25C26.3499 175.675 25.0749 174.825 23.6999 174.15C23.2499 173.925 22.7999 173.65 22.3499 173.55L22.0749 179.325C21.8749 181.8 21.5499 185.325 21.5499 187.75V196.675C21.9999 196.8 21.9499 196.75 22.0749 197.2C21.7749 197.6 22.1499 197.4 21.5499 197.475C21.5499 202.8 21.8249 207.95 21.8249 213.375C21.8249 214.45 21.5499 215.425 21.5499 216.4C23.7249 216.4 22.7999 216.35 24.7249 216.625L30.2249 216.65C30.8999 216.625 31.1249 216.5 31.9249 216.5H44.5249C44.5249 215.7 45.0249 213.975 45.2749 213.175C45.5999 212.075 45.8249 211.075 46.1999 210.025C47.7749 205.325 46.3749 207.8 48.9749 202.675C50.3999 199.825 51.4249 198.45 53.0749 194.825C53.4499 193.975 53.2999 193.675 54.1499 193.675C55.9249 193.675 53.5499 201.325 53.2249 202.6L52.2999 206.275C51.9749 206.975 51.7999 206.4 51.8749 207.25C52.1499 210.75 52.4999 212 53.0749 215.125C53.3749 216.75 52.9499 216.55 54.8249 216.525H76.0999C75.6499 214.55 75.8999 214.8 75.9749 212.575C75.9999 211.925 76.0999 211.925 76.1249 211.275C76.1749 209.5 76.0749 207.475 76.3249 205.825L76.5249 203.125C76.5249 201.5 77.0499 197.025 77.0499 195.25C77.0499 194.2 77.0499 193.35 77.1499 192.475L77.2999 186.975C77.2999 185.4 77.4249 185.175 77.4249 184.35C77.4499 180.225 77.7749 176.525 77.7749 172.225ZM26.5499 173.65L21.5499 171.15C21.5499 170.275 21.6749 169.175 21.8249 168.4C21.9749 167.675 22.3999 166.7 22.4749 166.025L24.6249 167.425C25.4499 167.9 26.1249 168.225 26.9249 168.675C26.7999 168.975 26.5499 172.925 26.5499 173.65ZM153.3 162.5C153.3 161.325 153.25 161.95 153.425 161.575C154.1 161.625 153.975 161.875 154.25 163.125C154.675 165.175 155.1 166.775 155.85 168.75L158.825 175.625L159.4 169.1C159.525 168.25 159.425 167.65 160.125 167.475C160.6 167.8 160.575 167.825 160.525 168.65L160.125 173.375C160 175.4 159.725 177.575 159.5 179.45C159 183.5 158.6 187.65 158.175 191.65C157.95 193.7 157.85 195.675 157.55 197.725L156.3 216.85C154.75 217.2 155.35 216.75 155.525 213.7C155.55 213.225 155.5 212.725 155.525 212.25C155.65 210.6 155.775 208.9 155.925 207.125L156.325 202C156.325 200.5 156.975 193.6 157.2 191.975C157.425 190.3 157.525 188.6 157.75 187L158.7 176.9L156.95 173.8C155.45 170.85 153.3 165.85 153.3 162.5ZM73.5749 169.975C73.5749 167.35 73.5499 168.65 73.2999 166.45C73.1499 165.15 72.6749 163.675 72.6499 163.275C73.5249 162.35 73.9249 162.15 74.8749 161.025L76.2999 159.425C76.5749 159.1 76.6749 158.825 76.9749 158.5C77.1749 158.275 78.3249 157.05 78.4499 156.95C78.4749 158.6 80.0999 161.975 78.0999 164.225C78.0749 164.25 77.9999 164.325 77.9749 164.35L76.3499 166.675C75.4499 167.85 74.7749 169.175 73.5749 169.975ZM88.8249 154.1L89.0999 158.55C89.1499 159.125 89.3249 160.075 89.3499 160.675C89.3749 161.05 89.3249 161.45 89.3749 161.85C89.6749 164.55 88.9249 167.925 86.5999 169.475C86.5999 169.875 86.7249 170.9 86.7999 171.375C86.8999 172.075 86.9249 172.425 87.0249 173.125C87.2999 175.7 88.2749 178.475 85.4249 179.975C85.7249 180.575 86.0749 184.85 86.0749 186.025C86.0749 190.775 84.8249 190.8 83.5749 195.875C82.7499 199.225 83.0999 202.575 78.4499 202.575C78.4499 203.25 78.2999 203.575 78.3249 204.425L77.8749 213.3C77.6499 214.7 77.9499 215.35 77.3999 216.5C79.2499 216.5 81.0749 216.25 82.6999 216.475L98.6999 216.65C99.2249 210.325 98.5749 212.15 98.5749 207.975C98.5749 203.05 100.775 191.925 101.45 186.4L102.1 181.125C102.475 178.425 102.125 178.575 102.15 176.3C102.175 172.6 101.15 174.475 99.0499 169.95C97.7999 167.25 97.0249 162.175 97.0249 159.225C97.0249 158.375 97.1749 156.15 98.4249 156.9C98.7249 157.075 98.7749 157.225 98.8499 157.525L99.2499 161.725C99.6249 164.375 100.125 166.825 101 169.025C102.225 172.075 103.7 173.175 103.925 173.575C104.425 174.5 104.225 177.825 104.375 179.3C104.5 180.575 104.65 182 104.75 183.375C104.85 184.675 105.125 186.25 105.125 187.6C105.15 189.375 105.575 192.175 105.65 193.9C105.825 197.8 106.45 200.825 106.7 204.15C107.1 209.35 107.575 211 107.1 216.75C108.6 217.1 110.775 216.875 112.475 216.875C114.4 216.875 115.85 217 117.725 217L125.725 217.125C126.725 217.125 127.4 217.25 128.225 217.25L128.35 205.425C128.35 204.375 128.475 203.7 128.475 202.525V173.375C128.475 169.9 128.35 166.775 128.35 163.4C128.35 156.5 128.225 149.975 128.225 143.175C127.55 143.2 124.85 143.95 123.925 144.125C119.225 145.075 115.55 145.6 110.8 146.35C109.5 146.55 109.775 146.25 109.025 147.2C107.8 148.725 107.075 150 105.75 151.55C104.85 152.6 103.95 153.425 102.45 152.675C101.85 152.375 101.4 152.025 100.85 151.65C100.55 151.45 99.5999 150.65 99.3499 150.65C98.3749 150.65 97.0999 153.025 94.0999 153.025C93.7499 153.7 93.3999 153.875 92.7249 154.3C91.0499 155.325 89.9749 154.875 88.8249 154.1ZM89.9999 151.2C90.6249 150.875 91.3749 150.475 92.2249 150.4C92.2499 151.05 92.4749 151.85 92.4999 152.5C91.8499 152.55 91.6499 152.9 90.5249 152.9C89.9749 152.9 90.1749 151.625 89.9999 151.2ZM79.2249 148.975C79.2249 152.625 80.3749 149.1 79.6999 153C79.1499 156.15 79.2749 153.55 80.1499 157.8C81.9499 166.525 78.4999 163.6 79.0749 167.8C79.1749 168.575 79.0999 169.45 79.0999 170.25C79.4999 170.15 80.0499 169.875 80.4999 169.675C81.8749 169.125 83.6249 168.725 84.7499 168C87.6749 166.125 87.6249 163.3 87.3749 160.25L87.0999 153.025C86.5499 153.075 86.7999 153.15 86.2999 153.15C84.9999 153.15 84.0999 152.2 84.0749 150.925C83.8249 150.95 80.6499 152.275 80.6499 148.825C80.0999 148.85 79.9499 148.975 79.2249 148.975ZM70.9499 149.625C70.5749 149.625 70.9999 149.5 70.5749 149.475L70.1749 149.5C70.0499 149 69.8999 147.875 69.8999 147.275C71.6999 147.275 76.1749 146.15 77.6499 145.425C78.2749 148.075 77.8749 147.8 76.5999 148.45C75.0249 149.25 72.7999 149.625 70.9499 149.625ZM81.8499 147C83.0999 147.3 82.4999 146.925 84.1249 146.125C84.7499 145.8 85.4249 145.55 86.3249 145.55C86.3249 146.375 86.0499 146.825 85.7999 147.4C85.5749 147.925 85.3499 148.725 86.1249 148.9C86.6749 149.025 87.2249 148.475 87.6749 148.225C88.1249 147.975 88.8499 147.65 89.3499 147.525C89.3499 148.075 89.0249 148.65 88.8249 149.1C88.5999 149.625 88.2999 150.05 88.2999 150.8C87.0499 151.1 86.0749 152.475 85.5749 150.25C84.9499 147.525 83.9749 149.625 82.9249 149.625C81.8999 149.625 82.4499 148.325 81.9499 147.575C81.3999 146.75 80.7249 147.35 80.1999 147.425C79.6249 147.5 79.2499 147.125 79.2499 147C79.2499 146.125 79.3999 145.375 79.9999 144.875C80.5499 144.4 82.5249 143.05 82.5249 144.525C82.4999 145.675 81.8499 145.625 81.8499 147ZM137.925 147C137.925 147 136.075 157.525 135.85 159.625L135.3 165.5C135.3 168.675 135 167.15 134.9 169.3C134.775 171.925 134.5 174.6 134.5 177.45C134.5 179.4 134.725 181.075 134.75 182.975C134.8 185.425 135.725 190.775 136.05 193.35C136.425 196.1 136.9 198.15 137.5 200.7L140.6 212.3C140.875 213.225 141.825 216.225 141.825 216.975L132.75 216.85C131.725 216.85 131.1 217.1 130.25 217.125L130.775 202.55C130.8 201.725 130.75 200.875 130.775 200.05C130.775 199.225 130.925 198.675 130.9 197.7V180.1C130.9 173.65 130.625 167.625 130.625 161.175L130.2 147.275C130.025 145.8 129.95 144.35 129.95 142.65C131.775 142.225 135.25 141.375 136.775 140.55C136.775 142.6 135.65 144.85 136.55 146.05C136.975 146.475 137.375 146.875 137.925 147ZM87.4999 146.875C87.5499 146.225 87.8749 146.025 87.7499 145.175C87.4749 143.1 84.6249 144.4 83.6749 144.9C83.6749 143.775 83.5999 142.3 81.7499 142.45C80.5499 142.55 79.5749 143.45 78.9499 144.1C78.8999 143.575 78.7999 143.375 78.8249 142.65L78.9499 137.775C80.5249 137.8 80.7249 138.175 82.7249 137.6C83.8499 137.275 86.3999 136.175 86.9999 135.425C87.7999 134.425 87.1499 133.65 89.4499 134.775C89.9999 135.025 90.4249 135.275 91.0499 135.4C90.7999 136.3 88.0749 136.825 87.1999 137.35C85.5499 138.325 86.0249 140.025 87.3749 140.9C90.3999 142.875 94.0249 139.925 94.8999 139.675C95.1499 139.6 95.2999 139.625 95.5499 139.55C95.8999 139.45 95.7749 139.45 96.1499 139.35C96.4749 139.825 99.6999 142.075 101 143.3C101.75 144.025 101.75 144.15 102.2 145C100.4 145.95 100.1 145.55 100.1 148.275L97.5249 149.9C96.6999 150.55 97.3249 150.35 96.1249 150.6C95.5249 150.725 94.8999 150.975 94.2999 151.025C94.2999 147.75 92.0249 148.025 90.4999 149.05C90.6999 148.15 91.4749 146.7 90.4499 146.075C89.3999 145.45 88.2749 146.65 87.4999 146.875ZM128.475 126.775L128.525 126.825C128.525 126.8 128.475 126.775 128.475 126.775ZM194.025 196.65C194.075 195.975 196.625 188.925 195.2 186.8C194.325 186.8 194.05 186.925 193.925 187.625C193.6 189.45 193.75 190.225 193.075 193.075C192.775 194.375 191.5 198.325 190.475 199.025C190.475 198.9 193.65 187 191 187.325C190.175 187.775 190.325 187.95 190.35 189.175C190.375 193.45 189.7 197.8 187.825 201.6C187.525 202.225 187.275 202.65 186.675 202.95C185.15 202.15 186.625 200.175 187.125 197.35L187.85 190.6C187.85 189.925 187.625 188.1 187.225 187.55C186.975 187.2 186.85 187.2 186.275 187.2C185.475 188.375 186.175 188.5 186.15 191.15C186.15 192.55 185.75 194.8 185.75 195.35C184.8 195.575 185.025 195.425 184.175 195.35C184 194.6 183.925 193.825 183.725 193.025C183.1 190.475 182.3 188.425 182.95 185.575C183.7 182.3 185.975 178.375 186 177.075C186.525 177.075 186.3 177.1 186.65 176.95C186.65 175.8 186.9 175.6 186.65 174.325C186.475 173.5 186.475 172.675 186.35 171.75L185.75 158.175C185.75 157.625 185.625 157.55 185.6 156.875L185.575 150.15C185.775 148.225 185.6 146.65 185.6 144.65L186 139.25C186.025 138.45 186.225 137.425 186.275 136.625L186.4 133.875C187.45 133.875 189.225 134.275 189.825 133.475C189.5 133.025 187.1 132.425 186.55 132.3L186.475 114.1C186.575 113.325 186.475 113.65 186.425 113L187.825 111.925C188.3 111.5 188.7 111.225 189.225 110.825L198.1 104.6C198.2 105.675 198.5 107.075 198.5 108.675V117.75C198.5 119.4 198.625 120.65 198.625 122.225C198.625 123.725 198.625 125.2 198.625 126.7C198.625 127.6 198.775 127.9 198.75 128.8C198.725 133.575 199.275 134.1 198.525 139.875L198.1 143.9C198 145.25 197.75 146.75 197.6 148C197.25 150.8 197.1 153.65 196.8 156.4C196.625 157.9 196.8 159.175 196.575 160.65L196.375 165.05C196.375 165.975 196.25 166.35 196.25 167.15L196.125 173.975H196.525C196.525 175.15 196.55 176.125 196.7 177.225C196.825 178.15 196.875 179.325 197 180.35C197.2 181.825 197.925 186.775 197.275 188C196.975 188.55 196.925 188.5 196.825 189.25C196.575 190.8 195 195.925 194.025 196.65ZM134.775 114.025C134.775 116.775 135.4 116.875 135.6 117.4C135.775 117.875 135.9 118.45 136.1 119C136.3 119.5 136.525 119.975 136.725 120.475C136.95 120.975 137.1 121.475 137.375 121.925L139.125 124.375C140.15 125.675 140 124.925 140 127.175C140 130.275 138.7 133.825 137.875 136.875C137.525 138.175 137.55 137.9 136.325 138.6C133.975 139.975 124.5 141.9 121.575 142.5C118.5 143.125 113.15 143.95 109.825 144.425C108.9 144.55 107.925 144.8 106.925 144.925C106.15 145.025 104.675 145.45 104.025 145.45C104.025 143.6 102 142.2 100.7 141.025C100.225 140.575 96.7499 137.975 96.2749 137.975C95.5499 137.975 96.1999 138.15 95.5499 138.05C94.9999 137.95 95.5499 137.85 94.6999 137.85C94.1749 137.85 92.7749 138.625 92.2999 138.85C91.2499 139.375 88.7749 140.375 87.8749 139.025C88.2999 138.425 89.9249 138.4 92.0999 136.95L94.0499 135.35C94.0499 135.35 94.1999 135.225 94.2499 135.15C96.0999 133.4 96.7999 134.625 98.6249 135.375C99.3499 135.675 99.2999 135.675 99.8749 136.1C101.15 137.075 100.55 136.9 102.35 136.9C108.475 136.9 118.75 131.975 125.3 129.775L129.45 128.425C131.275 127.8 130.5 127.45 133.95 128.025C136.4 128.425 135.15 128.4 136.1 128.65C136.05 126.7 132.275 126.275 130.725 126.275C131.1 125.475 131.575 122.35 131.775 121.3L133.475 110.9C133.6 109.575 134.275 106.775 134.275 105.65C135.075 105.875 135.825 107.725 136.275 108.375C137.25 109.85 137.2 108.625 135.6 111.425C135.3 111.9 134.775 113.275 134.775 114.025ZM129.4 125.85C129.4 123.425 131.475 114.325 132.1 110.675C132.3 109.5 131.925 109.75 132.35 108.55L132.5 107.775C133.4 101.775 133 104.375 131.95 100.85C131.675 99.8998 131.625 99.9748 130.125 99.0998C129.475 98.7248 129.725 99.3248 129.65 100.05L129.3 104.825C129.3 105.85 129.55 105.9 129.575 106.675L129.4 106.575C129.1 106.45 129.4 106.45 129.175 106.525L128.9 114C128.875 116.625 128.825 124.275 128.375 126.225C128.85 126.2 129.05 126.05 129.4 125.85ZM72.5249 102.725C72.5249 101.175 73.9999 100.675 74.3249 102.9L75.1499 115.6C75.1749 117.025 75.4249 118.425 75.5499 119.8L75.9749 123.825C76.1749 125.25 76.2999 126.475 76.4749 127.925C76.6249 129.2 76.8499 130.575 76.8499 132.025C77.5499 132 77.9249 131.75 78.6999 131.75C80.4999 131.75 82.0499 134.65 80.6749 135.95C82.6249 135.95 83.6999 135.6 85.1499 134.625C85.0249 134.075 84.8249 133.575 84.6749 133C84.5249 132.375 84.4499 131.875 84.3249 131.25C84.1499 130.125 83.9499 128.75 83.7249 127.65L82.5749 120.525C81.8249 115.675 80.9749 111.125 79.8749 106.675C78.9749 103.1 76.2999 93.3498 73.6999 90.9248C73.2249 90.4748 72.6499 89.7998 72.0749 89.5248C70.1499 88.6498 64.6249 86.7998 62.7499 88.1498L61.2499 89.3998C60.6749 89.7998 60.1249 90.0748 59.5499 90.4498C58.9499 90.8498 58.4499 91.1248 57.7499 91.4248C54.7499 92.6498 51.9749 93.4748 48.6499 93.1248C42.4499 92.4748 41.4499 92.1748 35.4499 89.7748C34.2249 89.2998 32.7749 88.6748 32.6499 87.1748C31.7999 87.2498 28.6499 89.1748 27.6499 89.6748L24.3999 91.3998C23.8499 91.6998 23.3249 91.9998 22.7999 92.2748C19.4749 94.1248 16.4499 95.7248 15.5749 100.025C15.3499 101.175 14.9749 104.225 14.9249 105.675C14.9249 106.075 14.9499 106.4 14.8999 106.825C14.6999 108.275 14.7999 110.175 14.7999 111.725L15.4249 120.175C15.5499 121.075 15.4999 121.95 15.6499 122.85C16.1749 126.375 16.5999 129.775 17.5249 132.925C18.5249 136.425 20.7749 141.25 23.0499 143.95C23.2499 144.2 23.1999 144.175 23.3999 144.4L25.2499 146.225C25.6749 146.7 26.2999 147.25 26.3749 148C25.5999 147.925 25.2999 147.15 24.5249 146.95C26.6499 151.375 21.8999 157.675 21.8999 162.325C21.8999 163.85 25.6499 165.825 26.8249 166.475C28.0249 167.125 29.2499 167.7 30.5499 168.125C35.8249 169.875 43.7749 170.725 49.6249 170.725C50.4249 170.725 50.6999 170.625 51.3249 170.6C55.4249 170.375 57.8499 169.775 61.7749 168.45C62.6999 168.15 63.5749 167.85 64.4749 167.6C64.9499 167.475 65.4749 167.275 65.9249 167.2C66.6999 167.075 66.7249 166.975 67.2249 167.325C66.9499 168.55 65.1249 169.025 64.1249 169.475C63.3249 169.825 61.1249 170.8 60.2749 170.875C60.2749 172.025 60.5499 172.65 60.5499 173.9C60.5499 175.05 60.6749 175.8 60.6749 177.05C61.1749 176.8 61.9249 176.6 62.4999 176.375L70.5749 172.375C71.0999 172.05 73.0249 170.475 73.4249 170.375V170.1C72.7249 170.05 72.6999 169.625 72.5249 169.05L71.4749 164.6C70.9499 164.875 70.9749 164.975 70.4749 165.325C69.7999 165.8 68.4999 166.1 69.2249 164.875L70.5249 163.15C70.5499 163.125 70.5749 163.1 70.5749 163.075L72.7749 160.675C73.6999 159.55 74.7249 158.5 75.5749 157.3C76.0249 156.65 76.3999 156.15 76.8249 155.525C77.5999 154.325 77.6249 152.25 77.6249 150.3C74.0749 152.175 70.2499 151.175 69.5749 151.425C69.2999 151.525 69.0749 151.825 68.8249 152C67.3249 153.1 65.2499 154.175 63.4749 154.8C60.0499 156 54.1749 156.275 50.1249 155.725C48.8999 155.55 47.6249 155.625 46.3499 155.55C45.2249 155.5 43.8499 155.25 42.7999 155.175C41.5499 155.075 41.4499 155.075 40.3499 154.725C37.4499 153.8 35.9499 153.85 31.9999 152.3C31.6999 152.175 31.5249 152.125 31.2499 152C30.5499 151.675 28.7249 150.65 28.7249 149.8C28.7249 148.1 30.9499 149.8 31.6499 150.15C32.4749 150.575 33.3999 150.8 34.2749 151.075C36.0749 151.6 38.0749 152.25 39.8999 152.55L44.5249 153.325C45.1499 153.5 48.6249 153.75 49.3499 153.75L54.7499 153.875C64.4999 153.875 66.8499 150.75 69.1999 150.2C68.9749 149.4 67.3499 147.575 67.3499 143.9C67.3499 142.775 67.4749 138.25 69.0499 138.25C69.7749 138.25 69.4999 139.15 69.4499 139.7C69.2999 141.225 69.2499 143.175 69.4249 144.725C69.4999 145.525 69.2749 145.55 69.8749 145.525C70.8249 145.475 73.9749 144.825 75.0999 144.675C75.8499 144.575 76.7999 144.3 77.5999 144.275C77.4249 143.925 77.4749 144.375 77.4749 143.875V142C76.6249 142.025 75.9249 142.275 75.1499 142.425C74.2999 142.6 73.1999 142.775 72.2249 142.775C71.4749 142.775 71.0999 141.375 72.5249 140.975C74.2249 140.5 75.8249 140.525 77.5999 140.525L77.7249 138.425C77.1249 138.45 76.4499 138.7 75.8749 138.8C74.6749 139.05 70.8999 140.25 70.8999 138.425C70.8999 137.475 73.0499 137.45 74.0249 137.35C75.0999 137.225 76.6499 137.1 77.8499 137.1C77.8499 134.975 78.8999 134.775 79.1749 135.925H80.2249C79.9249 135.475 79.8999 135.2 79.6249 134.675C79.4749 134.35 79.1499 133.825 78.7749 133.825C77.6499 133.825 73.8749 135.275 70.4999 135.275L67.5999 135.15C67.2749 135.625 67.2499 136.05 66.6749 136.2C66.7749 135.825 66.7749 135.85 66.9499 135.55L67.3249 135C66.8499 134.3 66.2249 133.975 65.5499 133.5C63.2249 131.925 60.3749 132.175 57.5499 132.575C52.8249 133.225 44.6249 134.6 39.8749 133.425C38.7749 133.15 39.2249 133.125 38.5749 133.425L37.0499 133.75C36.5749 133.95 36.1999 134.075 35.7499 134.3C35.4749 134.425 35.3499 134.5 35.1249 134.6C34.7749 134.75 34.8499 134.75 34.5249 134.925C34.0499 135.2 33.8249 135.325 33.3749 135.625C32.9499 135.9 32.6999 136.15 32.1249 136.2C32.1749 135.75 32.2999 135.65 32.5499 135.325C33.9249 133.55 35.4499 132.425 37.7749 131.875C37.2749 131.125 37.1249 131.45 35.8499 129.325C33.1499 124.8 31.9249 117.725 30.6999 112.55C30.3999 111.325 30.1999 110.05 29.8999 108.875C29.7249 108.1 28.5999 104.25 30.1249 104.05C31.0999 103.925 31.4249 106.475 31.5999 107.175C31.8749 108.275 32.1999 109.575 32.4749 110.75C33.0749 113.15 33.6249 115.45 34.2749 117.9C34.8999 120.3 35.5499 122.55 36.2999 124.8C36.8499 126.425 38.3999 130.05 38.5249 131.525C44.5249 132.025 48.8749 131.675 54.8749 130.8C55.9999 130.625 56.8999 130.575 58.0249 130.4C60.0249 130.125 62.6999 129.925 64.4249 130.45C65.9749 130.925 67.7249 132.05 68.4749 133.5C69.4749 133.5 74.8999 132.7 75.4249 132.45C75.3249 132.025 74.9749 131.575 74.7749 131C74.1749 129.075 73.2749 121.05 73.1749 118.8C73.0749 116.35 72.7749 113.975 72.7749 111.3C72.7749 110.45 72.6499 110.175 72.6499 109.475L72.5249 102.725ZM178.525 83.6998C178.15 83.6998 175.275 83.8248 175.05 83.8998C174.575 84.0498 174.8 83.9498 174.525 84.2998C174.35 84.5248 174.3 84.5998 174.15 84.8498C173.925 85.2748 173.825 85.6748 173.575 86.1248C172.175 88.8498 170.375 91.4748 168.25 93.6748C168.05 93.8998 168.025 93.9248 167.825 94.1748L166.85 95.1498C165.775 96.1498 163.325 98.0748 161.95 98.3748L158.8 98.8998C158.175 98.9748 156.225 98.5998 155.675 98.4498C153.875 97.9998 153.775 98.3498 151.825 97.0498C150.3 96.0248 149.375 94.6998 148.95 92.5498C148.825 91.8748 148.55 89.9498 148.65 89.2498C148.7 88.7998 148.7 88.0998 148.8 87.5498C148.9 86.9748 149.025 86.6498 149.15 86.1748C148.125 86.3998 147.275 86.6748 146.5 87.1998L144.35 88.5998C143.45 89.2248 142.575 89.7748 141.8 90.5248C141.35 90.9498 141.725 90.7248 141.425 91.0748C141.025 91.5498 141.35 91.1498 140.825 91.3998C139.95 91.8248 139.175 92.7498 138.525 93.4248L137.725 94.0748C137.7 94.0998 137.675 94.1248 137.65 94.1248C137.625 94.1498 137.6 94.1748 137.575 94.1748C137.55 94.1998 137.525 94.2248 137.5 94.2248C137.125 94.5498 137 94.6998 136.6 95.0248C136.2 95.3248 136 95.5498 135.6 95.8748C135.125 96.2748 133 98.1748 133 98.5248C133 99.2498 133.1 98.9498 133.275 99.5498C133.425 100.075 133.275 99.7748 133.35 100.175C133.525 101.15 134.6 102.875 135.1 103.775C135.425 104.35 135.725 105.05 136.175 105.45C136.4 105.65 136.375 105.6 136.55 105.875C136.7 106.125 137.525 108.075 137.6 108.375C138.65 107.675 141.725 102.725 142.125 100.95C142.325 100.1 142.15 100.325 142.85 99.9498C143.725 100.4 143.775 100.85 143.425 101.95C143.15 102.775 142.825 103.275 142.425 103.975L140.075 107.55C139.6 108.2 138.95 108.9 138.6 109.625L138.2 110.275C137.125 111.525 136.15 113.875 136.775 115.625C137.05 116.4 137.125 117.15 137.575 117.85C138 118.475 138.225 119.15 138.625 119.825L141.3 123.85C142.525 125.475 145.975 124.875 147.65 124.45C148.475 124.25 149.025 123.75 149.825 123.725C149.875 124.4 149.925 123.9 150.1 124.525C149.05 126.075 145.825 126.7 144.2 126.75C143.45 126.775 142.525 126.95 141.825 127C141.825 131.1 140.975 133.775 139.95 137.325L139.075 140.4C139.075 141.025 139.325 140.725 139.1 141.475C139 141.825 138.9 141.925 138.75 142.325C138.375 143.375 138.175 144.35 138.4 145.4L139.65 145.725C140.275 146.05 139.2 145.6 139.775 145.825C140.025 145.925 139.825 145.875 140.125 145.85C140.975 145.825 141.6 145.675 142.325 145.675C143.275 145.65 143.75 145.8 144.55 145.825H156.375C162.675 145.825 168.65 146.1 175.025 146.1C176.325 146.1 177.625 145.85 178.775 146.025C179.825 146.2 179.6 146.025 180.4 145.8C181.05 145.625 180.65 145.75 181.025 145.825C181.05 145.825 181.075 145.85 181.1 145.85C181.575 145.95 182.375 145.825 182.9 145.825C182.9 145.025 183.1 145.05 183.15 144.375C183.4 141.225 184.075 136.075 184.075 133.6C184.075 132.975 183.95 133.2 183.95 132.675C183.95 131.875 184.025 132.4 184.175 131.85C184.4 130.975 184.2 125 184.225 123.475C184.225 122.65 184.375 122.375 184.375 121.5C184.375 120.05 184.15 118.85 184.1 117.55C183.975 113.625 183.375 109.7 183.175 105.875C183.15 105.275 182.15 101.15 183.45 101.15C184.25 101.15 184.25 102.025 184.375 102.725C184.5 103.475 184.725 103.975 184.925 104.675C185.225 105.725 185.5 107.6 185.575 108.9C185.6 109.525 185.675 109.525 185.7 110.1C185.725 110.6 185.575 110.925 185.925 110.925C186.125 110.925 187.325 109.6 187.675 109.3C187.7 109.275 187.725 109.25 187.75 109.25L188.45 108.625C190.7 106.8 192.975 105.2 195.375 103.475C196.65 102.55 199.95 100.05 201.35 99.7248V99.1998C200.65 98.9998 197.15 95.1998 196.2 94.1248C196.075 93.9748 196.025 93.9248 195.875 93.7998C195.65 93.5748 195.5 93.4498 195.275 93.1998L191.75 89.4998C191.5 89.2748 191.3 89.0998 191.1 88.8498L189.325 87.0748C186.525 84.3498 182.425 83.6998 178.525 83.6998ZM110.1 77.5248L109.025 80.2748C108.85 80.7248 108.65 81.1498 108.45 81.6748C108.225 82.2498 108.4 82.3248 108.575 82.9748C109.025 84.6498 109.125 87.8248 109.175 89.8748C109.2 90.5748 109.325 90.8748 109.3 91.6998C109.3 93.6748 109.525 95.2498 109.575 96.9498L110.1 111.4C110.1 112.675 110.1 113.95 110.1 115.2C110.1 115.775 110.075 116.475 110.1 117.05C110.125 117.675 110.25 117.95 110.225 118.75L110.9 131.2C110.95 131.675 111.125 132.275 111.15 132.8C112.1 132.575 118.275 130.175 119.3 129.775L123.325 128.275C125.425 127.375 125.9 127.4 126.3 125.725C126.6 124.45 126.5 121.925 126.525 120.425C126.525 119.675 126.675 119.525 126.675 118.725C126.675 113.725 127.075 109.2 127.325 104.525C127.475 101.75 128.25 96.4498 128.25 94.4248C128.25 93.7748 128.225 91.5248 129.05 91.5248C130.725 91.5248 129.975 95.0498 129.975 96.5248C130.425 96.6498 130.625 96.8498 130.925 97.1498C131.2 97.3998 131.525 97.6498 131.8 97.8498L133.225 96.3748C133.525 96.0498 133.575 95.8998 133.875 95.5748L137.85 91.5498C139.25 90.2498 140.175 89.8998 141.55 88.7998C143.175 87.4998 143.2 87.9748 143.775 86.7998C142.375 86.0498 140.775 84.9748 139.475 83.9998L133.325 79.4998C132.95 79.1998 133.2 79.2248 132.55 79.2248C132.55 80.3248 132.275 82.2748 132.075 83.3498C131.925 84.1748 131.725 85.4998 131.375 86.1998C131.15 86.6498 131.3 86.5748 130.825 86.6998C130.175 85.3748 130.7 82.5998 130.7 81.1748C130.7 79.9998 130.975 77.5498 130 76.7498L119.925 68.6998C119.575 68.4248 119.45 68.2498 119.075 67.9748C118.75 67.6998 118.6 67.4998 118.2 67.3998C118.2 70.0248 117.425 71.8998 116.275 74.0248C115.775 74.9248 114.425 77.1498 113.75 77.9498C112.55 79.4248 111.425 78.2248 110.1 77.5248ZM177.475 77.5248C177.65 77.6248 177.5 77.5248 177.725 77.6748L177.875 77.7748C177.9 77.7998 177.925 77.8248 177.95 77.8248L178.525 78.4248C179.175 79.1998 179.775 79.9748 180.225 80.9248C180.475 81.3998 180.65 81.8748 180.875 82.3748C179.625 82.3748 176.475 82.5248 175.5 82.7748C174.95 82.9248 174.875 83.0998 174.375 82.8498L171.025 81.8498C171.25 81.5248 172.2 81.0748 172.65 80.8498C175.2 79.4248 175.525 78.8248 177.475 77.5248ZM79.2249 78.6998C79.2249 77.9998 79.3249 77.8998 79.3499 77.3748C79.3999 76.7248 79.2249 76.5248 79.3499 76.1998C78.7249 76.3748 78.3749 76.9998 77.9249 77.3998L73.7999 81.1748C72.7249 82.1748 72.1999 82.4998 71.0499 83.6748L68.3249 86.1998C68.7999 86.2998 69.2749 86.4498 69.6499 86.6998C71.0999 87.6748 71.9499 87.4498 74.0499 88.5998C74.2749 88.7248 74.2249 88.6998 74.3749 88.7998C74.3999 88.8248 74.4249 88.8498 74.4499 88.8498C75.0249 89.3248 77.4499 93.4498 77.9249 94.4498C78.2999 95.2748 78.6749 96.0498 78.9999 96.9248C79.1749 97.4248 80.5999 101.8 80.9499 102.075C81.0749 101.625 81.1999 101.7 81.3499 101.3C81.6249 100.6 81.3499 101.25 81.3499 100.5L81.4749 93.1498C81.4749 92.1748 81.4249 90.9248 82.3999 90.9248C83.6249 90.9248 83.2499 93.2748 83.3249 94.3498C83.3499 94.9248 83.4499 94.9748 83.4499 95.6498C83.4749 97.6998 83.5999 99.2748 83.6999 101.175C83.7999 102.95 84.0499 104.725 84.0749 106.575C84.0999 107.3 84.2499 108.5 84.3249 109.2L84.5999 114.7C84.5999 115.35 84.6999 116.7 84.7999 117.375C84.9249 118.25 84.8999 119.15 85.0249 120.05C85.1249 120.75 85.3249 121.825 85.3749 122.6C85.5249 124.475 85.4749 126.275 85.7749 127.975C86.0999 129.9 86.8249 130.6 86.8249 132.575C87.4499 132.525 87.4499 132.175 88.1499 132.175C89.5249 132.175 91.5999 133.6 92.8749 134.275C93.1499 133.85 93.5499 133.6 93.9749 133.25C94.3749 132.95 94.7749 132.725 95.3749 132.7C94.8499 131.7 95.2249 131.45 95.2999 131.05L96.0749 125.525C96.4499 123.4 96.6999 121.325 97.0499 119.275C97.7499 115.125 98.4499 110.95 99.0249 106.8C99.7999 101.275 100.875 96.3998 101.625 91.2748C101.8 90.1748 101.9 89.2748 102.1 88.1998L102.975 81.9998C102.975 81.3498 101.175 78.8498 101.125 77.5248C100.525 77.5748 99.5499 78.0498 98.9749 78.2748C95.3249 79.7498 94.8999 78.2748 94.2999 73.8498C94.1499 72.7748 93.9249 71.5748 93.8999 70.4498L93.6249 67.0248L83.0499 73.5248C82.0749 74.1248 81.7999 74.2248 81.4499 75.3248C80.9749 76.8248 80.4999 79.1998 80.4999 81.0748C80.4999 81.6248 80.9749 82.0248 80.4999 82.0748C79.5749 82.1498 79.2249 79.5748 79.2249 78.6998ZM17.0999 68.8498C17.8249 69.0498 21.2499 72.9498 22.0499 73.7498C22.5749 74.2748 23.2749 74.8498 23.6499 75.4248C23.3999 76.3998 21.9249 77.3748 23.3749 80.5748C23.6249 81.1248 24.2749 82.1248 24.9749 82.1248C25.2749 82.1248 25.2749 82.0248 25.4999 81.8498C24.7749 80.7748 24.4749 80.3498 24.2249 78.6498C24.0249 77.3248 24.9749 76.4248 25.3249 75.3748C25.5749 74.5998 25.4249 74.2248 25.5499 73.3748C25.7999 71.5998 25.6249 68.4248 26.9499 68.0748C27.0999 68.6748 27.3999 68.9498 27.4749 70.2998C27.5999 72.9498 27.5999 75.2498 28.4499 77.7498C28.7749 78.7248 29.3499 79.6498 30.0749 80.3248C30.5499 80.7498 30.4249 80.4748 30.6499 81.1998C30.8999 82.0748 31.7499 84.9748 31.7999 85.6998C30.5249 85.9998 29.1249 86.8748 27.9749 87.3998C25.6999 88.4248 26.5749 88.6248 23.8749 87.7248C22.1749 87.1498 21.3999 86.8248 20.0499 85.8998C19.5249 85.5248 18.9999 85.0748 18.5499 84.6248C18.2249 84.2748 17.4499 83.3998 17.3499 82.9498C18.2999 83.5748 19.2499 84.2748 20.2499 84.2748C20.1999 83.6748 19.4999 83.1998 18.8499 82.5248C17.4999 81.1748 16.9749 80.7248 15.8499 79.2248C15.4249 78.6748 14.7749 77.8748 14.5999 77.1748C16.3999 77.3248 18.1249 80.0248 19.4499 80.4748C19.6249 80.5248 20.0999 80.5248 20.0999 80.1998C20.0999 78.6998 15.2999 75.4998 14.5749 72.4498C17.6749 74.0998 19.8249 78.0998 21.6749 78.0998C22.1999 78.0998 22.3249 77.5998 22.3249 77.1748C22.3249 76.7498 21.1249 75.7998 20.8249 75.3998C19.9249 74.0998 17.2749 70.1998 17.0999 68.8498ZM97.3499 62.6748C97.3999 62.9248 97.4499 63.2498 97.5499 63.5248C97.6249 63.7998 97.7999 64.1498 97.8749 64.3748C99.1249 67.4748 101.85 70.8248 104.55 72.9248C104.925 73.2248 104.95 73.0248 105.1 73.5748C104.425 73.7248 103.7 74.0248 103.025 74.2498C102.325 74.4748 101.55 74.7248 100.9 74.9998L96.8499 76.7248C96.4999 75.2748 96.2749 75.1248 95.9499 73.1498C95.7499 71.8998 95.5499 70.4748 95.4249 69.1998C95.3499 68.4998 95.2999 67.7498 95.2749 67.1248C95.2749 66.8248 95.1999 66.2248 95.1999 66.1748C95.2249 65.7748 95.3749 65.8248 95.5749 65.4248C95.8749 64.7498 95.4499 65.0748 96.2999 63.9248C96.5499 63.5748 97.0249 62.8748 97.3499 62.6748ZM112.2 76.8498C111.7 76.7248 111.15 76.2248 110.75 75.9248C109.95 75.3248 107.1 73.3248 106.425 73.1748C106.525 73.0248 107.275 72.3748 107.5 72.1498C107.775 71.8998 107.825 71.8998 108.075 71.6748L110.7 69.0498C110.85 68.8998 110.8 68.9248 110.95 68.7748L112.55 66.6998C112.85 66.2498 113.125 65.8748 113.375 65.4248C113.625 64.9498 113.775 64.4248 114.025 63.9748C114.775 64.4748 115.45 65.2498 116.25 65.6748C116.2 67.7248 115.675 69.9998 114.9 71.9498C114.575 72.8498 112.775 76.4248 112.2 76.8498ZM190.475 72.2498C190.475 71.4498 191.525 70.8498 191.95 70.2998C192.425 69.6998 192.875 68.9498 193.325 68.2498C194.5 66.4498 195.775 65.0748 194.95 63.8498C193.9 63.9498 192.425 66.2248 191.45 67.4498L189.825 69.3498C189.3 69.9998 188.525 70.6248 188.125 71.1998C188.575 71.8748 188.725 71.9248 189.025 72.9248C189.3 73.8248 189.4 75.3748 189.1 76.3998C188.95 76.8748 188.95 76.8748 188.525 76.9998C187.775 76.4498 187.825 73.8748 187.075 72.6498C186.5 71.6998 186.3 72.6248 185.95 71.3998C185.85 71.0748 185.75 70.8498 185.75 70.5498C185.75 69.5498 187.2 65.5998 185.35 64.3748C184.825 65.4498 184.825 71.5498 182.6 75.3998C182.325 75.8498 181.975 76.3498 181.65 76.8248C181.35 77.2748 181.05 77.7498 180.5 77.8998C180.625 78.3498 180.85 78.4998 181.075 78.8998C181.75 80.1498 181.8 81.2498 182.075 82.4998C184.7 82.4998 184.6 83.3998 186.975 82.9248C190.35 82.2498 192.4 81.9498 195.05 79.6998C195.625 79.1998 197.675 77.4998 197.85 76.8498C197.275 76.9998 195.1 78.4248 194.3 78.4248C193.25 78.4248 193.85 78.4998 193.55 78.2498C193.15 77.8998 193.225 77.6998 193.325 77.4748C193.575 76.7498 198.05 72.8748 198.25 70.6748L195.3 73.7748C195.275 73.7998 195.25 73.8248 195.25 73.8498C195.225 73.8748 195.2 73.8998 195.2 73.9248C194.475 74.7498 194.4 74.7498 193.225 75.1498C192.55 75.3748 192.7 75.0998 192.9 74.5498C193.225 73.7248 193.475 73.2998 194.1 72.6998C194.25 72.5498 194.35 72.4748 194.5 72.2998L195.625 71.0748C196.5 70.0748 198.625 68.2748 198.675 66.4998C198.3 66.7498 198.1 67.0248 197.675 67.3498C196.625 68.1748 193.7 71.1498 192.325 72.2248C191.45 72.8248 190.475 73.0498 190.475 72.2498ZM99.8499 60.0498C100.35 60.3998 100.575 60.9248 101.15 61.3748C102.35 62.3498 103.1 62.7498 104.45 63.3248C106.025 64.0248 106.725 64.2998 108.2 63.3998C109.8 62.4248 111.65 60.2248 111.925 60.0248C111.925 63.2748 113.725 62.2248 110.025 66.9248L107.825 69.5998C107.3 70.2498 106.15 71.9748 105.6 72.3748C104.125 70.1998 102.875 68.9748 101.275 66.8498C100.55 65.8748 99.9749 64.9498 99.4249 63.8498C98.5749 62.1498 99.8499 62.4498 99.8499 60.0498ZM28.1249 52.8248C29.5249 52.8248 31.3249 53.6498 31.9999 55.0998C32.6249 56.3998 32.6749 56.3248 33.6249 56.0998C33.8499 55.0998 33.7499 54.2748 33.7499 53.0748C35.1999 53.0748 37.8999 52.4248 38.3499 52.4248C38.3499 55.0498 39.9749 57.3998 42.2499 58.3748C44.1749 59.1998 46.0499 59.1748 47.9499 58.3248C50.1749 57.3248 51.7499 55.1498 51.9999 52.6748C52.0749 52.0248 51.8499 52.2748 52.2999 52.0498C52.5249 51.9248 53.6249 51.8248 53.6999 51.8748C53.9999 52.0248 53.8249 52.3998 54.0999 53.2498C54.4749 54.3498 54.6999 54.6998 55.3749 55.5248C56.8999 57.4748 59.9499 58.1498 62.5499 57.3248C62.9999 57.1748 62.6749 57.1748 63.2999 57.1498C63.2999 62.0248 61.1249 68.8498 57.1999 71.7998C53.0499 74.8998 50.6999 73.8498 46.3999 72.0498L43.7499 70.8748C43.2999 70.6748 42.9249 70.4748 42.5249 70.2748C41.5249 69.7748 41.9249 69.4748 41.2249 69.4748C40.8749 69.4748 40.5749 69.9498 40.5749 70.1248C40.5749 71.9748 43.9499 76.2998 46.5999 77.3748C47.1249 77.5998 47.6249 77.7998 48.1999 77.9998C48.8249 78.1998 49.3749 78.2498 50.0249 78.3998C50.1499 79.7748 51.5749 81.1998 51.7249 81.8248C48.6999 81.8248 46.3749 81.4498 43.9249 80.8248L41.4249 80.1748C41.0749 80.0748 40.8749 79.9998 40.5249 79.8998C38.8999 79.3498 37.8249 77.7748 37.8249 79.4498C37.8249 80.7748 42.3499 82.1248 43.3999 82.4248C48.3999 83.8998 47.8249 83.9248 53.0749 83.9248C54.0999 83.9248 56.8749 83.1748 56.8749 82.0748C56.8749 81.2498 54.7499 81.6748 53.8499 81.6748C53.2999 81.6748 52.4499 79.9748 52.3999 79.2998C53.1999 79.3248 54.8499 79.7748 55.6499 79.9748C56.7249 80.2498 57.7499 80.5748 58.1749 81.5248C58.5749 82.3998 58.7499 83.5498 59.0249 84.5998C59.1749 85.2248 59.2249 85.5998 59.3999 86.1998C59.5749 86.7748 59.6499 87.3748 59.8749 87.8248C59.3749 88.0748 58.8249 88.2498 58.2999 88.4748C57.0249 89.0498 55.0999 90.1748 53.4499 90.2998C51.7999 86.8748 52.7249 85.1748 50.9499 85.1748C49.9999 85.1748 50.0499 86.8998 50.1999 87.7748C50.3249 88.4748 50.8999 89.9748 51.2249 90.5748C50.4999 90.5748 50.4499 90.6998 49.7749 90.7248C49.0749 90.7248 48.9999 90.5998 48.3249 90.5748C47.2499 90.5498 47.2999 90.8498 46.7749 88.9748C46.5249 88.0748 46.3749 87.3748 46.1999 86.3998C45.9749 85.0748 46.3749 84.0248 45.1749 84.0248C44.3999 84.0248 44.2499 85.1748 44.2499 85.8748C44.2499 87.0748 45.0499 89.2248 45.5749 90.1998C44.7249 90.1998 41.2999 89.5998 40.4499 89.2748C39.8499 89.0498 39.9249 88.7998 39.6249 87.9748C39.2249 86.8498 38.9999 86.1998 38.7749 84.7498C38.5999 83.4748 39.0999 81.7748 37.6749 81.7748C37.1249 81.7748 36.8249 82.4998 36.6999 83.0498C36.3249 84.9498 37.8499 87.5498 38.0499 88.4748C34.5499 87.6498 34.6999 86.9998 33.6749 84.9748C32.9249 83.4998 32.2749 79.7748 32.2749 77.9748C32.2749 76.9998 32.8499 76.5248 33.4749 76.1498C33.8749 75.9248 35.2249 75.2498 35.6749 75.1998C35.6749 76.4748 35.5499 78.0748 35.7999 79.1498C36.9999 79.4748 37.1249 78.2498 37.4249 76.5748C38.2499 72.2248 38.0749 67.1998 35.7749 63.3998C35.4249 62.8248 34.7749 61.6748 33.9499 61.6748C33.1999 61.6748 33.6249 62.3248 32.3749 62.3248C22.3749 62.3998 22.8249 52.8248 28.1249 52.8248ZM39.6999 52.1748C39.6999 57.1748 45.3999 59.7248 48.8249 56.2998C51.3249 53.7998 51.1249 49.4248 47.6249 47.2748C45.6249 46.0498 42.7999 46.5498 41.2249 48.3998C41.1999 48.4248 41.1749 48.4498 41.1749 48.4748C40.3749 49.3748 39.6999 50.5498 39.6999 52.1748ZM60.5749 56.4998C61.6999 56.4998 63.5499 56.1248 63.5999 54.7998C63.6499 53.1998 63.8499 51.9748 63.8499 50.3248V47.4248C63.8499 46.1748 60.0249 45.5998 58.1999 46.6498C57.7999 46.8748 57.2499 47.2498 56.9249 47.5998C55.4249 49.0998 55.4499 50.1998 55.4499 51.8998C55.4499 53.9498 57.9499 56.4998 60.5749 56.4998ZM65.1749 53.3498C65.2749 52.1498 65.4499 51.0248 65.4499 49.6748C65.8749 49.9748 65.8249 50.9998 65.7499 51.5498C65.6499 52.2998 65.6249 53.0248 65.1749 53.3498ZM105.9 58.7248C103.625 58.7248 100.875 56.9248 99.1999 55.8248C97.8749 54.9498 97.3249 54.2998 96.6499 53.4998L94.2249 50.1498C93.4999 48.9248 92.1499 45.1998 92.6249 43.8748L92.7749 43.2498C92.9499 42.2998 93.4749 39.5498 94.4249 39.0998C95.0749 38.7748 99.5749 37.9748 100.85 37.6498C102.025 37.3498 102.8 37.0998 103.875 36.7248C106.325 35.8998 109.575 34.2748 111.7 32.8498C112.2 32.5248 113.525 31.3748 114.025 31.2498C114.025 31.2498 114.575 33.5748 115.025 34.7248C115.425 35.7248 116.125 36.6998 116.825 37.3998C117.025 37.5998 117.15 37.7248 117.35 37.9248C118.85 39.3248 118.725 38.8748 119.475 41.4498C119.6 41.8998 119.575 41.9248 119.775 42.3248C120.425 43.6498 119.95 45.1748 119.525 46.7248C119.275 47.6498 118.875 48.5748 118.525 49.3998C117.775 51.0498 116.725 52.4248 115.45 53.6748C113.7 55.4248 111.325 57.3498 108.8 57.9248C108.175 58.0998 106.375 58.7248 105.9 58.7248ZM53.8749 50.8498H52.0249C51.4249 48.2748 50.3499 46.6248 47.9499 45.5998C47.3999 45.3748 47.3999 45.3748 46.6749 45.2998C43.8499 45.0498 42.7499 45.3248 40.6749 46.9498C38.8999 48.3248 38.6999 50.4248 38.3999 51.0998L35.2499 51.2248C34.6749 51.2498 34.7749 51.3498 34.1999 51.3498C34.1999 49.7748 35.5249 48.2248 36.5249 47.2498C37.5749 46.2498 39.2999 45.5248 40.5999 44.8998C43.5249 43.5248 45.4249 43.3248 46.9749 39.2998C47.0999 38.9998 47.0749 38.8748 47.1999 38.5998C47.7249 38.9998 47.9749 39.9248 49.7249 41.0748C51.6249 42.3248 55.1749 43.2748 57.5999 43.4498C58.6749 43.5248 58.9499 43.5248 59.8499 43.6998L61.4249 44.0998C61.6249 44.1998 61.6749 44.2498 61.8249 44.3748C60.9999 44.3748 61.0499 44.2248 60.3499 44.3248C59.7249 44.3998 59.2499 44.4748 58.7999 44.6248C57.8749 44.8998 57.0499 45.3498 56.4249 45.9248C54.9249 47.1998 53.8749 48.8748 53.8749 50.8498ZM91.0499 44.5498C91.0499 46.5248 91.7249 47.8498 92.0999 49.3998C91.5499 49.0998 91.1499 48.7248 90.6749 48.3248C89.4499 47.3498 87.6249 45.5998 87.6249 43.8748C87.6249 42.6998 88.2999 42.4248 89.3249 42.4248C90.2249 42.4248 90.7499 42.8498 91.2999 43.2248C91.2249 43.3998 91.0499 44.2998 91.0499 44.5498ZM161.85 42.1748C162 42.3498 161.9 42.2248 162.075 42.4748C162.175 42.6498 162.2 42.7248 162.3 42.8998C163.125 44.4998 165.125 45.7498 166.825 46.2498C167.275 46.3748 167.45 46.3498 167.75 46.6248C165.05 46.6498 161.85 44.7998 161.85 42.1748ZM154.75 42.3248C154.75 44.8748 156.9 48.4498 159.375 49.6498C160.725 50.3248 161.9 51.2498 163.45 51.5998C164.3 51.7998 167.575 52.8498 168.275 51.8998C168.025 51.7748 166.15 51.4498 165.675 51.3498C164.875 51.1748 164.125 50.9498 163.375 50.6248C154.75 46.9998 155.75 40.8248 155.4 40.0748C154.925 40.4248 154.75 41.4998 154.75 42.3248ZM140.3 52.4248C138.15 50.9748 142.45 39.7748 146.2 39.6748C145.775 40.3248 145.075 40.4748 144.05 42.1248C143.7 42.6748 143.55 43.1498 143.225 43.6748L142.375 45.1998C141.8 46.1748 141.4 47.2248 141.05 48.4498C140.95 48.7998 140.9 48.9498 140.825 49.3998C140.65 50.3498 140.325 51.2498 140.3 52.4248ZM29.6999 47.4248C29.7499 45.6998 33.3499 42.2498 34.5499 41.3748C35.5999 40.6498 36.9249 40.1248 38.0999 39.5248C40.3249 38.4248 40.3499 37.7748 41.2499 37.1498C41.2499 38.3748 40.7499 38.6748 39.6749 39.5248C38.2249 40.6748 37.1499 41.2498 35.5999 42.4248C35.0999 42.7998 34.6499 43.1498 34.0999 43.5498L29.6999 47.4248ZM59.2499 38.7748C59.0499 38.3748 58.9749 38.2498 58.6499 37.9248L57.9749 37.2748C57.9499 37.2498 57.9249 37.2248 57.8999 37.2248C57.4249 36.7998 56.8749 36.2498 56.2499 35.9998C55.4749 35.6748 52.4999 34.6748 51.8749 35.5248C52.8499 35.5998 55.7499 36.9248 56.5999 37.4998C57.2749 37.8748 58.5249 38.5998 59.2499 38.7748ZM29.1749 41.1248C29.4499 41.0248 29.2999 41.0748 29.4999 40.9248C29.8249 40.6998 31.2999 39.2248 33.0999 37.9748C35.3499 36.3998 36.7499 36.3498 36.7749 34.6998C33.6999 34.6998 29.5249 39.8748 29.1749 41.1248ZM177.35 37.0498C177.35 35.9748 177.775 34.9248 178.3 34.3248C178.725 33.8498 179.925 32.9998 180.75 32.9748C180.7 33.0248 180.675 33.0998 180.6 33.2248C180.2 33.7498 179.45 34.1998 178.175 35.9248C177.875 36.2748 177.625 36.8498 177.35 37.0498ZM30.0999 34.9498C31.0249 33.1998 31.7999 32.5748 33.8999 32.5748C33.8749 33.1998 33.8249 33.2498 33.3249 33.4498L31.1249 34.4248C30.7749 34.6248 30.5749 34.8498 30.0999 34.9498ZM48.8749 31.5498C49.7999 31.5498 51.3249 31.3748 51.9749 31.4748C53.0999 31.6498 53.6749 31.6248 54.9249 31.6748C56.8749 31.7748 60.5249 32.8998 62.0999 34.1998C62.6999 34.6998 63.1499 35.1748 63.7999 35.6748C64.4499 36.1748 65.8749 38.3748 66.8749 39.0248C66.8749 37.0248 66.2499 36.1998 65.0999 35.2998C61.3999 32.4248 62.8999 33.1498 58.2999 31.0748C56.2999 30.1498 50.0249 29.9748 48.8749 31.5498ZM41.3999 29.5748C41.9999 28.6748 44.0749 27.0748 45.4249 26.7498L49.9249 26.1498C51.7749 26.2748 52.7749 26.2998 54.5499 26.6748C55.4499 26.8748 56.5249 26.9998 57.3999 27.2248C57.7249 27.2998 60.3249 28.4498 60.7999 28.9248C61.0999 29.2248 61.3749 29.4998 61.4749 29.9498C60.7499 29.7748 59.8999 29.3248 59.2499 29.0248L55.6749 27.7498L51.4999 27.0498C44.6249 27.0748 42.9749 29.1998 41.3999 29.5748ZM89.3499 26.8248L89.2249 26.9498L89.3499 26.8248ZM174.45 35.8748C174.45 34.3498 174.6 32.9748 175 31.8248C176.05 28.6998 179.225 26.0248 183 26.0248V25.7498C182.525 25.6498 182.375 25.4748 181.825 25.4748C179.375 25.4748 177.65 26.5748 176.35 27.9998L174.775 30.2498C174.1 31.5998 173.675 33.4998 174.1 35.0498L174.45 35.8748ZM116.8 22.7498C117.05 23.2498 117.3 23.7248 117.325 24.4498C119.2 24.5998 123.475 28.9998 122.975 31.1498H122.575C122.7 30.5748 122.675 30.6998 122.3 30.2498C121.3 29.0748 118.475 25.9248 117.325 25.6248C117.25 25.7748 116.925 27.2248 116.925 27.4748C116.925 27.5998 117.8 28.1498 118 28.3498C119.175 29.4748 119.475 30.0748 120.25 31.6248C120.7 32.4998 122 35.4748 121.525 36.5248C121.275 37.0998 121.525 36.8498 121 36.9248C121.675 35.5248 118.325 29.6748 116.15 29.1748C115.25 30.5248 114.925 30.3748 116.35 33.6998C118.15 37.8998 121.125 37.0248 121.125 41.1248C121.65 40.5248 122.025 40.0748 123.05 39.8998C123.9 39.7498 123.85 40.0498 124.075 39.3498C125.05 36.3248 125.75 35.1748 125.75 31.9498C125.75 30.1748 123.75 27.3998 122.5 26.1248C121.575 25.1998 121.15 24.7498 119.925 24.0998C119.325 23.7748 117.35 22.7998 116.8 22.7498ZM89.3499 26.8248C89.6499 26.6248 89.7999 26.4748 90.0249 26.1998L90.3249 25.8498C92.7749 23.2248 95.4249 21.8748 98.9249 21.0498C100.5 20.6748 102.05 20.3998 103.25 21.0498V21.6998C101.35 22.9748 98.1749 21.7748 92.4749 26.5498L90.5999 28.4748C89.0749 30.2498 86.8499 33.0998 87.6499 35.5998C87.7749 35.9998 88.0249 36.6998 88.2499 37.0998L88.8499 38.0748C88.9499 38.2248 88.9999 38.2748 89.0749 38.3748C89.0749 35.9498 90.2999 33.2748 91.3499 31.8498C92.5499 30.1748 92.9999 29.6748 94.4999 28.2998L98.5499 25.7748C99.5249 25.2748 100.475 24.8748 101.625 24.4998C103 24.0498 108.025 22.6248 108.025 25.0998C107.1 25.2998 106.95 24.7748 104.4 25.4248C103.35 25.6998 102.275 26.0248 101.375 26.4748C99.4749 27.3998 97.8999 27.9998 96.1749 29.3998C94.8499 30.4748 93.1249 32.3248 92.2749 33.7748C90.5999 36.6748 90.6249 37.4748 91.2249 40.0748L91.3749 39.6998C91.6749 38.5998 91.4999 38.6498 92.3249 37.3748C93.2249 36.0498 93.2249 36.2748 94.0749 35.4498C94.6499 34.8998 95.4999 34.3498 96.1749 33.8748L98.4249 32.4498C100.75 31.1248 103.325 29.5498 105.975 28.9498C107.375 28.6248 108.125 28.5748 108.025 29.9498C107.275 30.1248 106.625 30.1748 105.85 30.3998C102.525 31.3498 99.8749 32.9248 97.0749 34.7498C96.2749 35.2748 94.8499 36.4498 94.3749 37.1748C100.675 35.6998 101.75 36.0748 107.75 33.1998L109.725 32.1498C110.55 31.6498 111.425 31.1248 112.2 30.5498L114.4 28.6748C114.9 28.0248 115.175 26.5248 115.4 25.5998C115.025 25.4998 114.75 25.1998 114.475 24.9498C113.05 23.7998 111.25 22.9498 109.425 22.5248C109.025 22.4248 108.5 22.2998 108.075 22.3248C107.475 22.3748 107.45 22.5998 106.875 22.3248C107.575 21.3748 109.825 21.3998 111.25 21.7498C112.775 22.1498 113.9 22.6248 115 23.3748C114.825 22.6248 114.55 22.3248 114.3 21.5748C113.4 19.0248 101.75 15.2748 92.4249 23.2498L90.4499 25.2248C90.4249 25.2498 90.3999 25.2748 90.3999 25.2998C89.9999 25.7248 89.4749 26.2748 89.3499 26.8248ZM17.6249 72.6498C17.2249 72.5498 16.9749 72.2248 16.5999 71.9748C16.2249 71.7248 15.9499 71.5248 15.5749 71.2998C15.0499 70.9998 13.7749 70.1998 13.0499 70.6998C11.7499 71.6248 13.9499 74.6498 14.3499 75.3998C11.8249 74.7998 12.0749 77.5998 14.2499 80.0998C15.9249 82.0248 14.9249 81.5498 15.9749 83.4998C16.3749 84.2498 16.8999 84.8248 17.4499 85.4498C17.9749 86.0248 18.6249 86.5748 19.2999 87.0248C21.2499 88.3498 22.3249 88.3498 24.0749 89.1998C23.5999 89.8498 17.7249 92.0748 15.4499 94.7498C14.2749 96.1248 13.7999 97.6748 13.2999 99.6998C12.5749 102.775 11.7749 110 12.1499 112.8C12.4249 114.825 12.4749 117.2 12.6499 119.4C13.1999 126.425 14.5749 136.35 18.8249 141.725C19.3999 142.45 20.9999 143.7 21.2999 144.5C21.4999 145.025 21.6249 145.275 21.8499 145.8C23.0999 148.9 22.3999 151.5 21.3749 154.575C20.4249 157.5 18.4999 161.225 20.2999 164.15C21.2999 165.775 20.3749 166.575 20.0249 168.3C19.8249 169.275 19.5249 170.45 19.5999 171.4C19.6749 172.325 20.4249 173.25 21.0249 173.65C20.8999 175.225 20.6249 177.075 20.4999 178.65C20.2499 181.9 19.8249 185.875 19.8249 189.025C19.8499 193.15 19.4999 202.475 19.9249 205.475C20.1249 206.85 19.9499 209.45 19.9499 210.95C19.9499 211.85 19.8749 212.8 19.9999 213.65C20.0999 214.275 20.1999 215.625 20.1999 216.2C18.1999 216.2 11.2499 215.9 9.9499 216.6V217.4C11.0249 218.125 12.2999 218.125 13.6249 218.2C14.2249 218.225 14.3499 218.325 15.0749 218.325C17.1249 218.325 19.1999 218.25 21.0499 218.525C22.2749 218.7 43.9749 218.675 45.3249 218.475L57.3749 218.3C61.5499 218.3 65.2999 218.175 69.4499 218.175C71.5999 218.175 73.2749 218.05 75.3499 218.05C76.4999 218.05 77.1749 218.2 78.2499 218.175C85.3249 218.125 92.2749 218.575 99.3999 218.575C101.55 218.575 103.425 218.7 105.45 218.7C109.625 218.7 113.375 218.825 117.525 218.825L128 219C128.4 219.1 128.5 219.475 129.2 219.35C129.9 219.225 129.575 218.7 131.775 219.025C133.125 219.225 141.575 219.15 143.8 219.2C144.45 219.225 144.5 219.375 145.075 219.325C148.5 219.05 152.125 219.1 155.6 219.075L158.475 219.225C162.325 219.65 172.975 219.625 176.5 219.35C178.325 219.2 180.65 219.375 182.55 219.35L183.225 219.25C183.825 219.05 184.65 219.1 185.2 219.175C186.05 219.3 187.425 219.2 188.325 219.2C189.375 219.2 190.45 219.375 190.95 218.8C191.7 217.975 190.85 217.25 189.9 217.225C187.9 217.15 186 217.1 183.85 217.1L185.95 209.075C185.975 208.775 185.95 208.525 185.975 208.2C186.1 207.3 186.575 206.075 186.6 205.025C188.75 205.025 189.45 203.15 190.925 202.125C191.3 201.875 191.7 201.75 192.15 201.525C192.7 201.25 192.775 201.125 193.225 200.75L193.75 200.225C195.075 198.75 195.375 198.875 196.525 196.7C197.925 194.075 198.95 191.7 199.35 188.5C199.525 187.15 199.425 180.7 199.175 178.775C199.125 178.45 199.05 178.4 198.975 178.05C198.775 177.175 198.775 175.575 198.8 174.55C198.8 171.825 198.4 171 198.675 167.6L198.95 162.35C199.2 160.225 199.075 157.675 199.35 155.525L200.7 142.175C200.95 140.45 201.15 138.8 201.15 137.1C201.15 136.3 201.275 136.15 201.3 135.4L200.775 126.725C200.575 124.45 200.875 121.75 200.625 119.525C200.375 117.375 200.525 114.65 200.525 112.275L200.35 106.95C200.275 106.4 200.15 105.85 200.15 105.325C200.525 105.575 200.325 105.6 200.8 105.725C201.3 104.775 201.8 103.825 202.25 102.825C202.575 102.1 203.175 100.4 203.175 99.4248C202.1 98.6998 202.225 98.7748 201.3 97.6248C199.35 95.1748 197.175 92.8998 195.1 90.5748C194.45 89.8498 195.625 91.1498 194.975 90.4248C194.125 89.4998 193.225 88.6998 192.425 87.6998C191.55 86.5998 188.5 84.3748 188.325 84.1748C190.25 84.1248 192.85 82.9748 194.45 82.0248C194.975 81.7248 195.575 81.2248 196.05 80.8498C197.125 79.9748 198 79.1998 198.725 77.9998C199.575 76.5498 199.85 74.5748 197.55 75.1248C198.325 73.9748 199.275 73.0748 199.75 71.6748C200.4 69.7248 199.55 68.8498 199.775 68.1748C200.125 67.1498 200.675 65.3748 199.55 64.8498C197.8 64.0248 195.675 67.5248 194.525 68.2998C194.75 67.4498 198.45 64.2498 195.5 62.5998C194.325 61.9498 193.7 62.7498 193.025 63.3748L191.9 64.6248C191.7 64.8998 191.525 65.1748 191.275 65.4498C190.2 66.6748 188.85 68.4998 187.575 69.3498C188.9 63.6498 185.7 61.6748 184.425 63.0498C183.85 63.6498 183.775 65.0748 183.65 66.0998C183.375 68.3748 182.9 70.1498 182.275 72.0748L181.15 74.6248C180.7 75.4498 180.1 76.0748 179.575 76.8498C178.425 76.2498 178.025 75.0498 177.075 75.5248L175.875 76.4248C175.425 76.7498 175.125 76.9748 174.675 77.3248L170.375 80.3748C170.025 80.6498 170.2 80.6498 169.725 80.7748C169.6 80.2998 169.375 80.2248 169.025 79.8998C168.6 79.4748 167.675 77.2498 167.625 76.2998C167.525 73.9498 167.325 72.1748 167.85 70.0998C168.15 68.8748 168.925 69.3998 170.125 69.0998C172.65 68.4498 175.325 66.0498 176.275 63.6998C176.375 63.4498 176.375 63.3748 176.5 63.1498C176.725 62.6998 177.025 62.5998 177.325 62.2748L178.325 60.7748C179.9 56.9498 181.075 50.9748 180.425 46.6998L179.825 43.8998C180.275 43.8998 180.9 43.7998 181.525 43.7748C184.775 43.5498 187.975 40.7998 188.9 37.7498C191.525 29.0748 183.575 21.0748 175.95 24.1498C172.725 25.4498 170.675 28.2748 170.1 31.6998C169.925 32.6748 169.85 34.4498 170.25 35.2748C170.1 35.2498 166.75 33.8998 163.525 33.5748C159.425 33.1748 156.225 33.7248 152.75 35.1248C152.225 35.3248 151.75 35.4748 151.3 35.7748C150.675 36.1748 150.675 36.4748 149.975 36.1248C146.125 34.2248 141.275 35.6998 138.4 38.7498L137.025 40.5248C136.725 40.9248 136.45 41.2748 136.15 41.7498C133.525 46.0998 133.5 52.5248 136.425 56.7248C136.75 57.1998 137.125 57.5248 137.275 58.1248C136.775 58.6748 136.4 58.7748 135.65 59.1248C134.975 59.4498 134.225 59.5248 133.85 60.0998C134.35 60.6498 134.325 60.4498 135.175 60.3748C135.85 60.3248 136.1 60.2498 136.725 60.0748L138.625 59.2248C140.825 58.0248 141.45 57.4498 143.3 55.6248L145 53.6498C146 52.4498 149.1 48.1748 149.225 46.7248H149.5C150.025 48.9498 152.625 51.3748 154.375 52.4998C157.5 54.4748 160.5 55.4748 164.15 55.9998C164.75 56.0748 166.225 55.9248 166.675 56.0998C167.55 56.4748 166.775 59.7498 166.575 60.4748C165.9 62.8498 162.725 66.3748 162.65 67.1998C163.5 67.6498 164.625 67.0748 165.45 66.5748C167.475 65.2998 169.025 63.1248 169.725 60.8748C170.275 59.0998 174.9 57.3498 175.625 60.6998C175.975 62.2248 175.075 63.4498 174.35 64.2998C174.275 64.3998 174.175 64.4998 174.1 64.5748L173.375 65.2998C173.35 65.3248 173.325 65.3498 173.3 65.3498C172.35 66.1248 171.3 66.6998 170.05 67.0748C167.025 67.9998 166.7 67.9248 166.15 71.2998C166.05 71.9248 166.15 72.5498 166.075 73.1998C165.725 75.6498 165.85 76.1498 166.45 78.3998C166.575 78.8498 166.85 79.3498 167.075 79.7498C167.375 80.3248 167.6 80.5248 167.95 80.9748C169.1 82.4748 170.4 84.1748 172.425 84.6498C172.15 85.6498 168.05 91.1748 167.35 91.8998L166.05 93.3498C165.725 93.6498 165.575 93.6998 165.25 93.9998C164.275 94.8998 163.1 95.6748 161.8 96.1998C161 96.5248 160.65 96.6248 159.625 96.7748C158.625 96.9248 158.075 96.8998 157.2 96.8498C155.775 96.7498 153.825 96.2498 152.9 95.6498C151.625 94.8248 151.025 94.0748 150.525 92.4998C150.175 91.3998 149.825 88.7998 150.125 87.5248C151.175 87.5248 151.975 87.0248 152.625 86.5998C157.075 83.6248 155.8 83.2498 156.8 82.0998C157.175 81.6498 157.3 81.9248 157.8 81.2748C158.325 80.5998 158.875 80.1748 159.4 79.4498C159.9 78.7498 160.375 77.9998 160.775 77.2748C161.5 75.9248 162.825 73.6498 161.825 72.1498C161.275 72.4248 160.85 72.7998 160.35 73.1748C157.65 75.1998 155.5 77.5498 151.6 76.3248C150.975 76.1248 150.5 75.8498 149.9 75.5248C147.5 74.1998 145.025 71.3498 144 68.7998C142.825 65.8498 143.3 62.6748 143.275 59.6498C143.275 59.0748 143.55 57.7748 143.35 57.3498C142.95 56.4248 142.3 57.5748 142.25 58.0998C142.075 59.7998 142.15 66.2748 142.525 67.7748L143.825 71.5998L145 73.4498C145.025 73.4748 145.05 73.4998 145.05 73.5248C145.075 73.5498 145.1 73.5748 145.1 73.5998L145.925 74.4748C147.1 75.9248 147 75.9248 148.375 77.1498C149.7 78.3248 151.6 79.2748 153.45 79.5748C154.5 79.7498 155.075 79.4998 155.9 79.4998C155.9 81.4748 155.325 82.4748 154.15 83.6748C153.675 84.1498 153.7 84.2998 152.875 84.3748C151.625 84.4748 150.575 84.6248 149.375 84.8248C147.975 85.0498 147.3 85.2748 146.125 85.6498C145.4 85.8748 144.85 85.1748 143.675 84.4998C141.8 83.4248 135.975 79.3498 134.325 77.9498C133.625 77.3748 132.425 75.9748 131.8 75.6248C130.375 74.8248 129.1 73.5498 127.775 72.5498L123.275 69.0498C121.975 68.0498 120.65 66.9248 119.2 66.1498C118.8 65.9248 118.875 65.9748 118.325 65.9748C118.6 64.7748 118.05 64.4248 117.25 63.8998C114.225 61.8998 114.025 63.5498 113.625 60.6748C113.525 59.8748 113.7 59.7998 113.725 59.1248C113.75 58.4248 113.6 58.2998 113.6 57.5498C114.6 57.0248 115.425 56.0998 116.275 55.3748C116.525 55.1498 116.3 55.3748 116.55 55.1248C117.3 54.3748 118.025 53.6248 118.65 52.7498C118.975 52.2998 119.125 51.9998 119.4 51.5248C120.5 49.5248 119.675 49.8748 121.275 49.3248C122.3 48.9748 122.975 48.4748 123.8 47.8998C124.7 47.2748 125.125 46.7998 125.75 45.8998C126.3 45.1248 126.725 44.2248 126.825 43.0248C126.975 41.5498 126.175 41.2498 125.55 40.3248C125.95 38.5998 130.4 32.5498 125.775 26.8248C125.3 26.2248 124.875 25.7248 124.375 25.1998L122.8 23.7498C121.45 22.7248 119.65 21.8248 117.825 21.3498C116.9 21.1248 116.7 21.2248 116.2 20.4748C116.075 20.2748 116.225 20.4748 116.025 20.2498L115.425 19.6748C110.525 15.5248 101.55 15.9498 96.3749 18.4998C93.1749 20.0748 90.1999 22.1498 88.1749 25.1498C84.9999 29.8248 84.6249 35.1998 87.8249 39.7998C88.0499 40.1248 88.2999 40.3998 88.4999 40.6998C88.1499 40.8748 87.9499 40.7998 87.5749 40.9498C84.5749 42.1748 85.5999 46.3248 87.5749 47.9248C88.9749 49.0498 90.4749 50.2748 92.5749 50.2748C92.9249 51.8248 95.1249 54.3998 96.4749 55.6998L98.2249 57.0998C98.2249 57.7998 98.2249 58.4998 98.2249 59.1998C98.2249 59.5248 98.2499 59.9248 98.2249 60.2498C98.1999 60.8248 98.0999 60.7248 98.0999 61.2998C97.3249 60.9248 96.3999 62.2748 95.8999 62.7748C93.9499 64.6998 94.9749 64.0748 92.6749 65.4498C92.2249 65.7248 91.8499 65.8998 91.4249 66.1748C89.0249 67.7248 86.4249 69.0748 83.9749 70.5498C82.7249 71.3248 82.2249 70.9998 81.0749 71.5998C79.9999 72.1498 75.1249 76.7248 73.7499 78.0748C72.4249 79.3998 70.9499 80.4998 69.5999 81.8248C69.3999 82.0248 69.3499 82.0748 69.1249 82.2748L68.9749 82.3998C68.2499 83.0498 69.5499 81.8748 68.8249 82.5248C68.6999 82.6498 68.6499 82.6998 68.5499 82.7748C67.7999 83.4248 67.2499 84.0248 66.5499 84.7248C66.0249 85.2498 65.5749 85.7748 64.8499 85.9248C64.6499 85.9748 64.2749 85.9998 63.9499 86.0748C62.8749 86.2748 61.9749 86.8498 60.9999 87.0748C60.9999 85.8248 60.6499 84.2498 60.4249 83.0498C60.1499 81.6998 59.8749 80.4748 59.0749 79.6748C57.9499 78.5498 53.7749 77.6248 51.9499 77.4748C51.4499 75.3748 52.3499 76.7498 55.1999 75.3248C56.3249 74.7498 57.1999 74.0498 58.1249 73.2748L61.0999 69.7998C63.1249 67.0498 64.0749 63.7498 64.6249 60.4248C64.7749 59.4998 64.4499 59.0998 64.8249 57.9998C65.0749 57.2748 64.7749 56.3248 65.3249 55.7498C65.6499 55.4248 65.7749 55.3498 66.0249 54.9998C66.4499 54.4498 66.8249 53.9248 67.0999 53.1748C67.7999 51.2498 67.5249 50.3498 67.0749 48.4248L68.6749 46.5998C68.8499 46.3748 68.9999 46.1498 69.1499 45.8998C71.1999 42.6748 71.9499 38.8248 70.6999 35.0748C70.1249 33.3498 69.3999 31.9748 68.3749 30.5748C67.3749 29.2498 66.1749 28.1748 64.8749 27.0998C61.7999 24.5748 59.9249 24.0998 56.3249 22.9248C55.9249 22.7998 56.0749 22.9248 55.3999 22.9248C54.6499 22.9248 54.2749 22.5748 53.6249 22.4498C51.6999 22.0498 48.8749 22.2498 47.1249 22.5498C44.3999 23.0248 42.3999 23.7248 40.3499 24.9748C38.8999 25.8498 37.6499 26.8998 36.6249 28.1998L35.9249 29.1998C35.7249 29.4498 35.6499 29.5998 35.2999 29.4998C33.9999 29.1248 33.2749 28.5498 31.4999 29.1248C26.4499 30.7498 23.5499 35.2248 22.3249 40.1748C21.4499 43.7248 21.7499 47.3248 23.8249 50.3248C24.2249 50.9248 24.6999 51.1748 25.0749 51.7248C24.9249 51.9498 24.9249 51.9498 24.7249 52.1498C23.6749 53.1498 22.7499 54.3248 22.7249 55.9248C22.6999 57.1248 22.8249 57.9248 23.1999 58.7248C24.6499 61.7998 27.7749 63.5748 31.1249 63.9498C32.5499 64.0998 32.8499 64.0998 34.1499 63.7998C34.3999 64.8498 35.1999 65.9748 35.5499 68.0498L35.8749 70.4998C35.9749 71.3748 35.9749 72.2248 35.9749 73.2748C34.8999 73.3748 32.9749 74.1248 32.1249 74.5498C31.5249 74.8498 31.1499 75.1998 30.7749 75.6748C30.3499 76.1748 30.2999 76.9748 29.9499 77.4748C29.0999 73.8248 29.3249 74.8498 29.0499 71.1748C28.9499 69.9748 28.9749 68.3998 28.2749 67.4748C26.5999 65.2248 24.6999 67.8748 24.5749 70.9248C24.5499 71.7498 24.3249 72.8998 24.3249 73.6748C23.6999 73.2498 21.3749 70.5748 20.1499 69.5748C19.3749 68.9248 17.9999 67.1498 16.9999 67.2998C16.2499 67.3998 15.9249 68.2498 15.9499 68.9498C15.8749 70.2498 17.0249 71.7748 17.6249 72.6498ZM123.75 101.675L114.3 102.325C114.275 101.75 114.175 101.6 114.175 100.875C114.175 98.5498 114.625 90.3498 114.175 89.4498C117.9 89.4498 121 89.0498 124.675 89.0498C124.6 89.9248 124.3 90.9498 124.275 91.9248C124.25 93.0248 124.275 94.2248 124.275 95.3498C124.275 97.0748 124.15 100.025 123.75 101.675ZM112.45 98.7998C112.45 96.3498 112.575 94.1498 112.575 91.8498C112.575 89.9748 112.325 87.7498 113.75 88.0248C114.025 88.0748 113.825 88.0998 114.075 88.0748L115.05 87.8998C116.95 87.6248 119.55 87.4998 121.525 87.6498C122.925 87.7748 123.5 87.5998 124.75 87.9748C125.125 88.0748 125.65 88.3248 125.875 88.5498C126.575 89.2498 126.175 93.5998 126.1 94.4748C126.025 95.1998 125.85 96.4748 125.85 97.2498C125.8 100.3 126.25 102.55 124.25 103.25C123.275 103.6 117.65 103.775 116.025 104.075C111.9 104.775 112.45 102.025 112.45 98.7998ZM45.1999 62.6748L45.3499 62.9248C45.3499 62.9248 45.4999 63.0998 45.5499 63.1248C46.4499 63.8998 48.1249 64.5998 49.2499 64.9248C50.6999 65.3498 52.7499 65.6998 54.6499 65.6998C55.9999 65.6998 56.6749 65.3748 57.3999 65.2998C57.2499 64.9998 57.1249 63.0748 57.1249 62.5498C56.1499 62.5748 52.7249 63.1998 50.8249 63.1998C48.8999 63.1998 47.0249 62.8248 45.1999 62.6748ZM52.0249 61.6248C49.0749 61.6248 46.6999 61.0998 43.7499 61.0998C43.4999 61.0998 42.2499 61.6498 43.9749 63.0998C44.3249 63.3998 44.7249 63.7248 45.0749 63.9748C48.0249 66.0998 51.2249 66.7248 55.1999 66.7248C56.9249 66.7248 57.3499 66.5748 58.4749 65.7998C58.3999 64.9248 58.3249 66.2498 58.3499 64.2248C58.3499 63.5748 58.3499 62.8998 58.3499 62.2498C58.7499 62.0498 59.6749 62.0248 59.6749 61.4498C59.6749 60.2498 56.5249 61.3498 54.2999 61.4498C53.4999 61.5248 52.9749 61.6248 52.0249 61.6248ZM166.05 126.25C169.275 126.25 171.975 124.925 173.925 123.625C174.225 123.425 174.375 123.325 174.675 123.075L176.05 121.825C176.35 121.525 176.375 121.4 176.65 121.1C177.85 119.75 178.4 119.375 178.4 117.725C180.425 118.275 177.275 124.875 170.875 127C167.525 128.125 162.675 128.125 159.4 126.6C158.125 126 155.275 123.65 155.95 122.975C156.525 122.4 157.875 124.325 159.875 125.225C161.35 125.9 164.025 126.25 166.05 126.25ZM191.65 53.9998C191.65 52.8498 194.35 51.3248 195.275 50.7998C198.525 48.9998 200.625 47.8998 203.9 45.8998C204.65 45.4498 205.375 45.1248 206.1 44.6998C206.45 44.4748 208.45 43.3498 207.625 44.7498C207.325 45.2748 206.4 46.0748 205.925 46.4748C202.85 49.0998 196.575 52.1498 193.475 54.3998C192.225 55.3248 191.65 54.5498 191.65 53.9998ZM0.149902 46.7748C0.149902 46.4248 0.749901 46.1248 1.1249 46.1998C1.8249 46.3248 3.6499 47.6498 4.3999 48.0498C5.1749 48.4748 5.7749 48.8748 6.5249 49.3248L15.0499 54.4748C16.4499 55.3248 16.7499 55.1498 17.3499 55.4498C16.4249 56.7248 11.7499 54.3248 10.4999 53.7498C8.2499 52.7248 5.4249 51.1248 3.3749 49.8498C2.4499 49.2748 0.149902 47.9998 0.149902 46.7748ZM173.675 18.5498C173.675 17.6498 181.825 3.6248 181.825 6.5998C181.825 7.0998 176.225 18.3748 175.175 19.2748C174.8 19.5498 173.675 19.7998 173.675 18.5498ZM37.1999 19.8498C36.1999 19.7748 34.3749 18.0498 33.6499 17.4748L27.3749 10.7498C26.6999 9.8748 25.6249 8.7498 26.3249 8.0498C27.2249 7.1498 28.7999 9.27481 29.4999 10.1998L34.7999 16.4498C35.2499 16.9998 35.6249 17.4998 36.0999 18.0498C36.4749 18.4498 37.1499 19.2248 37.1999 19.8498ZM130.85 15.1248C130.85 13.9748 131.175 12.2498 131.35 11.2748C131.575 9.97481 131.775 8.9248 132.1 7.6748C132.4 6.4748 132.675 5.37481 132.975 4.19981C133.35 2.69981 133.45 1.2998 134.425 1.2998C135.375 1.2998 135.325 2.22481 135.175 2.94981C135 3.67481 134.825 4.19981 134.625 4.89981L131.825 14.5748C131.575 15.4248 131.525 16.1248 131.15 16.3998C131 16.1998 130.85 15.4998 130.85 15.1248ZM73.5749 1.07481C73.5749 2.67481 73.8749 3.47481 74.2249 4.8748C74.6999 6.7248 75.4499 9.3248 76.2749 10.9748C76.4499 11.2998 77.6749 13.6248 77.9499 12.9748L75.5749 3.24981C75.2749 1.79981 75.1999 0.424805 74.1999 0.424805C73.9249 0.424805 73.5749 0.774806 73.5749 1.07481ZM97.8749 49.7998C98.8499 49.7998 98.7749 49.7248 99.5749 49.5248L100.125 50.1498C100.8 50.6748 101.575 51.0998 102.4 51.4248C106.2 52.9248 109.925 51.9998 113.225 50.3248C113.9 49.9998 113.875 49.8998 114.35 49.8998C114.9 49.8998 115.425 49.9748 115.275 49.3248C115.275 49.2748 114.6 47.8998 113.45 49.1248C113.425 49.1498 113.4 49.1748 113.375 49.1998C112.425 50.1748 108.85 51.1248 107.55 51.1248C105.2 51.1248 103.9 51.2998 101.775 50.0748C101.05 49.6498 100.275 48.9498 99.6499 48.7748L98.7499 48.4998C98.1499 48.4748 96.8249 49.7998 97.8749 49.7998ZM26.0249 54.7998C26.0249 55.6998 26.3749 55.5248 27.1999 55.5998C27.7249 55.6498 28.2749 56.0498 28.5249 56.3748C27.9499 57.2248 26.8499 58.1498 27.5999 59.2748C28.0249 58.9748 27.9999 58.6498 28.4499 58.2748C28.8499 57.9248 29.1749 57.6998 29.5749 57.4248C29.9499 57.9748 30.2749 58.3748 30.6249 58.9998C30.7999 59.3248 30.9499 59.4998 31.0999 59.8248C31.3749 60.3998 31.0999 60.3998 31.5249 60.6998C32.6499 59.9498 31.2999 57.6498 30.8499 56.7748C28.8999 52.9748 26.0249 53.6498 26.0249 54.7998ZM42.9749 52.6998C42.9749 53.4748 43.0749 53.9498 43.3499 54.4248C44.0999 55.7498 45.3999 55.2998 45.9499 54.6248C47.2749 52.9748 45.9749 49.9498 44.6749 49.9498C43.5499 49.9248 42.9749 51.4998 42.9749 52.6998ZM56.8999 52.2998C56.8999 55.9748 60.1749 55.4248 60.1749 53.0998C60.1749 51.9748 60.3499 50.0748 58.4749 50.0748C57.5999 50.0748 56.8999 51.3748 56.8999 52.2998ZM50.7249 56.6248C50.7249 57.0998 50.8249 57.1998 51.3499 57.3248C52.0249 57.4998 51.8749 57.2748 52.2999 57.2748C54.1499 57.2748 53.6249 60.2998 54.5249 60.2998C55.4999 60.2998 55.6499 57.3998 54.5999 56.1498C54.5749 56.1248 54.3499 55.8998 54.3249 55.8998C53.1999 54.9998 50.7249 55.8498 50.7249 56.6248ZM169.075 64.3748C169.075 63.3748 169.85 62.3998 170.425 61.9248C171.85 60.7248 172.65 60.4248 174.1 61.0748C174.575 61.2748 174.725 61.3748 174.725 62.0248C173.575 62.0248 173.975 61.7248 172.625 62.0248C172.825 62.5498 172.675 62.0748 173.4 62.6998C173.775 63.0248 173.825 63.0498 173.825 63.7248C173 63.6498 171.45 62.3748 170.325 64.0498C170.15 64.3248 170.125 64.4748 169.975 64.7498C169.775 65.1248 169.925 65.0498 169.475 65.1748C169.075 64.8998 169.075 64.9748 169.075 64.3748ZM98.7999 41.1248C98.7999 42.0498 98.8499 43.6248 100.3 43.8248C101.2 43.9498 101.95 43.2248 101.95 42.0248C101.95 41.2998 101.5 39.6498 100.1 39.6498C99.3749 39.6748 98.7999 40.4498 98.7999 41.1248ZM111.15 41.2498C111.15 42.0498 111.125 42.5248 111.525 43.2498C112.4 44.8748 115.1 43.8998 113.625 40.8998C113.05 39.7998 111.15 39.6498 111.15 41.2498ZM153.3 68.8498C154.925 68.8498 155.575 68.0998 156.15 67.2498C157.4 65.4248 158.375 67.8748 155.4 69.1248C150.625 71.0998 148.825 68.0248 149.425 67.7498C149.75 67.5998 150.725 68.3248 151.075 68.4748C151.75 68.7498 152.425 68.8498 153.3 68.8498ZM155.8 59.1248C155.8 58.4248 156.275 57.4248 156.85 57.4248C157.975 57.4248 157.925 58.1998 158.025 59.2998C158.2 61.3248 155.8 61.8248 155.8 59.1248ZM149.375 63.3248C149.375 61.0748 154.85 61.0498 154.9 63.1998C154.425 63.1498 154.3 63.0248 153.775 62.8748C150.15 61.8998 150.25 64.1998 150.175 64.3748C149.825 64.3498 149.825 64.3248 149.525 64.2498L149.375 63.3248ZM146.35 58.8748C146.35 58.1248 146.5 57.9248 146.875 57.5498C147.95 57.6498 148.325 58.4998 148.325 59.6498C148.325 61.8998 146.875 61.4498 146.45 60.2248C146.3 59.8248 146.4 59.7748 146.225 59.3998C146 58.9498 146 59.2998 145.85 58.7248C146.15 58.5998 145.825 58.7248 146.35 58.8748ZM104.05 46.8998C104.05 48.4248 106.4 48.2248 107.2 48.2248C108 48.2248 108.4 47.8498 109.05 47.6998V47.2998C107.525 47.2998 106.375 47.5498 105.275 46.8748C104.8 46.5748 104.85 46.4248 104.325 46.3748C104.15 46.6248 104.05 46.6248 104.05 46.8998ZM152.375 70.9498C153.1 70.7748 153.375 70.8498 154.225 70.8248C154.8 70.7998 155.45 70.6748 155.925 70.5498C155.925 70.8248 156.075 71.0748 155.275 71.4748C154.6 71.7998 152.475 72.0748 152.375 70.9498ZM76.1999 124.525C76.2499 123.925 76.3999 123.575 76.7249 123.35C76.7249 123.975 76.8249 123.9 76.8499 124.4C76.5499 124.475 76.5499 124.5 76.1999 124.525ZM202.7 56.7498C201.95 56.3498 201.9 56.3998 201.775 55.9498C202.2 56.0748 202.575 56.3248 202.7 56.7498ZM71.7499 83.9498C71.7999 83.6998 71.9249 83.7498 72.1499 83.6748V84.0748C71.8749 84.0248 71.9249 84.0498 71.7499 83.9498ZM151.6 136.1C151.15 135.975 151.3 136.05 151.075 135.7C151.7 135.775 151.3 135.525 151.6 136.1ZM60.9749 138.075C61.0999 137.55 60.9999 137.675 61.3749 137.55C61.2499 138 61.2999 137.825 60.9749 138.075ZM79.6249 84.2248C79.5999 84.1998 79.6499 84.1998 79.6749 84.1748C79.6499 84.1498 79.6249 84.2248 79.6249 84.2248Z" fill="#101010"/>
</svg>
