<svg width="204" height="228" viewBox="0 0 204 228" fill="none" xmlns="http://www.w3.org/2000/svg">
<path fill-rule="evenodd" clip-rule="evenodd" d="M170.075 177.525C169.2 177.6 169.05 178.1 169.025 179.025C167.125 179.025 167 179.15 165.9 179.175C164.825 179.2 163.675 179.1 162.6 179.175L153.025 179.625C151.25 179.65 149.1 180.025 146.75 180.075C145.825 180.1 144.5 180.35 143.625 180.375L143.775 177.975C143.875 175.975 144.4 172.65 144.375 170.5C144.375 169.6 144.475 168.9 144.525 167.975L144.825 164.225C144.875 163.225 144.575 162.425 145.225 161.925C146.275 161.1 145.275 162.575 147.3 160.85C149.525 158.975 148.425 159.425 149.55 158.325L154.95 152.975C155.2 152.725 155.375 152.575 155.65 152.325L156.95 150.95C157.575 151.1 157.925 151.4 158.425 151.725L166.575 156.275C167.575 156.7 167.325 156.35 167.65 158.775C168.175 162.5 168.15 162.9 168.95 166.75C169.6 169.8 170.925 173.15 170.4 176.05C170.275 176.6 170.1 176.975 170.075 177.525ZM133 50.6495C133 51.0245 133.25 50.6995 133.1 50.6495C133.1 50.6495 133 50.2245 133 50.6495ZM115.675 52.5995C115.675 53.6245 116.075 54.8245 116.65 55.3495C117.85 56.4245 119.375 54.8495 118.35 51.8495C117.65 49.7995 115.675 50.0495 115.675 52.5995ZM120.15 59.0245C120.15 59.4995 120.55 60.2245 121.05 60.2245C122.025 60.2245 120.525 56.7245 126.375 58.0495C126.575 58.0995 126.925 58.1495 127.1 58.2245C127.225 58.2745 127.8 58.5245 127.85 58.5245C129.3 58.6245 126.975 56.3495 124.65 56.3495C123.375 56.3495 122.25 56.2745 121.175 57.1995C120.625 57.6495 120.15 58.4245 120.15 59.0245ZM129.575 52.8995C129.575 55.8245 132.725 56.0495 132.725 53.3495C132.725 52.5495 132.675 52.0245 132.55 51.2995C132.175 49.2995 129.575 50.0745 129.575 52.8995ZM148.85 60.4995C148.85 60.9495 149.175 61.1995 149.45 61.3995C150.675 61.0745 150.35 57.4745 154.45 58.7995C155.225 59.0495 154.875 59.2495 155.725 59.4495C155.725 58.2245 155.375 57.5745 153.775 57.1995V56.8995C154.45 56.8495 154.675 56.4995 155.375 56.5245C156.25 56.5495 156.4 56.8495 157.05 56.8995C157.3 55.8495 156.125 55.3245 155.225 55.1495C152.325 54.5495 148.85 58.0995 148.85 60.4995ZM1.05 123.125C1.05 124.7 4.3 126.575 5.675 127.3C6.325 127.65 6.925 128 7.625 128.35C8.275 128.675 8.825 128.975 9.55 129.275C11 129.85 19.275 133.025 13.375 129.2L2.675 122.1C1.925 121.825 1.05 122.125 1.05 123.125ZM150.5 122.375C150.5 123.25 151.125 124.15 152.55 122.925L165.925 110.75C166.4 110.225 169.05 106.875 166.55 108.675C163.25 111.05 161.9 111.85 158.475 114.5C157.7 115.1 157.075 115.65 156.35 116.25C154.8 117.5 153.525 118.5 152.1 119.925C151.775 120.25 151.4 120.55 151.15 120.925C150.95 121.225 150.5 122.025 150.5 122.375ZM52.475 104.75C52.925 104.75 53.525 104.2 53.525 103.85C53.525 103.15 50.85 98.0245 50.025 96.2745L46.35 88.7495C45.925 87.8995 45.55 87.1495 45.125 86.2495C44.975 85.8995 44.75 85.3995 44.55 85.0245C44.3 84.4745 44.275 84.1495 43.65 83.9745C43.225 84.8745 44.975 89.8495 45.4 91.1745C45.6 91.7745 45.725 92.0495 45.9 92.6245C46.65 94.8495 50.35 104.75 52.475 104.75ZM79.075 96.9745C80.575 96.9745 80.175 95.3745 80.125 93.6995C80.025 90.7245 79.65 88.1745 79.525 85.6245L78.675 75.7245C78.375 73.3745 78.3 70.2745 77.975 67.7495C77.825 66.7245 78.175 66.2745 77.3 66.1995C77.275 67.2495 76.95 68.8495 76.85 69.9495L76.75 72.8995C76.775 73.1245 76.875 73.4745 76.85 73.9745C76.85 74.7245 76.675 74.9995 76.675 75.9245C76.675 76.8245 76.8 77.1495 76.825 77.8745C76.9 79.2495 76.825 80.8245 76.825 82.2245L77.7 94.0495C77.825 94.9245 78.25 96.9745 79.075 96.9745ZM135.4 62.5995C135.4 63.7995 135.125 64.5245 134.625 65.2745C134.1 66.0745 133.525 66.8495 132.8 67.4745C132.775 67.4995 132.75 67.5245 132.725 67.5495L128.825 69.9245C127.325 70.4995 124.75 70.7495 122.65 70.4495C120.725 70.1745 118.975 70.1745 118.975 67.0995C119.4 67.1995 119.725 67.4745 121.075 67.8245C121.925 68.0495 122.525 68.1495 123.6 68.1495C125.375 68.1495 127.675 68.2995 128.375 67.2495C127.475 66.8245 125.125 67.1745 123.9 67.0995C122.95 67.0495 120.675 66.6745 120.025 66.3495C120.2 65.6245 120.175 65.2995 120.175 64.3995C122.325 64.3995 121.125 64.6745 124.375 64.3995C128.2 64.0995 131.425 62.6745 134.675 60.9495C134.45 61.8745 134.1 62.5995 133.675 63.3995C133.45 63.8245 133.25 64.0995 132.925 64.4495C132.75 64.6245 132.575 64.7495 132.45 64.8745C132.05 65.2995 132.225 64.6995 132.125 65.4495C134.475 64.8995 134.65 63.1495 135.4 62.5995ZM135.4 59.7745C135.25 59.0995 135.1 59.2995 134.95 58.7245C136.15 58.7495 136.6 60.3995 136.6 61.4245C136.6 64.6745 136.575 62.8745 136.05 65.1995C135.75 66.4495 134.975 67.5995 133.975 68.3495C133.425 68.7745 133.225 69.0745 132.625 69.5245C130.6 70.9995 128.1 71.8745 124.65 71.8745C123.35 71.8745 120.025 71.1745 119.225 70.7245C117.925 70.0245 117.525 67.1745 117.5 66.0245C117.975 65.6995 118.025 65.5745 118.85 65.5745C118.85 63.5745 118.975 63.9495 117.975 63.5995C117.7 63.4995 117.325 63.3995 116.975 63.2745C116.3 63.0245 115.725 62.1745 115.725 61.8495C115.725 59.9495 116.9 61.6745 117.4 61.9495C119.675 63.1745 123.1 63.0745 125.725 62.8745C126.15 62.8495 126.65 62.7245 127.15 62.6495C130.85 62.1245 130.625 61.5745 133.225 60.6495C134.275 60.2495 134.525 59.9745 135.4 59.7745ZM4.5 80.9745C4.5 81.6495 5.425 82.7495 6.05 83.7745L10.05 90.0745C10.2 90.2995 10.3 90.4745 10.45 90.7245C10.65 90.9995 10.675 91.0245 10.875 91.3495L17.75 101.05C18.075 101.475 18.275 101.75 18.575 102.15L24.9 110.45C25.55 111.25 26.075 111.9 26.7 112.675L31.625 118.2C31.825 118.425 32.475 119.3 32.775 118.725C32.9 118.475 31.65 116.675 31.375 116.225L28.95 112.525C28.75 112.2 28.725 112.175 28.525 111.9L8.55 83.1745C7.875 82.2495 6.375 80.1995 5.25 80.1995C4.9 80.2245 4.5 80.6245 4.5 80.9745ZM23.625 165.7C23.625 165 25.575 165.25 26.325 165.25L41.75 165C42.975 164.825 45.05 165.025 46.35 164.95C47.025 164.925 47.075 164.8 47.85 164.8C49.875 164.775 52.1 165.025 54.05 164.725L78.65 164.225C79.425 164.225 79.525 164.525 80.15 164.525C81.775 164.525 81.5 163 81.5 170.05V188.275C81.5 189.7 81.65 190.55 81.65 191.85C81.6 202.45 81.95 212.925 81.95 223.674C74.925 223.674 67.8 224.1 60.875 224.125C60.1 224.125 59.95 224.225 59.375 224.275H54.15C53.4 224.3 53.4 224.4 52.675 224.424H49.375C48.7 224.45 48.55 224.575 47.725 224.575H42.625C41.875 224.6 41.8 224.725 41 224.725C36.4 224.775 32.075 225.025 27.55 225.025C26.875 223.775 26.65 218.275 26.65 216.2C26.65 215.325 26.525 215.1 26.5 214.4L26.35 210.525C26.375 207.875 26.05 205.55 26.05 202.9L23.8 169.575C23.75 168.2 23.625 167.225 23.625 165.7ZM138.075 222.2C133.5 222.2 129.275 222.5 124.625 222.5C123.325 222.5 122.475 222.65 121.35 222.65L107.75 222.95C107.2 222.95 106.65 222.925 106.1 222.95C105.3 222.95 105.225 223.1 104.475 223.1C103.35 223.125 102.15 223.1 101.025 223.1C99.7 223.1 99 223.25 97.75 223.25C93.2 223.225 88.7 223.549 84.15 223.549C84.15 222.125 84 221.325 84 219.975C84.025 211.3 83.55 202.2 83.55 193.675L83.375 182.5C83.15 180.525 82.8 165.2 82.8 163.95C83.825 163.725 85.425 163.725 86.675 163.8L90.7 163.95C107.75 163.95 124.525 163.65 141.65 163.65C142.375 163.65 142.15 164.8 143.45 163.95L141 189.225C140.425 193.125 140.275 200.1 139.775 203.85L139.275 211.25C139.225 211.7 139.175 212.425 139.1 213.025L138.7 218.75C138.675 219.5 138.575 219.674 138.55 220.549C138.525 221.674 138.275 221.475 138.075 222.2ZM35.725 140.3C35.725 139.775 35.825 139.725 35.875 139.25L31.85 139.4C31.2 139.425 30.425 139.4 29.75 139.4C28.875 139.4 28.725 139.525 27.975 139.55C27.3 139.575 26.55 139.5 25.875 139.55C25.2 139.6 24.825 139.7 23.925 139.7L20.05 139.85C17.7 139.925 14.175 139.825 12.075 140.1L4.05 140.3C4.5 140.975 5.075 141.6 5.6 142.325C5.9 142.725 6.075 142.95 6.4 143.325C6.7 143.7 6.825 144 7.15 144.35L17.375 157C17.675 157.375 17.875 157.6 18.2 157.975C18.5 158.35 18.7 158.625 19 158.975C21.6 162.2 20.75 160.1 22.5 162.5C22.725 162.8 22.95 163.2 23.25 163.4C23.975 163.85 28.55 163.3 29.775 163.3C33.375 163.3 36.65 163 40.1 163C40.675 163 41.325 163.025 41.9 163C42.575 162.975 42.625 162.85 43.4 162.85C45.85 162.825 47.9 162.7 50.275 162.7C58.875 162.7 69.075 162.175 77.625 161.95C79.35 161.9 79.375 161.5 80.775 161.5C81.65 161.5 81.65 161.55 82.05 161L85.85 156.125C85.7 155.6 83.275 152.9 82.75 152.35L79.1 148.075C78.9 147.825 78.9 147.775 78.625 147.5L73.475 141.3C69.95 137.25 71.9 137.925 67.9 137.9C66.9 137.9 66.55 138.05 65.675 138.05C64.125 138.075 56.125 138.225 54.85 138.425C53.45 138.65 51.9 138.325 50.475 138.525L46.25 138.8C45.55 138.8 44.7 138.75 44 138.8C42.2 138.925 42.2 139.975 40.45 141.975C38.025 144.675 35.725 144.45 35.725 140.3ZM175.45 130C175.55 131.325 178.9 137.475 180.125 139.375C180.425 139.825 180.6 140.3 180.85 140.75C180.375 140.65 180.2 140.55 179.75 140.375L171.45 137.625C171.575 137.1 172.15 136.375 172.45 135.775C172.8 135.05 173.075 134.5 173.45 133.775C173.8 133.075 174.075 132.55 174.425 131.9C174.725 131.275 175.15 130.2 175.45 130ZM104.625 147.775C104.625 146.15 106.5 143.725 106.75 143.175C107.35 141.85 106.975 142.2 107.95 141.1L109.025 139.925C109.25 139.725 109.1 139.825 109.35 139.65C109.5 139.525 109.525 139.5 109.6 139.45C110.025 139.075 110.325 138.775 110.75 138.35C111.075 138.025 111.65 137.6 111.825 137.35C106.925 137.35 108.225 137.65 102.85 137.2L93 149.625C92.575 150.2 92.2 150.65 91.75 151.2L83.25 162.125C97.35 162.125 111.45 162.125 125.55 162.125H141.4C142.8 162.15 142.7 162.225 143.35 161.375C144.45 159.875 147.4 157.575 149.025 156.45C150.35 155.525 149.55 156.1 150.325 155.225L152.875 152.525C153.4 152 153.65 151.6 154.15 151.1C154.575 150.675 155.15 150.35 155.3 149.725L152.225 148.025C151.1 147.35 148.4 145.525 147.825 144.65C146.05 145.05 144.05 145.5 142.625 146.475L137.25 151.425C135.5 153.175 132.525 154.225 129.75 154.225C129.225 154.225 129.175 154.125 128.7 154.075C128.35 154.6 127.9 154.9 127.375 155.3C126.4 156.05 126.825 155.625 125.625 155.95C125.125 156.075 124.5 156.5 123.85 156.725C120.825 157.8 121.45 156.775 119.925 156.975C118.25 157.2 117.7 158.725 114.5 158.725C110.55 158.725 113.2 153.575 114.025 152.275C114.825 151.025 115.525 149.875 116.375 148.65C117.225 147.45 120.95 142.4 121.225 141.4C120.75 141.65 115.525 145.5 114.25 146.225C110.825 148.2 112.55 147.5 110.15 149.45C109.825 149.7 109.7 149.9 109.375 150.15L108.425 150.7C106.35 152.1 104.65 149.475 104.65 148.55V147.775H104.625ZM37.825 140.9C37.825 139.4 37.675 138.95 38.225 137.85C39.05 136.25 37.725 138.475 38.7 135.35C39.875 131.6 40.9 129.825 44.45 131.875C45.3 132.35 45.625 132.55 46.3 133.175C47.8 134.575 47.875 135 48.875 136.875C48.075 136.875 47.275 136.875 46.475 136.875C45.525 136.875 45.225 137.025 44.25 137.025C44.325 136.15 44.5 136.375 44.1 135.525L43.575 135.725C43.55 135.75 43.5 135.775 43.475 135.775L42.35 136.6C42.2 136.725 42.1 136.8 41.95 136.95C41.125 137.7 42.575 136.325 41.8 137.1C40.725 138.2 41.2 138 39.45 139.525C39.15 139.8 38.925 139.925 38.625 140.2C38.275 140.5 38.2 140.65 37.825 140.9ZM176.5 127.3C176.7 127.75 176.575 127.625 176.875 128.1C177.1 128.45 177.125 128.45 177.35 128.825L179.775 133.575C180.05 134.15 180.275 134.6 180.575 135.175L183.675 141.475C184.05 142.225 184.2 142.175 184.975 142.575C186.325 143.225 192.95 146.875 193.1 148.5C191.5 148.875 189.3 147.125 187.875 146.4C187.3 146.125 186.8 145.85 186.175 145.55C185.55 145.225 185.1 144.925 184.4 144.775C183.3 144.55 183.7 144.325 182.725 143.925L178.2 142.175C177.875 142.05 177.675 141.975 177.325 141.85C173.55 140.425 169.7 139.525 165.975 138.125C165.325 137.875 164.825 137.775 164.175 137.525C163.475 137.25 163 137.125 162.275 136.875L152.95 133.65C151.75 133.25 150.575 132.85 149.25 132.425C148.575 132.2 148.1 131.95 147.4 131.725C146.8 131.525 146.15 131.25 145.575 131.025C144.9 130.75 144.5 130.475 143.85 130.2C143.3 129.975 142.675 129.775 142.075 129.6C139.45 128.825 136.95 127.55 134.1 127.55C130.6 127.55 126.2 129.15 122.925 130.125C120.075 130.975 117.125 131.45 114.075 131.425C113.2 131.425 111.375 131.225 111.375 132.025C111.375 132.975 111.8 133.675 112.475 134.225C114.475 135.9 114.7 134.85 116.475 133.675C117.2 133.2 117.925 132.775 118.675 132.3C118.925 132.15 124.975 129 124.975 130.975C124.975 131.775 124.325 131.875 123.6 132.15C123.025 132.375 122.575 132.55 122.025 132.825C117.35 135.175 114.35 137.825 110.375 140.9C109.925 141.25 109.675 141.525 109.3 141.925C108.8 142.425 108.675 142.65 108.4 143.275C108.225 143.65 107.95 143.75 107.7 144.075L107.5 144.475C106.55 146.6 105.475 148.6 108.075 149.975C108.125 149.375 108.225 149.425 108.625 149.025C109.15 148.525 110.375 147.025 110.9 146.825V146.525C108.675 145.925 111.9 143.65 111.35 146.075C111.675 145.85 111.7 145.775 112 145.525L118.625 141.55C119.175 141.25 119.625 140.975 120.15 140.675C121.225 140.025 122.075 139.35 123.475 139.35C123.45 140.275 122.75 140.95 122.325 141.8C120.425 145.6 117.975 149.05 115.65 152.6C115.125 153.425 114.325 154.375 114.025 155.3C113.9 155.675 114 155.425 113.975 155.575C113.825 156.15 112.825 157.425 114.35 157.425C116.95 157.425 116.525 156.725 116.95 156C117.325 155.35 121.375 151.475 122 150.9L123.875 149.325C125.075 148.3 126.3 147.275 127.3 146.025C127.725 145.475 128.525 144.8 128.7 144.15C125 143.85 124.375 141 125.85 141C126.25 141 126.975 141.55 127.425 141.8C128.6 142.475 130.9 143.55 132.125 143.825C131.875 144.775 130.5 144.25 129.775 144.45C129.275 144.575 127.925 146.025 127.55 146.55L127.075 147.4C125.375 150.4 121.8 152.725 120.35 154.825C122.325 155 122.75 155.075 124.775 154.5C126.175 154.1 127.125 153.3 128.2 152.4C128.225 152.375 128.25 152.35 128.275 152.325C128.3 152.3 128.325 152.275 128.35 152.25L129.65 151C130.175 150.45 130.6 150.2 131.15 149.65L133.175 147.475C133.4 147.2 133.6 147.075 133.85 146.8C134.4 146.25 134.475 145.875 135.15 145.425C134.175 143.975 134.575 144.525 134.85 143.475C135.875 143.475 136.45 143.85 137.4 144.075C137.65 143.7 137.85 143.3 138.3 143.175C138.275 143.775 138.225 143.725 138 144.075C138.9 144.075 140.1 144.1 140.7 144.375C139.875 145.6 138.7 145.725 136.675 145.725C136.4 146.925 134.65 148.25 133.8 149.125C133.425 149.5 133.325 149.575 132.925 149.875C132.375 150.325 130.7 151.575 130.55 152.15C131.55 152.15 132.425 151.8 133.225 151.525C135.475 150.775 136.85 149.075 138.5 147.4L140.975 145.1C142.625 143.8 144.25 143.175 146.825 143.175C147.25 141.55 149.7 144.125 152.2 145.55C152.65 145.8 152.975 145.975 153.45 146.225C153.925 146.475 154.275 146.675 154.725 146.9L159.7 149.7C160.575 150.225 161.25 150.675 162.1 151.175C163.725 152.175 165.5 152.95 167.175 153.875L171 155.875C171.45 156.125 171.775 156.3 172.275 156.55C173.225 157.025 173.925 157.4 174.825 157.9C176.575 158.85 178.05 159.8 179.95 160.55C185.075 162.575 187.975 162.575 193.625 162.575C197.025 162.575 199.45 160.3 200.55 157.55C200.8 156.9 201.225 155.15 201.25 154.375C201.475 149.175 200.775 145.625 199.375 140.725C197.925 135.65 196.1 130.775 194.425 125.8C193.55 123.175 192.15 119.65 191.525 117.05C190.975 117.2 190.075 117.925 189.6 118.275C188.975 118.725 188.4 119.1 187.725 119.525C184.6 121.625 181.625 123.9 178.5 125.975C177.8 126.475 177.2 127.125 176.5 127.3ZM99.075 132.525C99.075 138.6 100.975 136.875 99.4 138.825L89.025 152.05C88.6 152.575 87.4 154.225 86.975 154.475L80.525 146.45C80.075 145.9 79.775 145.675 79.675 145.225C80.35 145.55 86.425 146.4 87.75 146.425C88.8 146.45 89.85 146.425 90.9 146.425V145.975C90.1 145.75 87.525 144.525 85.525 144.475L89.825 134.725C90.075 134.125 90.375 133.675 90.6 133.1L92.75 128.225C93.25 127.05 93.75 126.075 94.225 124.925C94.625 123.95 96.325 119.975 96.85 119.325C97.15 118.95 97.15 119.075 97.2 118.475L99.125 121.05C99.425 121.4 99.65 121.55 99.9 121.925C100.475 122.85 100.625 123.475 101.55 124.775C101.825 125.15 102.05 125.3 102.3 125.675C101.1 127.325 99.075 129.875 99.075 132.525ZM129.125 110.125C128.6 111.125 128.575 112.375 130.025 112.375C130.575 112.375 131.525 110.85 131.825 110.425C135.275 110.425 137.375 110 140.25 108.7C140.725 108.475 140.825 108.4 141.225 108.2C142.525 107.525 143.575 106.725 144.675 105.825C147.1 103.85 149.05 101.375 150.925 98.9245C151.175 98.5745 151.325 98.4745 151.575 98.0995L155.95 90.6745C156.35 89.8745 156.425 89.3495 156.9 88.6245C165.55 88.6245 171.925 87.4745 178.925 93.7995L179.3 94.1495C180.875 95.5995 182.325 97.2245 183.7 98.8745C183.9 99.1245 183.9 99.1245 184.125 99.3495L185.775 101.125C187.1 102.7 188.8 104.125 190.2 105.65C190.225 105.675 190.25 105.7 190.275 105.725L195.7 111.075C196.075 111.45 195.925 111.175 196.05 111.625C195.525 111.75 194.875 112.125 194.425 112.4C192.875 113.4 191.275 114.3 189.775 115.375C187.4 117.125 184.825 118.65 182.55 120.55C182.25 120.8 182.2 120.825 181.875 121.05L178.25 123.825C177.3 124.6 176.35 125.275 175.475 126.15L172.9 128.65C172.9 124.825 172.6 121.525 171.525 118.075C170.875 116 170.55 115.45 169.025 115.8C168.725 117 169.35 118.025 169.75 119.85L171.325 127.1C171.6 128.425 171.825 129.525 173.05 129.85C172.8 130.95 171.325 133.85 170.85 135.275C170.675 135.8 170.35 136.75 170.35 137.325C169 137 167.325 136.3 165.975 135.875C164.5 135.4 163.05 134.875 161.65 134.35L155.075 132.1C151.35 131.025 147.45 129.975 143.85 128.55C142.4 127.975 141.15 127.45 139.65 126.925C135.575 125.45 133.775 125.325 129.5 126.225C123.6 127.475 120.4 129.425 114 129.4C111.95 129.4 109.225 129.6 109.225 132.25C109.225 132.775 109.425 133.575 109.625 133.95C109.875 134.45 110.375 134.675 110.575 135.25C108.35 135.25 103.525 134.6 101.45 135.7C101.45 131.95 101.65 130.225 103.375 127.625C103.625 127.25 103.975 127.125 104.175 126.825L104.225 126.675C104.225 126.65 104.225 126.6 104.25 126.575C104.3 126.375 104.2 126.575 104.325 126.3L107.55 121.775C109 119.45 111.625 116.45 111.625 113.6C111.625 112.8 111.075 112.4 110.425 112.4C109.625 112.4 109.55 114.225 108.875 115.65C107.85 117.85 106.675 119.8 105.225 121.725C104.75 122.35 103.675 124.075 103.1 124.525C102.175 123.85 101.975 121.025 100.75 120.15C99.825 119.5 96.1 112.2 96.1 109.725C97.925 108.5 99.6 106.425 101.425 105.025C101.725 104.775 101.775 104.7 102.05 104.45C102.375 104.175 102.475 104.15 102.8 103.85L105.5 101.45C106.075 100.875 106.225 100.725 106.875 100.3C106.875 101.15 107.1 101.95 107.925 101.95C109.175 101.95 109.15 99.2245 109.475 98.1245C109.675 97.4745 110.45 96.9495 110.9 96.5745C110.925 96.5495 110.95 96.5245 110.975 96.4995C111.875 95.7245 112.85 94.9245 113.9 94.3245C115.525 93.3995 118.2 92.1245 120.025 92.0745C119.625 92.8245 119.3 93.7745 119.275 94.8995C119.225 97.7245 119.075 98.6745 119.6 101.45C120.125 104.25 121.7 106.45 123.975 107.975C124.95 108.625 127.75 110 129.125 110.125ZM134.05 107.725L137.9 102.325C138.55 101.35 139.175 100.575 139.825 99.5995C140.475 98.6245 141.075 97.7995 141.675 96.8245L147.2 88.4495C147.525 87.8995 148.75 85.8995 149.125 85.5995L151.875 87.0245C152.425 87.2745 152.825 87.4495 153.325 87.6495C153.85 87.8495 154.5 88.0495 154.95 88.2745C154.75 88.5745 154.675 88.6245 154.45 88.9495L150.9 94.1995C150.525 94.7495 150.225 95.1245 149.85 95.6995L148.3 97.8745C148.05 98.2495 147.975 98.2745 147.7 98.6245C145.2 101.85 141.95 105.05 138.125 106.675C137.225 107.125 135.25 107.725 134.05 107.725ZM138.375 27.7745C139.075 28.7995 139.1 30.2495 142.025 32.1995C142.9 32.7745 143.675 33.1245 144.7 33.5495C146.375 34.2245 147.275 34.0745 147.775 34.4995C145.95 34.4995 145.55 34.4745 144.175 34.0745C142.275 33.5245 140.4 32.5245 139.25 30.9245C138.65 30.0495 138.375 29.3245 138.375 27.7745ZM129.125 24.7995C127.275 26.0495 128.05 30.2245 128.875 32.0745C129.8 34.0995 131.075 36.1745 132.75 37.5995C134.3 38.8995 134.3 38.5495 135.725 39.3995C136.7 39.9745 137.65 40.5495 138.725 41.0245C140.55 41.8495 144.35 42.6995 146.3 42.6995C146.9 42.6995 147.45 42.3745 147.95 42.2495C147.6 41.7745 147.5 41.9745 146.125 41.6995C145.7 41.6245 145.525 41.5995 145.125 41.4995L142.475 40.8495C141.875 40.6495 141.4 40.4995 140.825 40.2495C138.6 39.3495 136.875 38.3495 135.05 36.9245C133.25 35.4995 133.725 35.6995 132.7 34.6495C131.525 33.4745 130.75 31.9745 130.175 30.4495C129.425 28.5745 129.125 27.1995 129.125 24.7995ZM107.15 43.1745C105.85 42.2995 106.1 41.5995 106.1 39.7495C106.1 37.8745 106.85 36.1995 107.325 34.6995C108.325 31.6745 110.6 26.9245 113.425 25.0995C114.375 24.4745 114.55 24.4995 115.8 24.1995C115.675 24.6245 115.75 24.3995 115.5 24.6495L114.025 25.8745C113.65 26.2745 113.625 26.3245 113.3 26.7995C113.025 27.2245 112.825 27.4245 112.525 27.8245L109.5 33.3245C109.325 33.6995 109.125 34.1745 108.975 34.5745C108.6 35.4995 108.425 36.1495 108.1 37.1245C107.8 38.0245 107.675 39.0995 107.45 39.9245C107.25 40.7995 107.15 42.0995 107.15 43.1745ZM160.95 20.7495C160.95 18.3495 161.75 16.3995 163.925 15.2245C164.575 14.8745 164.975 14.4745 166.025 14.4745C165.775 15.3995 164.675 15.5495 163.3 17.4245C162.675 18.2745 162.25 18.6245 161.5 19.8245L160.95 20.7495ZM156.925 19.2745C156.925 15.5996 156.7 17.4245 157.25 14.2245C157.525 12.6745 157.875 11.9246 158.675 10.5746C159.975 8.39955 161.8 6.72455 164.1 5.69955C164.9 5.34955 165.775 5.07455 166.65 4.82455C168.625 4.24955 169.025 4.84955 169.475 4.22455C168.35 3.97455 168.525 3.44955 166.875 3.69955C165.625 3.89955 165.15 3.74955 164.05 4.17455C162.775 4.64955 161.525 5.44955 160.525 6.32455C160.375 6.44955 159.4 7.27455 158.55 8.39955C157.6 9.64955 156.7 11.1745 156.3 12.7245C155.825 14.6495 155.475 17.6245 156.925 19.2745ZM150.2 14.4745C150.2 15.8745 150.4 16.9495 150.65 18.0495C149.9 17.8745 148.25 16.7995 144.5 15.9995C139.775 14.9745 133 14.8746 128.55 16.3996C127.3 16.8246 126.275 17.1745 125.05 17.6745L121.825 19.3745C120.475 19.0495 117.5 16.8995 112.6 18.0745C112.3 18.1495 112.05 18.2495 111.575 18.3995C109.3 19.0746 106.875 20.3246 105.2 22.0245C104.725 22.4995 104.2 22.9495 103.8 23.4495L102 25.8245C97.975 30.6495 97.275 39.2245 99.55 45.3995C99.9 46.3245 100.375 47.4995 100.9 48.2495C101.2 48.6745 101.425 49.0245 101.75 49.4745C102.2 50.1245 102.55 50.3495 102.55 51.1995C102.55 51.6495 102.35 51.5495 102.05 51.7495L98.425 53.3495C98.05 53.4745 97.875 53.5495 97.8 53.7995C97.375 55.2495 102.625 53.4995 102.725 53.4745C103.375 53.1995 103.825 52.9745 104.45 52.6495C106.675 51.5245 107.65 50.7495 109.525 49.1995C109.725 49.0245 109.75 49.0245 109.925 48.8495C110.2 48.5995 110.35 48.4245 110.6 48.1745C111.1 47.6745 111.45 47.3495 111.925 46.7995C115.025 43.0995 117.825 39.2995 119.9 34.8995L120.3 34.0995C120.3 34.0745 120.325 34.0245 120.35 33.9995C120.625 35.2245 121.3 36.3745 121.925 37.3495C124.7 41.5245 130.2 44.9745 134.975 46.3995C138.6 47.4745 141.4 48.0495 145.725 48.0495C146.025 49.3245 146.05 49.0745 145.9 50.4495C145.5 53.9745 145.525 55.2745 143.4 58.4245L140.25 62.7995C137.675 66.1495 143.225 64.1745 145.975 61.3495L147.825 59.0245C148.1 58.6245 148.35 58.1745 148.625 57.7245C149.925 55.3995 149.3 55.0995 150.825 53.6495C151.2 53.2995 151.575 53.0495 152.1 52.8245L153.625 52.2495C154.15 52.0745 154.525 51.7745 155.2 51.8995C155.775 51.9995 156.4 52.2245 156.8 52.4245C157.575 52.8245 158.425 54.0245 158.425 54.9745C158.425 57.8495 157.75 58.9995 155.775 60.9995C152.275 64.5245 146.825 64.5995 146.025 65.8995C143.75 69.4995 144.125 78.7745 146.125 82.3995C146.55 83.1495 147.075 83.6245 147.525 84.2995C146.775 85.7495 144.525 88.6995 143.4 90.1995C141.25 93.0495 139.25 96.0495 137.2 98.9495L132.9 104.8C132.375 105.5 131 107 130.775 107.775C128.275 107.775 124.5 105.975 123.075 104.1C121.4 101.875 120.425 96.7245 121.05 94.0245C123.225 94.0245 126 91.7995 127.35 90.7495C127.6 90.5495 127.75 90.4245 128 90.1995C128.275 89.9495 128.375 89.8995 128.625 89.6245C129.475 88.7745 130.025 87.7745 130.45 86.6745C130.85 85.5995 131.5 85.7745 132.3 84.7745C133.9 82.8245 134.075 83.2745 135.975 80.0995L137.675 77.0245C138.125 75.9995 139.55 72.7495 138.075 71.7495C137.55 71.8995 137.825 71.8245 137.425 72.1495C136.15 73.1745 131.325 76.9245 130.35 77.3245C126.4 78.9745 122.925 78.1745 119.525 75.7995C117.6 74.4495 115.775 72.6745 114.475 70.6995C113.65 69.4245 112.7 68.2495 112.15 66.7495C109.45 59.1245 112.05 53.4495 111.175 49.7745H110.125C109.85 50.2745 109.675 50.7745 109.675 51.5745V62.7495C109.675 63.9495 110.075 65.2995 110.45 66.4745C110.625 66.9995 110.825 67.6245 111.025 68.1245C111.8 70.0745 111.975 71.1245 113.275 72.8995C114.1 74.0495 116.825 77.2495 118.025 78.2995L118.675 78.8495C120 80.0245 121.4 80.7495 123.025 81.5245C125.65 82.7745 126.95 82.3245 129.55 82.3245C129.55 83.4995 129.4 84.7495 129.1 85.6245C128.7 86.8495 126.675 89.4495 125.225 89.5245C119.5 89.7495 114.925 90.8745 110.275 93.9995C110.3 93.3745 110.5 92.7245 110.625 92.0995C110.725 91.5495 110.85 90.8745 110.975 90.1995L112.45 82.5495C112.625 81.6745 113.25 79.2995 112.975 78.7495C112.3 78.9995 111.225 82.4745 111.05 83.0995L109.55 88.0245C109.075 89.6495 108.625 91.3745 108.225 92.9745C108.025 93.8245 107.8 94.7995 107.65 95.5245C107.325 96.8995 107.05 96.5995 106.225 97.3745L97.425 106.05C96.225 107.35 94.425 109 94.025 110.725C94.275 111.05 94.3 110.9 94.425 111.225C94.675 111.9 94.65 112.95 94.975 113.825C96.475 117.675 96.5 115.95 94.625 120.15C94.375 120.725 94.1 121.15 93.85 121.775C92.7 124.625 91.15 127.525 90 130.325C89.05 132.65 87.925 134.825 86.975 137.15L83.85 144.05C82.5 143.95 78.7 143.025 77.475 142.5C76.9 142.25 75.425 140.275 74.925 139.675C74.1 138.675 73.125 137.775 72.575 136.65C72.225 135.925 71.675 135.75 70.925 136.05C69.85 136.475 62.175 136.6 60.85 136.6C59.8 136.6 59.4 136.75 58.325 136.75L50.4 136.9C50.1 133.375 45.875 129.275 42.325 129.275C39.9 129.275 39.025 130.075 37.975 132.4C37.325 133.825 36.75 135.5 36.35 137.2L17.825 137.65C17.075 137.65 16.325 137.65 15.575 137.65C14.575 137.65 14.225 137.8 13.35 137.8C9.85 137.85 5.325 137.95 1.975 138.375C0.874998 138.525 0.925 138.475 0.5 139.275C1.125 140.6 1.15 139.75 1.9 140.4L14.825 156.175C15.35 156.825 15.8 157.45 16.325 158.125C16.85 158.775 17.3 159.425 17.825 160.075C18.15 160.45 18.3 160.625 18.65 161.05C19.95 162.8 19.125 162.65 20.65 164.275C20.8 164.45 20.875 164.5 21 164.65C21.025 164.675 21.05 164.7 21.075 164.725C21.725 165.425 21.775 166.925 22.075 167.9C22.575 169.625 22.35 169.425 22.475 171.075C22.525 171.7 22.625 171.9 22.625 172.725L23.45 192.675C23.7 194.35 23.625 196.05 23.65 197.7L24.225 205.775C24.275 206.3 24.225 206.875 24.25 207.4C24.25 208.2 24.4 208.275 24.4 209.025L25.05 218.975C25.225 220.075 25.05 221.2 25.15 222.299C25.275 223.45 25.25 223.975 24.975 225.15L15.325 225.5C14.15 225.675 13.15 225.45 12.875 226.475C13.275 227.075 13.575 227.025 14.5 227.075C19.425 227.375 25.075 226.924 30.05 226.924C30.8 226.924 31.55 226.924 32.3 226.924C33.25 226.924 33.65 226.825 34.4 226.775C35.875 226.7 37.575 226.9 39.025 226.775C42.6 226.475 46.45 226.6 50.1 226.5C50.9 226.475 51.225 226.35 52.175 226.35C53.575 226.35 55.45 226.45 56.8 226.35C60.275 226.05 64.25 226.175 67.875 226.075L72.2 225.924C73.175 225.924 73.675 225.825 74.45 225.775C75.875 225.7 77.5 225.775 78.95 225.775C80.05 225.775 81.075 225.425 82.2 225.65C82.625 225.725 82.75 225.9 83.275 225.9C83.6 225.9 83.925 225.65 84.45 225.575L106.575 225C107.75 225 108.275 224.85 109.4 224.85C110.4 224.85 111.4 224.85 112.4 224.85L118.325 224.625C120.225 224.325 122.375 224.6 124.375 224.549L130.3 224.35C132.025 224.125 134.325 224.425 136.15 224.225L140.5 224.1C141.25 224.075 141.25 223.975 141.975 223.95L147.8 223.799C148.725 223.75 149.85 223.799 150.8 223.799C152 223.799 152.575 223.65 153.775 223.65C157.9 223.675 161.625 223.35 165.575 223.35C169.625 223.35 173.4 223.049 177.525 223.049C178.125 223.049 178.1 223.2 178.675 223.15C179.025 223.1 179.5 222.95 179.8 222.924L188 222.75C189.525 222.75 192.1 222.9 193.5 222.7C195.1 222.475 197.725 223.275 197.725 221.7C197.725 219.95 195.7 220.65 194 220.65L188.95 220.825C187.45 221 185.7 220.95 184 220.95C183.05 220.95 182.675 221.1 181.625 221.1C180.725 221.1 179.825 221.1 178.925 221.1C178.925 220 178.775 219.45 178.775 218.25C178.775 215.175 174.45 192.15 173.775 189.025C173.2 186.325 172.725 184 172 181.4C170.85 177.4 171.425 179.9 172.6 176.95C173.95 173.575 172.725 171.075 171.95 167.85C171.75 167.05 171.6 166.6 171.4 165.85C171.025 164.425 170.675 163.175 170.4 161.775C170.225 160.925 169.825 158.225 169.525 157.575C170.525 157.8 177.55 161.25 178.425 161.825C178.825 162.1 179.175 162.425 179.55 162.65C181.075 163.6 183 164.275 184.975 164.85C188.1 165.75 193.2 166.575 196.45 165.525C198.425 164.9 199.975 163.525 201.25 161.95C202.925 159.9 203.6 155.825 203.6 153.1C203.6 144.45 198.9 132.4 195.85 123.95C194.375 119.875 194.725 121.45 196.65 117.625C196.775 117.375 196.825 117.25 196.925 117C198.175 114.275 197.775 114.925 198.425 112.525C198.575 111.975 198.95 111.75 198.425 111.225C197.575 110.375 198.475 112 196.975 109.975C195.325 107.75 192.625 104.975 190.75 102.75C190.725 102.725 190.7 102.7 190.675 102.675L180.725 92.1495C175.2 87.4745 171.825 86.5995 163.55 86.5995C162.075 86.5995 158.15 86.9245 157.275 87.3495C157.1 86.9995 157.15 86.7995 156.975 86.4495C156.4 86.5995 156.55 86.7495 156.075 87.0495C155.625 86.7495 155.175 86.5245 154.675 86.2245C154.15 85.9245 153.725 85.6745 153.25 85.4245C152.25 84.8745 151.425 84.1745 150.4 83.6245C150.525 83.1495 150.975 82.5495 151.25 82.0745L153.925 77.5745C154.1 77.2745 157.275 71.4745 156.825 71.0245C156.35 70.5495 156.025 71.7995 155.825 72.1495C155.5 72.6995 155.275 73.0745 154.95 73.6495C154.375 74.6745 149.625 81.7495 148.925 82.2745C147.175 81.0995 146.7 77.9745 146.675 75.9995C146.65 73.8495 146.425 72.4245 146.825 70.1745C146.95 69.4495 147.025 68.6745 147.325 67.9745C147.575 67.3745 147.25 67.6745 147.725 67.4745L148.175 67.3245C150.05 67.0745 149.975 67.5245 152.325 66.3995C153.275 65.9495 155.1 64.8245 155.825 64.0745C156.3 63.5995 156.8 63.1745 157.225 62.6245C157.725 61.9745 158.05 61.5495 158.475 60.8995C158.95 60.1745 159.1 59.9745 159.475 59.0745C159.55 58.8995 159.875 58.1245 159.925 58.0245C160.275 57.5245 161.075 57.2995 162 55.7495C162.425 55.0495 162.625 54.5245 162.9 53.6495C163.175 52.8495 163.375 52.3745 163.65 51.5495C164.65 48.4995 165.65 42.1995 165.65 38.7495C165.65 35.8745 165.375 32.1245 164.45 30.2245C169.45 30.2245 172.3 28.7745 174.825 26.2495C177.55 23.5245 178.65 19.8495 178.65 15.8745C178.65 11.5995 176.75 8.42455 174.35 5.39955C172.675 3.32455 170.025 1.94955 167.5 1.17455C165.45 0.549551 163.1 0.52455 161.05 0.97455C160.025 1.19955 159.325 1.44955 158.45 1.82455C156.875 2.44955 155.525 3.54955 154.4 4.64955C153.35 5.69955 152.2 7.32455 151.625 8.74955C151.275 9.59955 150.925 10.3995 150.75 11.2995C150.475 12.3245 150.2 13.4745 150.2 14.4745Z" fill="#101010"/>
</svg>
