<svg width="20" height="20" viewBox="0 0 20 20" fill="none" xmlns="http://www.w3.org/2000/svg">
<path d="M5.63315 18.3327H14.3665C16.6665 18.3327 17.5831 16.9243 17.6915 15.2077L18.1248 8.32435C18.2415 6.52435 16.8081 4.99935 14.9998 4.99935C14.4915 4.99935 14.0248 4.70768 13.7915 4.25768L13.1915 3.04935C12.8081 2.29102 11.8081 1.66602 10.9581 1.66602H9.04981C8.19148 1.66602 7.19148 2.29102 6.80815 3.04935L6.20815 4.25768C5.97481 4.70768 5.50815 4.99935 4.99981 4.99935C3.19148 4.99935 1.75815 6.52435 1.87481 8.32435L2.30815 15.2077C2.40815 16.9243 3.33315 18.3327 5.63315 18.3327Z" stroke="#101010" stroke-width="1.5" stroke-linecap="round" stroke-linejoin="round"/>
<path d="M8.75 6.66602H11.25" stroke="#101010" stroke-width="1.5" stroke-linecap="round" stroke-linejoin="round"/>
<path d="M9.99984 15.0007C11.4915 15.0007 12.7082 13.784 12.7082 12.2923C12.7082 10.8007 11.4915 9.58398 9.99984 9.58398C8.50817 9.58398 7.2915 10.8007 7.2915 12.2923C7.2915 13.784 8.50817 15.0007 9.99984 15.0007Z" stroke="#101010" stroke-width="1.5" stroke-linecap="round" stroke-linejoin="round"/>
</svg>
